M48
;GenerationSoftware,Autodesk,EAGLE,9.6.2*%
;CreationDate,2021-04-18T15:31:11Z*%
FMAT,2
ICI,OFF
METRIC,TZ,000.000
T4C0.350
T3C0.813
T2C1.016
T1C1.118
%
G90
M71
T1
X20320Y16510
X2540Y26670
X12700Y26670
X20320Y26670
T2
X13970Y17780
X12700Y3810
X15240Y8890
X26670Y5080
X29210Y5080
X17780Y3810
X31750Y5080
X34290Y5080
X5080Y11430
X5080Y8890
X5080Y6350
X5080Y3810
X8890Y17780
X49530Y27940
X49530Y22860
T3
X34290Y39370
X26670Y22860
X27940Y20955
X29210Y22860
X16510Y39370
X14605Y38100
X16510Y36830
X39370Y25400
X37465Y24130
X39370Y22860
X21590Y11430
X31750Y11430
X2540Y31750
X12700Y31750
X31750Y33020
X41910Y33020
X29210Y30480
X19050Y30480
X44450Y15240
X34290Y15240
X36830Y39370
X31750Y39370
X29210Y39370
X26670Y39370
T4
X29210Y22860
X33020Y19050
X20320Y16510
X20320Y16510
X24130Y16510
X29210Y22860
X31750Y15240
X40640Y19050
X34290Y15240
X31750Y30480
X30480Y27940
X34290Y15240
M30