G04 EAGLE Gerber X2 export*
%TF.Part,Single*%
%TF.FileFunction,Legend,Top,1*%
%TF.FilePolarity,Positive*%
%TF.GenerationSoftware,Autodesk,EAGLE,9.6.2*%
%TF.CreationDate,2021-04-18T15:31:11Z*%
G75*
%MOMM*%
%FSLAX34Y34*%
%LPD*%
%INSilkscreen Top*%
%AMOC8*
5,1,8,0,0,1.08239X$1,22.5*%
G01*
%ADD10C,0.152400*%
%ADD11R,0.635000X2.286000*%
%ADD12C,0.127000*%
%ADD13R,2.286000X0.635000*%
%ADD14R,0.508000X2.540000*%
%ADD15R,1.905000X0.762000*%
%ADD16R,2.540000X0.508000*%
%ADD17R,0.762000X1.905000*%
%ADD18R,0.863600X0.609600*%


D10*
X424378Y395732D02*
X424378Y411988D01*
X428893Y411988D02*
X419862Y411988D01*
X434833Y411988D02*
X434833Y395732D01*
X434833Y406569D02*
X439349Y406569D01*
X439453Y406567D01*
X439556Y406561D01*
X439660Y406551D01*
X439763Y406537D01*
X439865Y406519D01*
X439966Y406498D01*
X440067Y406472D01*
X440166Y406443D01*
X440265Y406410D01*
X440362Y406373D01*
X440457Y406332D01*
X440551Y406288D01*
X440643Y406240D01*
X440733Y406189D01*
X440822Y406134D01*
X440908Y406076D01*
X440991Y406014D01*
X441073Y405950D01*
X441151Y405882D01*
X441227Y405812D01*
X441301Y405739D01*
X441371Y405662D01*
X441439Y405584D01*
X441503Y405502D01*
X441565Y405419D01*
X441623Y405333D01*
X441678Y405244D01*
X441729Y405154D01*
X441777Y405062D01*
X441821Y404968D01*
X441862Y404873D01*
X441899Y404776D01*
X441932Y404677D01*
X441961Y404578D01*
X441987Y404477D01*
X442008Y404376D01*
X442026Y404274D01*
X442040Y404171D01*
X442050Y404067D01*
X442056Y403964D01*
X442058Y403860D01*
X442058Y395732D01*
X448901Y399344D02*
X448901Y402957D01*
X448902Y402957D02*
X448904Y403076D01*
X448910Y403196D01*
X448920Y403315D01*
X448934Y403433D01*
X448951Y403552D01*
X448973Y403669D01*
X448998Y403786D01*
X449028Y403901D01*
X449061Y404016D01*
X449098Y404130D01*
X449138Y404242D01*
X449183Y404353D01*
X449231Y404462D01*
X449282Y404570D01*
X449337Y404676D01*
X449396Y404780D01*
X449458Y404882D01*
X449523Y404982D01*
X449592Y405080D01*
X449664Y405176D01*
X449739Y405269D01*
X449816Y405359D01*
X449897Y405447D01*
X449981Y405532D01*
X450068Y405614D01*
X450157Y405694D01*
X450249Y405770D01*
X450343Y405844D01*
X450440Y405914D01*
X450538Y405981D01*
X450639Y406045D01*
X450743Y406105D01*
X450848Y406162D01*
X450955Y406215D01*
X451063Y406265D01*
X451173Y406311D01*
X451285Y406353D01*
X451398Y406392D01*
X451512Y406427D01*
X451627Y406458D01*
X451744Y406486D01*
X451861Y406509D01*
X451978Y406529D01*
X452097Y406545D01*
X452216Y406557D01*
X452335Y406565D01*
X452454Y406569D01*
X452574Y406569D01*
X452693Y406565D01*
X452812Y406557D01*
X452931Y406545D01*
X453050Y406529D01*
X453167Y406509D01*
X453284Y406486D01*
X453401Y406458D01*
X453516Y406427D01*
X453630Y406392D01*
X453743Y406353D01*
X453855Y406311D01*
X453965Y406265D01*
X454073Y406215D01*
X454180Y406162D01*
X454285Y406105D01*
X454389Y406045D01*
X454490Y405981D01*
X454588Y405914D01*
X454685Y405844D01*
X454779Y405770D01*
X454871Y405694D01*
X454960Y405614D01*
X455047Y405532D01*
X455131Y405447D01*
X455212Y405359D01*
X455289Y405269D01*
X455364Y405176D01*
X455436Y405080D01*
X455505Y404982D01*
X455570Y404882D01*
X455632Y404780D01*
X455691Y404676D01*
X455746Y404570D01*
X455797Y404462D01*
X455845Y404353D01*
X455890Y404242D01*
X455930Y404130D01*
X455967Y404016D01*
X456000Y403901D01*
X456030Y403786D01*
X456055Y403669D01*
X456077Y403552D01*
X456094Y403433D01*
X456108Y403315D01*
X456118Y403196D01*
X456124Y403076D01*
X456126Y402957D01*
X456126Y399344D01*
X456124Y399225D01*
X456118Y399105D01*
X456108Y398986D01*
X456094Y398868D01*
X456077Y398749D01*
X456055Y398632D01*
X456030Y398515D01*
X456000Y398400D01*
X455967Y398285D01*
X455930Y398171D01*
X455890Y398059D01*
X455845Y397948D01*
X455797Y397839D01*
X455746Y397731D01*
X455691Y397625D01*
X455632Y397521D01*
X455570Y397419D01*
X455505Y397319D01*
X455436Y397221D01*
X455364Y397125D01*
X455289Y397032D01*
X455212Y396942D01*
X455131Y396854D01*
X455047Y396769D01*
X454960Y396687D01*
X454871Y396607D01*
X454779Y396531D01*
X454685Y396457D01*
X454588Y396387D01*
X454490Y396320D01*
X454389Y396256D01*
X454285Y396196D01*
X454180Y396139D01*
X454073Y396086D01*
X453965Y396036D01*
X453855Y395990D01*
X453743Y395948D01*
X453630Y395909D01*
X453516Y395874D01*
X453401Y395843D01*
X453284Y395815D01*
X453167Y395792D01*
X453050Y395772D01*
X452931Y395756D01*
X452812Y395744D01*
X452693Y395736D01*
X452574Y395732D01*
X452454Y395732D01*
X452335Y395736D01*
X452216Y395744D01*
X452097Y395756D01*
X451978Y395772D01*
X451861Y395792D01*
X451744Y395815D01*
X451627Y395843D01*
X451512Y395874D01*
X451398Y395909D01*
X451285Y395948D01*
X451173Y395990D01*
X451063Y396036D01*
X450955Y396086D01*
X450848Y396139D01*
X450743Y396196D01*
X450639Y396256D01*
X450538Y396320D01*
X450440Y396387D01*
X450343Y396457D01*
X450249Y396531D01*
X450157Y396607D01*
X450068Y396687D01*
X449981Y396769D01*
X449897Y396854D01*
X449816Y396942D01*
X449739Y397032D01*
X449664Y397125D01*
X449592Y397221D01*
X449523Y397319D01*
X449458Y397419D01*
X449396Y397521D01*
X449337Y397625D01*
X449282Y397731D01*
X449231Y397839D01*
X449183Y397948D01*
X449138Y398059D01*
X449098Y398171D01*
X449061Y398285D01*
X449028Y398400D01*
X448998Y398515D01*
X448973Y398632D01*
X448951Y398749D01*
X448934Y398868D01*
X448920Y398986D01*
X448910Y399105D01*
X448904Y399225D01*
X448902Y399344D01*
X463247Y395732D02*
X463247Y406569D01*
X471375Y406569D01*
X471476Y406567D01*
X471577Y406561D01*
X471678Y406552D01*
X471779Y406539D01*
X471879Y406522D01*
X471978Y406501D01*
X472076Y406477D01*
X472173Y406449D01*
X472270Y406417D01*
X472365Y406382D01*
X472458Y406343D01*
X472550Y406301D01*
X472641Y406255D01*
X472730Y406206D01*
X472816Y406154D01*
X472901Y406098D01*
X472984Y406040D01*
X473064Y405978D01*
X473142Y405913D01*
X473218Y405846D01*
X473291Y405776D01*
X473361Y405703D01*
X473428Y405627D01*
X473493Y405549D01*
X473555Y405469D01*
X473613Y405386D01*
X473669Y405301D01*
X473721Y405215D01*
X473770Y405126D01*
X473816Y405035D01*
X473858Y404943D01*
X473897Y404850D01*
X473932Y404755D01*
X473964Y404658D01*
X473992Y404561D01*
X474016Y404463D01*
X474037Y404364D01*
X474054Y404264D01*
X474067Y404163D01*
X474076Y404062D01*
X474082Y403961D01*
X474084Y403860D01*
X474085Y403860D02*
X474085Y395732D01*
X468666Y395732D02*
X468666Y406569D01*
X484293Y402054D02*
X488357Y402054D01*
X484293Y402054D02*
X484181Y402052D01*
X484070Y402046D01*
X483959Y402036D01*
X483848Y402023D01*
X483738Y402005D01*
X483629Y401983D01*
X483520Y401958D01*
X483412Y401929D01*
X483306Y401896D01*
X483200Y401859D01*
X483096Y401819D01*
X482994Y401775D01*
X482893Y401727D01*
X482794Y401676D01*
X482696Y401621D01*
X482601Y401563D01*
X482508Y401502D01*
X482417Y401437D01*
X482328Y401369D01*
X482242Y401298D01*
X482159Y401225D01*
X482078Y401148D01*
X481999Y401068D01*
X481924Y400986D01*
X481852Y400901D01*
X481782Y400814D01*
X481716Y400724D01*
X481653Y400632D01*
X481593Y400537D01*
X481537Y400441D01*
X481484Y400343D01*
X481435Y400243D01*
X481389Y400141D01*
X481347Y400038D01*
X481308Y399933D01*
X481273Y399827D01*
X481242Y399720D01*
X481215Y399612D01*
X481191Y399503D01*
X481172Y399393D01*
X481156Y399283D01*
X481144Y399172D01*
X481136Y399060D01*
X481132Y398949D01*
X481132Y398837D01*
X481136Y398726D01*
X481144Y398614D01*
X481156Y398503D01*
X481172Y398393D01*
X481191Y398283D01*
X481215Y398174D01*
X481242Y398066D01*
X481273Y397959D01*
X481308Y397853D01*
X481347Y397748D01*
X481389Y397645D01*
X481435Y397543D01*
X481484Y397443D01*
X481537Y397345D01*
X481593Y397249D01*
X481653Y397154D01*
X481716Y397062D01*
X481782Y396972D01*
X481852Y396885D01*
X481924Y396800D01*
X481999Y396718D01*
X482078Y396638D01*
X482159Y396561D01*
X482242Y396488D01*
X482328Y396417D01*
X482417Y396349D01*
X482508Y396284D01*
X482601Y396223D01*
X482696Y396165D01*
X482794Y396110D01*
X482893Y396059D01*
X482994Y396011D01*
X483096Y395967D01*
X483200Y395927D01*
X483306Y395890D01*
X483412Y395857D01*
X483520Y395828D01*
X483629Y395803D01*
X483738Y395781D01*
X483848Y395763D01*
X483959Y395750D01*
X484070Y395740D01*
X484181Y395734D01*
X484293Y395732D01*
X488357Y395732D01*
X488357Y403860D01*
X488355Y403961D01*
X488349Y404062D01*
X488340Y404163D01*
X488327Y404264D01*
X488310Y404364D01*
X488289Y404463D01*
X488265Y404561D01*
X488237Y404658D01*
X488205Y404755D01*
X488170Y404850D01*
X488131Y404943D01*
X488089Y405035D01*
X488043Y405126D01*
X487994Y405215D01*
X487942Y405301D01*
X487886Y405386D01*
X487828Y405469D01*
X487766Y405549D01*
X487701Y405627D01*
X487634Y405703D01*
X487564Y405776D01*
X487491Y405846D01*
X487415Y405913D01*
X487337Y405978D01*
X487257Y406040D01*
X487174Y406098D01*
X487089Y406154D01*
X487003Y406206D01*
X486914Y406255D01*
X486823Y406301D01*
X486731Y406343D01*
X486638Y406382D01*
X486543Y406417D01*
X486446Y406449D01*
X486349Y406477D01*
X486251Y406501D01*
X486152Y406522D01*
X486052Y406539D01*
X485951Y406552D01*
X485850Y406561D01*
X485749Y406567D01*
X485648Y406569D01*
X482036Y406569D01*
X496629Y402054D02*
X501144Y400248D01*
X496628Y402054D02*
X496540Y402091D01*
X496454Y402132D01*
X496369Y402176D01*
X496286Y402224D01*
X496206Y402275D01*
X496127Y402329D01*
X496051Y402387D01*
X495977Y402447D01*
X495905Y402511D01*
X495837Y402577D01*
X495771Y402647D01*
X495708Y402718D01*
X495647Y402793D01*
X495590Y402869D01*
X495537Y402948D01*
X495486Y403029D01*
X495439Y403112D01*
X495395Y403197D01*
X495355Y403284D01*
X495318Y403372D01*
X495285Y403462D01*
X495255Y403553D01*
X495230Y403645D01*
X495208Y403738D01*
X495190Y403832D01*
X495175Y403926D01*
X495165Y404021D01*
X495159Y404117D01*
X495156Y404212D01*
X495157Y404308D01*
X495163Y404403D01*
X495172Y404499D01*
X495185Y404593D01*
X495201Y404687D01*
X495222Y404781D01*
X495247Y404873D01*
X495275Y404964D01*
X495307Y405054D01*
X495342Y405143D01*
X495381Y405230D01*
X495424Y405316D01*
X495470Y405400D01*
X495520Y405481D01*
X495572Y405561D01*
X495628Y405639D01*
X495688Y405714D01*
X495750Y405786D01*
X495815Y405856D01*
X495883Y405924D01*
X495953Y405988D01*
X496026Y406050D01*
X496102Y406108D01*
X496180Y406164D01*
X496260Y406216D01*
X496342Y406265D01*
X496426Y406310D01*
X496512Y406352D01*
X496599Y406391D01*
X496688Y406426D01*
X496779Y406457D01*
X496870Y406484D01*
X496963Y406508D01*
X497056Y406528D01*
X497150Y406544D01*
X497245Y406556D01*
X497340Y406565D01*
X497436Y406569D01*
X497531Y406570D01*
X497778Y406563D01*
X498024Y406551D01*
X498270Y406533D01*
X498516Y406508D01*
X498760Y406478D01*
X499004Y406442D01*
X499247Y406401D01*
X499489Y406353D01*
X499730Y406299D01*
X499969Y406240D01*
X500207Y406175D01*
X500443Y406104D01*
X500678Y406028D01*
X500911Y405946D01*
X501141Y405858D01*
X501369Y405765D01*
X501596Y405667D01*
X501145Y400247D02*
X501233Y400210D01*
X501319Y400169D01*
X501404Y400125D01*
X501487Y400077D01*
X501567Y400026D01*
X501646Y399972D01*
X501722Y399914D01*
X501796Y399854D01*
X501868Y399790D01*
X501936Y399724D01*
X502002Y399654D01*
X502065Y399583D01*
X502126Y399508D01*
X502183Y399432D01*
X502236Y399353D01*
X502287Y399272D01*
X502334Y399189D01*
X502378Y399104D01*
X502418Y399017D01*
X502455Y398929D01*
X502488Y398839D01*
X502518Y398748D01*
X502543Y398656D01*
X502565Y398563D01*
X502583Y398469D01*
X502598Y398375D01*
X502608Y398280D01*
X502614Y398184D01*
X502617Y398089D01*
X502616Y397993D01*
X502610Y397898D01*
X502601Y397802D01*
X502588Y397708D01*
X502572Y397614D01*
X502551Y397520D01*
X502526Y397428D01*
X502498Y397337D01*
X502466Y397247D01*
X502431Y397158D01*
X502392Y397071D01*
X502349Y396985D01*
X502303Y396901D01*
X502253Y396820D01*
X502201Y396740D01*
X502145Y396662D01*
X502085Y396587D01*
X502023Y396515D01*
X501958Y396445D01*
X501890Y396377D01*
X501820Y396313D01*
X501747Y396251D01*
X501671Y396193D01*
X501593Y396137D01*
X501513Y396085D01*
X501431Y396036D01*
X501347Y395991D01*
X501261Y395949D01*
X501174Y395910D01*
X501085Y395875D01*
X500994Y395844D01*
X500903Y395817D01*
X500810Y395793D01*
X500717Y395773D01*
X500623Y395757D01*
X500528Y395745D01*
X500433Y395736D01*
X500337Y395732D01*
X500242Y395731D01*
X500241Y395732D02*
X499879Y395741D01*
X499517Y395759D01*
X499156Y395786D01*
X498796Y395821D01*
X498436Y395864D01*
X498077Y395916D01*
X497720Y395977D01*
X497365Y396046D01*
X497011Y396123D01*
X496659Y396209D01*
X496309Y396303D01*
X495961Y396406D01*
X495616Y396516D01*
X495274Y396635D01*
X428893Y378093D02*
X426184Y378093D01*
X428893Y378093D02*
X428893Y369062D01*
X423474Y369062D01*
X423356Y369064D01*
X423238Y369070D01*
X423120Y369079D01*
X423003Y369093D01*
X422886Y369110D01*
X422769Y369131D01*
X422654Y369156D01*
X422539Y369185D01*
X422425Y369218D01*
X422313Y369254D01*
X422202Y369294D01*
X422092Y369337D01*
X421983Y369384D01*
X421876Y369434D01*
X421771Y369489D01*
X421668Y369546D01*
X421567Y369607D01*
X421467Y369671D01*
X421370Y369738D01*
X421275Y369808D01*
X421183Y369882D01*
X421092Y369958D01*
X421005Y370038D01*
X420920Y370120D01*
X420838Y370205D01*
X420758Y370292D01*
X420682Y370383D01*
X420608Y370475D01*
X420538Y370570D01*
X420471Y370667D01*
X420407Y370767D01*
X420346Y370868D01*
X420289Y370971D01*
X420234Y371076D01*
X420184Y371183D01*
X420137Y371292D01*
X420094Y371402D01*
X420054Y371513D01*
X420018Y371625D01*
X419985Y371739D01*
X419956Y371854D01*
X419931Y371969D01*
X419910Y372086D01*
X419893Y372203D01*
X419879Y372320D01*
X419870Y372438D01*
X419864Y372556D01*
X419862Y372674D01*
X419862Y381706D01*
X419864Y381824D01*
X419870Y381942D01*
X419879Y382060D01*
X419893Y382177D01*
X419910Y382294D01*
X419931Y382411D01*
X419956Y382526D01*
X419985Y382641D01*
X420018Y382755D01*
X420054Y382867D01*
X420094Y382978D01*
X420137Y383088D01*
X420184Y383197D01*
X420234Y383304D01*
X420288Y383409D01*
X420346Y383512D01*
X420407Y383613D01*
X420471Y383713D01*
X420538Y383810D01*
X420608Y383905D01*
X420682Y383997D01*
X420758Y384088D01*
X420838Y384175D01*
X420920Y384260D01*
X421005Y384342D01*
X421092Y384422D01*
X421183Y384498D01*
X421275Y384572D01*
X421370Y384642D01*
X421467Y384709D01*
X421567Y384773D01*
X421668Y384834D01*
X421771Y384891D01*
X421876Y384945D01*
X421983Y384996D01*
X422092Y385043D01*
X422202Y385086D01*
X422313Y385126D01*
X422425Y385162D01*
X422539Y385195D01*
X422654Y385224D01*
X422769Y385249D01*
X422886Y385270D01*
X423003Y385287D01*
X423120Y385301D01*
X423238Y385310D01*
X423356Y385316D01*
X423474Y385318D01*
X428893Y385318D01*
X438963Y375384D02*
X443027Y375384D01*
X438963Y375384D02*
X438851Y375382D01*
X438740Y375376D01*
X438629Y375366D01*
X438518Y375353D01*
X438408Y375335D01*
X438299Y375313D01*
X438190Y375288D01*
X438082Y375259D01*
X437976Y375226D01*
X437870Y375189D01*
X437766Y375149D01*
X437664Y375105D01*
X437563Y375057D01*
X437464Y375006D01*
X437366Y374951D01*
X437271Y374893D01*
X437178Y374832D01*
X437087Y374767D01*
X436998Y374699D01*
X436912Y374628D01*
X436829Y374555D01*
X436748Y374478D01*
X436669Y374398D01*
X436594Y374316D01*
X436522Y374231D01*
X436452Y374144D01*
X436386Y374054D01*
X436323Y373962D01*
X436263Y373867D01*
X436207Y373771D01*
X436154Y373673D01*
X436105Y373573D01*
X436059Y373471D01*
X436017Y373368D01*
X435978Y373263D01*
X435943Y373157D01*
X435912Y373050D01*
X435885Y372942D01*
X435861Y372833D01*
X435842Y372723D01*
X435826Y372613D01*
X435814Y372502D01*
X435806Y372390D01*
X435802Y372279D01*
X435802Y372167D01*
X435806Y372056D01*
X435814Y371944D01*
X435826Y371833D01*
X435842Y371723D01*
X435861Y371613D01*
X435885Y371504D01*
X435912Y371396D01*
X435943Y371289D01*
X435978Y371183D01*
X436017Y371078D01*
X436059Y370975D01*
X436105Y370873D01*
X436154Y370773D01*
X436207Y370675D01*
X436263Y370579D01*
X436323Y370484D01*
X436386Y370392D01*
X436452Y370302D01*
X436522Y370215D01*
X436594Y370130D01*
X436669Y370048D01*
X436748Y369968D01*
X436829Y369891D01*
X436912Y369818D01*
X436998Y369747D01*
X437087Y369679D01*
X437178Y369614D01*
X437271Y369553D01*
X437366Y369495D01*
X437464Y369440D01*
X437563Y369389D01*
X437664Y369341D01*
X437766Y369297D01*
X437870Y369257D01*
X437976Y369220D01*
X438082Y369187D01*
X438190Y369158D01*
X438299Y369133D01*
X438408Y369111D01*
X438518Y369093D01*
X438629Y369080D01*
X438740Y369070D01*
X438851Y369064D01*
X438963Y369062D01*
X443027Y369062D01*
X443027Y377190D01*
X443025Y377291D01*
X443019Y377392D01*
X443010Y377493D01*
X442997Y377594D01*
X442980Y377694D01*
X442959Y377793D01*
X442935Y377891D01*
X442907Y377988D01*
X442875Y378085D01*
X442840Y378180D01*
X442801Y378273D01*
X442759Y378365D01*
X442713Y378456D01*
X442664Y378545D01*
X442612Y378631D01*
X442556Y378716D01*
X442498Y378799D01*
X442436Y378879D01*
X442371Y378957D01*
X442304Y379033D01*
X442234Y379106D01*
X442161Y379176D01*
X442085Y379243D01*
X442007Y379308D01*
X441927Y379370D01*
X441844Y379428D01*
X441759Y379484D01*
X441673Y379536D01*
X441584Y379585D01*
X441493Y379631D01*
X441401Y379673D01*
X441308Y379712D01*
X441213Y379747D01*
X441116Y379779D01*
X441019Y379807D01*
X440921Y379831D01*
X440822Y379852D01*
X440722Y379869D01*
X440621Y379882D01*
X440520Y379891D01*
X440419Y379897D01*
X440318Y379899D01*
X436705Y379899D01*
X450464Y379899D02*
X450464Y369062D01*
X450464Y379899D02*
X454980Y379899D01*
X455084Y379897D01*
X455187Y379891D01*
X455291Y379881D01*
X455394Y379867D01*
X455496Y379849D01*
X455597Y379828D01*
X455698Y379802D01*
X455797Y379773D01*
X455896Y379740D01*
X455993Y379703D01*
X456088Y379662D01*
X456182Y379618D01*
X456274Y379570D01*
X456364Y379519D01*
X456453Y379464D01*
X456539Y379406D01*
X456622Y379344D01*
X456704Y379280D01*
X456782Y379212D01*
X456858Y379142D01*
X456932Y379069D01*
X457002Y378992D01*
X457070Y378914D01*
X457134Y378832D01*
X457196Y378749D01*
X457254Y378663D01*
X457309Y378574D01*
X457360Y378484D01*
X457408Y378392D01*
X457452Y378298D01*
X457493Y378203D01*
X457530Y378106D01*
X457563Y378007D01*
X457592Y377908D01*
X457618Y377807D01*
X457639Y377706D01*
X457657Y377604D01*
X457671Y377501D01*
X457681Y377397D01*
X457687Y377294D01*
X457689Y377190D01*
X457689Y369062D01*
X465887Y375384D02*
X470403Y373578D01*
X465887Y375384D02*
X465799Y375421D01*
X465713Y375462D01*
X465628Y375506D01*
X465545Y375554D01*
X465465Y375605D01*
X465386Y375659D01*
X465310Y375717D01*
X465236Y375777D01*
X465164Y375841D01*
X465096Y375907D01*
X465030Y375977D01*
X464967Y376048D01*
X464906Y376123D01*
X464849Y376199D01*
X464796Y376278D01*
X464745Y376359D01*
X464698Y376442D01*
X464654Y376527D01*
X464614Y376614D01*
X464577Y376702D01*
X464544Y376792D01*
X464514Y376883D01*
X464489Y376975D01*
X464467Y377068D01*
X464449Y377162D01*
X464434Y377256D01*
X464424Y377351D01*
X464418Y377447D01*
X464415Y377542D01*
X464416Y377638D01*
X464422Y377733D01*
X464431Y377829D01*
X464444Y377923D01*
X464460Y378017D01*
X464481Y378111D01*
X464506Y378203D01*
X464534Y378294D01*
X464566Y378384D01*
X464601Y378473D01*
X464640Y378560D01*
X464683Y378646D01*
X464729Y378730D01*
X464779Y378811D01*
X464831Y378891D01*
X464887Y378969D01*
X464947Y379044D01*
X465009Y379116D01*
X465074Y379186D01*
X465142Y379254D01*
X465212Y379318D01*
X465285Y379380D01*
X465361Y379438D01*
X465439Y379494D01*
X465519Y379546D01*
X465601Y379595D01*
X465685Y379640D01*
X465771Y379682D01*
X465858Y379721D01*
X465947Y379756D01*
X466038Y379787D01*
X466129Y379814D01*
X466222Y379838D01*
X466315Y379858D01*
X466409Y379874D01*
X466504Y379886D01*
X466599Y379895D01*
X466695Y379899D01*
X466790Y379900D01*
X467037Y379893D01*
X467283Y379881D01*
X467529Y379863D01*
X467775Y379838D01*
X468019Y379808D01*
X468263Y379772D01*
X468506Y379731D01*
X468748Y379683D01*
X468989Y379629D01*
X469228Y379570D01*
X469466Y379505D01*
X469702Y379434D01*
X469937Y379358D01*
X470170Y379276D01*
X470400Y379188D01*
X470628Y379095D01*
X470855Y378997D01*
X470403Y373577D02*
X470491Y373540D01*
X470577Y373499D01*
X470662Y373455D01*
X470745Y373407D01*
X470825Y373356D01*
X470904Y373302D01*
X470980Y373244D01*
X471054Y373184D01*
X471126Y373120D01*
X471194Y373054D01*
X471260Y372984D01*
X471323Y372913D01*
X471384Y372838D01*
X471441Y372762D01*
X471494Y372683D01*
X471545Y372602D01*
X471592Y372519D01*
X471636Y372434D01*
X471676Y372347D01*
X471713Y372259D01*
X471746Y372169D01*
X471776Y372078D01*
X471801Y371986D01*
X471823Y371893D01*
X471841Y371799D01*
X471856Y371705D01*
X471866Y371610D01*
X471872Y371514D01*
X471875Y371419D01*
X471874Y371323D01*
X471868Y371228D01*
X471859Y371132D01*
X471846Y371038D01*
X471830Y370944D01*
X471809Y370850D01*
X471784Y370758D01*
X471756Y370667D01*
X471724Y370577D01*
X471689Y370488D01*
X471650Y370401D01*
X471607Y370315D01*
X471561Y370231D01*
X471511Y370150D01*
X471459Y370070D01*
X471403Y369992D01*
X471343Y369917D01*
X471281Y369845D01*
X471216Y369775D01*
X471148Y369707D01*
X471078Y369643D01*
X471005Y369581D01*
X470929Y369523D01*
X470851Y369467D01*
X470771Y369415D01*
X470689Y369366D01*
X470605Y369321D01*
X470519Y369279D01*
X470432Y369240D01*
X470343Y369205D01*
X470252Y369174D01*
X470161Y369147D01*
X470068Y369123D01*
X469975Y369103D01*
X469881Y369087D01*
X469786Y369075D01*
X469691Y369066D01*
X469595Y369062D01*
X469500Y369061D01*
X469499Y369062D02*
X469137Y369071D01*
X468775Y369089D01*
X468414Y369116D01*
X468054Y369151D01*
X467694Y369194D01*
X467335Y369246D01*
X466978Y369307D01*
X466623Y369376D01*
X466269Y369453D01*
X465917Y369539D01*
X465567Y369633D01*
X465219Y369736D01*
X464874Y369846D01*
X464532Y369965D01*
X478601Y369062D02*
X478601Y385318D01*
X478601Y379899D02*
X483116Y379899D01*
X483220Y379897D01*
X483323Y379891D01*
X483427Y379881D01*
X483530Y379867D01*
X483632Y379849D01*
X483733Y379828D01*
X483834Y379802D01*
X483933Y379773D01*
X484032Y379740D01*
X484129Y379703D01*
X484224Y379662D01*
X484318Y379618D01*
X484410Y379570D01*
X484500Y379519D01*
X484589Y379464D01*
X484675Y379406D01*
X484758Y379344D01*
X484840Y379280D01*
X484918Y379212D01*
X484994Y379142D01*
X485068Y379069D01*
X485138Y378992D01*
X485206Y378914D01*
X485270Y378832D01*
X485332Y378749D01*
X485390Y378663D01*
X485445Y378574D01*
X485496Y378484D01*
X485544Y378392D01*
X485588Y378298D01*
X485629Y378203D01*
X485666Y378106D01*
X485699Y378007D01*
X485728Y377908D01*
X485754Y377807D01*
X485775Y377706D01*
X485793Y377604D01*
X485807Y377501D01*
X485817Y377397D01*
X485823Y377294D01*
X485825Y377190D01*
X485826Y377190D02*
X485826Y369062D01*
X495378Y369062D02*
X499894Y369062D01*
X495378Y369062D02*
X495277Y369064D01*
X495176Y369070D01*
X495075Y369079D01*
X494974Y369092D01*
X494874Y369109D01*
X494775Y369130D01*
X494677Y369154D01*
X494580Y369182D01*
X494483Y369214D01*
X494388Y369249D01*
X494295Y369288D01*
X494203Y369330D01*
X494112Y369376D01*
X494024Y369425D01*
X493937Y369477D01*
X493852Y369533D01*
X493769Y369591D01*
X493689Y369653D01*
X493611Y369718D01*
X493535Y369785D01*
X493462Y369855D01*
X493392Y369928D01*
X493325Y370004D01*
X493260Y370082D01*
X493198Y370162D01*
X493140Y370245D01*
X493084Y370330D01*
X493032Y370417D01*
X492983Y370505D01*
X492937Y370596D01*
X492895Y370688D01*
X492856Y370781D01*
X492821Y370876D01*
X492789Y370973D01*
X492761Y371070D01*
X492737Y371168D01*
X492716Y371267D01*
X492699Y371367D01*
X492686Y371468D01*
X492677Y371569D01*
X492671Y371670D01*
X492669Y371771D01*
X492669Y376287D01*
X492671Y376406D01*
X492677Y376526D01*
X492687Y376645D01*
X492701Y376763D01*
X492718Y376882D01*
X492740Y376999D01*
X492765Y377116D01*
X492795Y377231D01*
X492828Y377346D01*
X492865Y377460D01*
X492905Y377572D01*
X492950Y377683D01*
X492998Y377792D01*
X493049Y377900D01*
X493104Y378006D01*
X493163Y378110D01*
X493225Y378212D01*
X493290Y378312D01*
X493359Y378410D01*
X493431Y378506D01*
X493506Y378599D01*
X493583Y378689D01*
X493664Y378777D01*
X493748Y378862D01*
X493835Y378944D01*
X493924Y379024D01*
X494016Y379100D01*
X494110Y379174D01*
X494207Y379244D01*
X494305Y379311D01*
X494406Y379375D01*
X494510Y379435D01*
X494615Y379492D01*
X494722Y379545D01*
X494830Y379595D01*
X494940Y379641D01*
X495052Y379683D01*
X495165Y379722D01*
X495279Y379757D01*
X495394Y379788D01*
X495511Y379816D01*
X495628Y379839D01*
X495745Y379859D01*
X495864Y379875D01*
X495983Y379887D01*
X496102Y379895D01*
X496221Y379899D01*
X496341Y379899D01*
X496460Y379895D01*
X496579Y379887D01*
X496698Y379875D01*
X496817Y379859D01*
X496934Y379839D01*
X497051Y379816D01*
X497168Y379788D01*
X497283Y379757D01*
X497397Y379722D01*
X497510Y379683D01*
X497622Y379641D01*
X497732Y379595D01*
X497840Y379545D01*
X497947Y379492D01*
X498052Y379435D01*
X498156Y379375D01*
X498257Y379311D01*
X498355Y379244D01*
X498452Y379174D01*
X498546Y379100D01*
X498638Y379024D01*
X498727Y378944D01*
X498814Y378862D01*
X498898Y378777D01*
X498979Y378689D01*
X499056Y378599D01*
X499131Y378506D01*
X499203Y378410D01*
X499272Y378312D01*
X499337Y378212D01*
X499399Y378110D01*
X499458Y378006D01*
X499513Y377900D01*
X499564Y377792D01*
X499612Y377683D01*
X499657Y377572D01*
X499697Y377460D01*
X499734Y377346D01*
X499767Y377231D01*
X499797Y377116D01*
X499822Y376999D01*
X499844Y376882D01*
X499861Y376763D01*
X499875Y376645D01*
X499885Y376526D01*
X499891Y376406D01*
X499893Y376287D01*
X499894Y376287D02*
X499894Y374481D01*
X492669Y374481D01*
X506181Y379899D02*
X506181Y369062D01*
X505729Y384415D02*
X505729Y385318D01*
X506632Y385318D01*
X506632Y384415D01*
X505729Y384415D01*
X513267Y379899D02*
X513267Y369062D01*
X513267Y379899D02*
X521395Y379899D01*
X521496Y379897D01*
X521597Y379891D01*
X521698Y379882D01*
X521799Y379869D01*
X521899Y379852D01*
X521998Y379831D01*
X522096Y379807D01*
X522193Y379779D01*
X522290Y379747D01*
X522385Y379712D01*
X522478Y379673D01*
X522570Y379631D01*
X522661Y379585D01*
X522750Y379536D01*
X522836Y379484D01*
X522921Y379428D01*
X523004Y379370D01*
X523084Y379308D01*
X523162Y379243D01*
X523238Y379176D01*
X523311Y379106D01*
X523381Y379033D01*
X523448Y378957D01*
X523513Y378879D01*
X523575Y378799D01*
X523633Y378716D01*
X523689Y378631D01*
X523741Y378545D01*
X523790Y378456D01*
X523836Y378365D01*
X523878Y378273D01*
X523917Y378180D01*
X523952Y378085D01*
X523984Y377988D01*
X524012Y377891D01*
X524036Y377793D01*
X524057Y377694D01*
X524074Y377594D01*
X524087Y377493D01*
X524096Y377392D01*
X524102Y377291D01*
X524104Y377190D01*
X524105Y377190D02*
X524105Y369062D01*
X518686Y369062D02*
X518686Y379899D01*
X533935Y369062D02*
X538451Y369062D01*
X533935Y369062D02*
X533834Y369064D01*
X533733Y369070D01*
X533632Y369079D01*
X533531Y369092D01*
X533431Y369109D01*
X533332Y369130D01*
X533234Y369154D01*
X533137Y369182D01*
X533040Y369214D01*
X532945Y369249D01*
X532852Y369288D01*
X532760Y369330D01*
X532669Y369376D01*
X532581Y369425D01*
X532494Y369477D01*
X532409Y369533D01*
X532326Y369591D01*
X532246Y369653D01*
X532168Y369718D01*
X532092Y369785D01*
X532019Y369855D01*
X531949Y369928D01*
X531882Y370004D01*
X531817Y370082D01*
X531755Y370162D01*
X531697Y370245D01*
X531641Y370330D01*
X531589Y370417D01*
X531540Y370505D01*
X531494Y370596D01*
X531452Y370688D01*
X531413Y370781D01*
X531378Y370876D01*
X531346Y370973D01*
X531318Y371070D01*
X531294Y371168D01*
X531273Y371267D01*
X531256Y371367D01*
X531243Y371468D01*
X531234Y371569D01*
X531228Y371670D01*
X531226Y371771D01*
X531226Y376287D01*
X531228Y376406D01*
X531234Y376526D01*
X531244Y376645D01*
X531258Y376763D01*
X531275Y376882D01*
X531297Y376999D01*
X531322Y377116D01*
X531352Y377231D01*
X531385Y377346D01*
X531422Y377460D01*
X531462Y377572D01*
X531507Y377683D01*
X531555Y377792D01*
X531606Y377900D01*
X531661Y378006D01*
X531720Y378110D01*
X531782Y378212D01*
X531847Y378312D01*
X531916Y378410D01*
X531988Y378506D01*
X532063Y378599D01*
X532140Y378689D01*
X532221Y378777D01*
X532305Y378862D01*
X532392Y378944D01*
X532481Y379024D01*
X532573Y379100D01*
X532667Y379174D01*
X532764Y379244D01*
X532862Y379311D01*
X532963Y379375D01*
X533067Y379435D01*
X533172Y379492D01*
X533279Y379545D01*
X533387Y379595D01*
X533497Y379641D01*
X533609Y379683D01*
X533722Y379722D01*
X533836Y379757D01*
X533951Y379788D01*
X534068Y379816D01*
X534185Y379839D01*
X534302Y379859D01*
X534421Y379875D01*
X534540Y379887D01*
X534659Y379895D01*
X534778Y379899D01*
X534898Y379899D01*
X535017Y379895D01*
X535136Y379887D01*
X535255Y379875D01*
X535374Y379859D01*
X535491Y379839D01*
X535608Y379816D01*
X535725Y379788D01*
X535840Y379757D01*
X535954Y379722D01*
X536067Y379683D01*
X536179Y379641D01*
X536289Y379595D01*
X536397Y379545D01*
X536504Y379492D01*
X536609Y379435D01*
X536713Y379375D01*
X536814Y379311D01*
X536912Y379244D01*
X537009Y379174D01*
X537103Y379100D01*
X537195Y379024D01*
X537284Y378944D01*
X537371Y378862D01*
X537455Y378777D01*
X537536Y378689D01*
X537613Y378599D01*
X537688Y378506D01*
X537760Y378410D01*
X537829Y378312D01*
X537894Y378212D01*
X537956Y378110D01*
X538015Y378006D01*
X538070Y377900D01*
X538121Y377792D01*
X538169Y377683D01*
X538214Y377572D01*
X538254Y377460D01*
X538291Y377346D01*
X538324Y377231D01*
X538354Y377116D01*
X538379Y376999D01*
X538401Y376882D01*
X538418Y376763D01*
X538432Y376645D01*
X538442Y376526D01*
X538448Y376406D01*
X538450Y376287D01*
X538451Y376287D02*
X538451Y374481D01*
X531226Y374481D01*
X545379Y369062D02*
X545379Y379899D01*
X550797Y379899D01*
X550797Y378093D01*
X427087Y79502D02*
X419862Y79502D01*
X419862Y95758D01*
X427087Y95758D01*
X425281Y88533D02*
X419862Y88533D01*
X436431Y79502D02*
X440044Y79502D01*
X436431Y79502D02*
X436313Y79504D01*
X436195Y79510D01*
X436077Y79519D01*
X435960Y79533D01*
X435843Y79550D01*
X435726Y79571D01*
X435611Y79596D01*
X435496Y79625D01*
X435382Y79658D01*
X435270Y79694D01*
X435159Y79734D01*
X435049Y79777D01*
X434940Y79824D01*
X434833Y79874D01*
X434728Y79929D01*
X434625Y79986D01*
X434524Y80047D01*
X434424Y80111D01*
X434327Y80178D01*
X434232Y80248D01*
X434140Y80322D01*
X434049Y80398D01*
X433962Y80478D01*
X433877Y80560D01*
X433795Y80645D01*
X433715Y80732D01*
X433639Y80823D01*
X433565Y80915D01*
X433495Y81010D01*
X433428Y81107D01*
X433364Y81207D01*
X433303Y81308D01*
X433246Y81411D01*
X433191Y81516D01*
X433141Y81623D01*
X433094Y81732D01*
X433051Y81842D01*
X433011Y81953D01*
X432975Y82065D01*
X432942Y82179D01*
X432913Y82294D01*
X432888Y82409D01*
X432867Y82526D01*
X432850Y82643D01*
X432836Y82760D01*
X432827Y82878D01*
X432821Y82996D01*
X432819Y83114D01*
X432819Y92146D01*
X432821Y92264D01*
X432827Y92382D01*
X432836Y92500D01*
X432850Y92617D01*
X432867Y92734D01*
X432888Y92851D01*
X432913Y92966D01*
X432942Y93081D01*
X432975Y93195D01*
X433011Y93307D01*
X433051Y93418D01*
X433094Y93528D01*
X433141Y93637D01*
X433191Y93744D01*
X433245Y93849D01*
X433303Y93952D01*
X433364Y94053D01*
X433428Y94153D01*
X433495Y94250D01*
X433565Y94345D01*
X433639Y94437D01*
X433715Y94528D01*
X433795Y94615D01*
X433877Y94700D01*
X433962Y94782D01*
X434049Y94862D01*
X434140Y94938D01*
X434232Y95012D01*
X434327Y95082D01*
X434424Y95149D01*
X434524Y95213D01*
X434625Y95274D01*
X434728Y95331D01*
X434833Y95385D01*
X434940Y95436D01*
X435049Y95483D01*
X435159Y95526D01*
X435270Y95566D01*
X435382Y95602D01*
X435496Y95635D01*
X435611Y95664D01*
X435726Y95689D01*
X435843Y95710D01*
X435960Y95727D01*
X436077Y95741D01*
X436195Y95750D01*
X436313Y95756D01*
X436431Y95758D01*
X440044Y95758D01*
X446435Y79502D02*
X453660Y79502D01*
X446435Y79502D02*
X446435Y95758D01*
X453660Y95758D01*
X451854Y88533D02*
X446435Y88533D01*
X467768Y79502D02*
X472283Y79502D01*
X472416Y79504D01*
X472548Y79510D01*
X472680Y79520D01*
X472812Y79533D01*
X472944Y79551D01*
X473074Y79572D01*
X473205Y79597D01*
X473334Y79626D01*
X473462Y79659D01*
X473590Y79695D01*
X473716Y79735D01*
X473841Y79779D01*
X473965Y79827D01*
X474087Y79878D01*
X474208Y79933D01*
X474327Y79991D01*
X474445Y80053D01*
X474560Y80118D01*
X474674Y80187D01*
X474785Y80258D01*
X474894Y80334D01*
X475001Y80412D01*
X475106Y80493D01*
X475208Y80578D01*
X475308Y80665D01*
X475405Y80755D01*
X475500Y80848D01*
X475591Y80944D01*
X475680Y81042D01*
X475766Y81143D01*
X475849Y81247D01*
X475929Y81353D01*
X476005Y81461D01*
X476079Y81571D01*
X476149Y81684D01*
X476216Y81798D01*
X476279Y81915D01*
X476339Y82033D01*
X476396Y82153D01*
X476449Y82275D01*
X476498Y82398D01*
X476544Y82522D01*
X476586Y82648D01*
X476624Y82775D01*
X476659Y82903D01*
X476690Y83032D01*
X476717Y83161D01*
X476740Y83292D01*
X476760Y83423D01*
X476775Y83555D01*
X476787Y83687D01*
X476795Y83819D01*
X476799Y83952D01*
X476799Y84084D01*
X476795Y84217D01*
X476787Y84349D01*
X476775Y84481D01*
X476760Y84613D01*
X476740Y84744D01*
X476717Y84875D01*
X476690Y85004D01*
X476659Y85133D01*
X476624Y85261D01*
X476586Y85388D01*
X476544Y85514D01*
X476498Y85638D01*
X476449Y85761D01*
X476396Y85883D01*
X476339Y86003D01*
X476279Y86121D01*
X476216Y86238D01*
X476149Y86352D01*
X476079Y86465D01*
X476005Y86575D01*
X475929Y86683D01*
X475849Y86789D01*
X475766Y86893D01*
X475680Y86994D01*
X475591Y87092D01*
X475500Y87188D01*
X475405Y87281D01*
X475308Y87371D01*
X475208Y87458D01*
X475106Y87543D01*
X475001Y87624D01*
X474894Y87702D01*
X474785Y87778D01*
X474674Y87849D01*
X474560Y87918D01*
X474445Y87983D01*
X474327Y88045D01*
X474208Y88103D01*
X474087Y88158D01*
X473965Y88209D01*
X473841Y88257D01*
X473716Y88301D01*
X473590Y88341D01*
X473462Y88377D01*
X473334Y88410D01*
X473205Y88439D01*
X473074Y88464D01*
X472944Y88485D01*
X472812Y88503D01*
X472680Y88516D01*
X472548Y88526D01*
X472416Y88532D01*
X472283Y88534D01*
X473187Y95758D02*
X467768Y95758D01*
X473187Y95758D02*
X473306Y95756D01*
X473426Y95750D01*
X473545Y95740D01*
X473663Y95726D01*
X473782Y95709D01*
X473899Y95687D01*
X474016Y95662D01*
X474131Y95632D01*
X474246Y95599D01*
X474360Y95562D01*
X474472Y95522D01*
X474583Y95477D01*
X474692Y95429D01*
X474800Y95378D01*
X474906Y95323D01*
X475010Y95264D01*
X475112Y95202D01*
X475212Y95137D01*
X475310Y95068D01*
X475406Y94996D01*
X475499Y94921D01*
X475589Y94844D01*
X475677Y94763D01*
X475762Y94679D01*
X475844Y94592D01*
X475924Y94503D01*
X476000Y94411D01*
X476074Y94317D01*
X476144Y94220D01*
X476211Y94122D01*
X476275Y94021D01*
X476335Y93917D01*
X476392Y93812D01*
X476445Y93705D01*
X476495Y93597D01*
X476541Y93487D01*
X476583Y93375D01*
X476622Y93262D01*
X476657Y93148D01*
X476688Y93033D01*
X476716Y92916D01*
X476739Y92799D01*
X476759Y92682D01*
X476775Y92563D01*
X476787Y92444D01*
X476795Y92325D01*
X476799Y92206D01*
X476799Y92086D01*
X476795Y91967D01*
X476787Y91848D01*
X476775Y91729D01*
X476759Y91610D01*
X476739Y91493D01*
X476716Y91376D01*
X476688Y91259D01*
X476657Y91144D01*
X476622Y91030D01*
X476583Y90917D01*
X476541Y90805D01*
X476495Y90695D01*
X476445Y90587D01*
X476392Y90480D01*
X476335Y90375D01*
X476275Y90271D01*
X476211Y90170D01*
X476144Y90072D01*
X476074Y89975D01*
X476000Y89881D01*
X475924Y89789D01*
X475844Y89700D01*
X475762Y89613D01*
X475677Y89529D01*
X475589Y89448D01*
X475499Y89371D01*
X475406Y89296D01*
X475310Y89224D01*
X475212Y89155D01*
X475112Y89090D01*
X475010Y89028D01*
X474906Y88969D01*
X474800Y88914D01*
X474692Y88863D01*
X474583Y88815D01*
X474472Y88770D01*
X474360Y88730D01*
X474246Y88693D01*
X474131Y88660D01*
X474016Y88630D01*
X473899Y88605D01*
X473782Y88583D01*
X473663Y88566D01*
X473545Y88552D01*
X473426Y88542D01*
X473306Y88536D01*
X473187Y88534D01*
X473187Y88533D02*
X469574Y88533D01*
X483399Y79502D02*
X488818Y79502D01*
X488936Y79504D01*
X489054Y79510D01*
X489172Y79519D01*
X489289Y79533D01*
X489406Y79550D01*
X489523Y79571D01*
X489638Y79596D01*
X489753Y79625D01*
X489867Y79658D01*
X489979Y79694D01*
X490090Y79734D01*
X490200Y79777D01*
X490309Y79824D01*
X490416Y79874D01*
X490521Y79929D01*
X490624Y79986D01*
X490725Y80047D01*
X490825Y80111D01*
X490922Y80178D01*
X491017Y80248D01*
X491109Y80322D01*
X491200Y80398D01*
X491287Y80478D01*
X491372Y80560D01*
X491454Y80645D01*
X491534Y80732D01*
X491610Y80823D01*
X491684Y80915D01*
X491754Y81010D01*
X491821Y81107D01*
X491885Y81207D01*
X491946Y81308D01*
X492003Y81411D01*
X492058Y81516D01*
X492108Y81623D01*
X492155Y81732D01*
X492198Y81842D01*
X492238Y81953D01*
X492274Y82065D01*
X492307Y82179D01*
X492336Y82294D01*
X492361Y82409D01*
X492382Y82526D01*
X492399Y82643D01*
X492413Y82760D01*
X492422Y82878D01*
X492428Y82996D01*
X492430Y83114D01*
X492430Y84921D01*
X492428Y85039D01*
X492422Y85157D01*
X492413Y85275D01*
X492399Y85392D01*
X492382Y85509D01*
X492361Y85626D01*
X492336Y85741D01*
X492307Y85856D01*
X492274Y85970D01*
X492238Y86082D01*
X492198Y86193D01*
X492155Y86303D01*
X492108Y86412D01*
X492058Y86519D01*
X492003Y86624D01*
X491946Y86727D01*
X491885Y86828D01*
X491821Y86928D01*
X491754Y87025D01*
X491684Y87120D01*
X491610Y87212D01*
X491534Y87303D01*
X491454Y87390D01*
X491372Y87475D01*
X491287Y87557D01*
X491200Y87637D01*
X491109Y87713D01*
X491017Y87787D01*
X490922Y87857D01*
X490825Y87924D01*
X490725Y87988D01*
X490624Y88049D01*
X490521Y88106D01*
X490416Y88161D01*
X490309Y88211D01*
X490200Y88258D01*
X490090Y88301D01*
X489979Y88341D01*
X489867Y88377D01*
X489753Y88410D01*
X489638Y88439D01*
X489523Y88464D01*
X489406Y88485D01*
X489289Y88502D01*
X489172Y88516D01*
X489054Y88525D01*
X488936Y88531D01*
X488818Y88533D01*
X483399Y88533D01*
X483399Y95758D01*
X492430Y95758D01*
X499030Y92146D02*
X503546Y95758D01*
X503546Y79502D01*
X508061Y79502D02*
X499030Y79502D01*
X518235Y79502D02*
X521847Y79502D01*
X518235Y79502D02*
X518117Y79504D01*
X517999Y79510D01*
X517881Y79519D01*
X517764Y79533D01*
X517647Y79550D01*
X517530Y79571D01*
X517415Y79596D01*
X517300Y79625D01*
X517186Y79658D01*
X517074Y79694D01*
X516963Y79734D01*
X516853Y79777D01*
X516744Y79824D01*
X516637Y79874D01*
X516532Y79929D01*
X516429Y79986D01*
X516328Y80047D01*
X516228Y80111D01*
X516131Y80178D01*
X516036Y80248D01*
X515944Y80322D01*
X515853Y80398D01*
X515766Y80478D01*
X515681Y80560D01*
X515599Y80645D01*
X515519Y80732D01*
X515443Y80823D01*
X515369Y80915D01*
X515299Y81010D01*
X515232Y81107D01*
X515168Y81207D01*
X515107Y81308D01*
X515050Y81411D01*
X514995Y81516D01*
X514945Y81623D01*
X514898Y81732D01*
X514855Y81842D01*
X514815Y81953D01*
X514779Y82065D01*
X514746Y82179D01*
X514717Y82294D01*
X514692Y82409D01*
X514671Y82526D01*
X514654Y82643D01*
X514640Y82760D01*
X514631Y82878D01*
X514625Y82996D01*
X514623Y83114D01*
X514622Y83114D02*
X514622Y92146D01*
X514623Y92146D02*
X514625Y92264D01*
X514631Y92382D01*
X514640Y92500D01*
X514654Y92617D01*
X514671Y92734D01*
X514692Y92851D01*
X514717Y92966D01*
X514746Y93081D01*
X514779Y93195D01*
X514815Y93307D01*
X514855Y93418D01*
X514898Y93528D01*
X514945Y93637D01*
X514995Y93744D01*
X515049Y93849D01*
X515107Y93952D01*
X515168Y94053D01*
X515232Y94153D01*
X515299Y94250D01*
X515369Y94345D01*
X515443Y94437D01*
X515519Y94528D01*
X515599Y94615D01*
X515681Y94700D01*
X515766Y94782D01*
X515853Y94862D01*
X515944Y94938D01*
X516036Y95012D01*
X516131Y95082D01*
X516228Y95149D01*
X516328Y95213D01*
X516429Y95274D01*
X516532Y95331D01*
X516637Y95385D01*
X516744Y95436D01*
X516853Y95483D01*
X516963Y95526D01*
X517074Y95566D01*
X517186Y95602D01*
X517300Y95635D01*
X517415Y95664D01*
X517530Y95689D01*
X517647Y95710D01*
X517764Y95727D01*
X517881Y95741D01*
X517999Y95750D01*
X518117Y95756D01*
X518235Y95758D01*
X521847Y95758D01*
X425281Y69088D02*
X419862Y52832D01*
X430699Y52832D02*
X425281Y69088D01*
X429345Y56896D02*
X421217Y56896D01*
X436778Y55541D02*
X436778Y63669D01*
X436779Y55541D02*
X436781Y55440D01*
X436787Y55339D01*
X436796Y55238D01*
X436809Y55137D01*
X436826Y55037D01*
X436847Y54938D01*
X436871Y54840D01*
X436899Y54743D01*
X436931Y54646D01*
X436966Y54551D01*
X437005Y54458D01*
X437047Y54366D01*
X437093Y54275D01*
X437142Y54186D01*
X437194Y54100D01*
X437250Y54015D01*
X437308Y53932D01*
X437370Y53852D01*
X437435Y53774D01*
X437502Y53698D01*
X437572Y53625D01*
X437645Y53555D01*
X437721Y53488D01*
X437799Y53423D01*
X437879Y53361D01*
X437962Y53303D01*
X438047Y53247D01*
X438134Y53195D01*
X438222Y53146D01*
X438313Y53100D01*
X438405Y53058D01*
X438498Y53019D01*
X438593Y52984D01*
X438690Y52952D01*
X438787Y52924D01*
X438885Y52900D01*
X438984Y52879D01*
X439084Y52862D01*
X439185Y52849D01*
X439286Y52840D01*
X439387Y52834D01*
X439488Y52832D01*
X444003Y52832D01*
X444003Y63669D01*
X457998Y69088D02*
X457998Y52832D01*
X453483Y52832D01*
X453382Y52834D01*
X453281Y52840D01*
X453180Y52849D01*
X453079Y52862D01*
X452979Y52879D01*
X452880Y52900D01*
X452782Y52924D01*
X452685Y52952D01*
X452588Y52984D01*
X452493Y53019D01*
X452400Y53058D01*
X452308Y53100D01*
X452217Y53146D01*
X452129Y53195D01*
X452042Y53247D01*
X451957Y53303D01*
X451874Y53361D01*
X451794Y53423D01*
X451716Y53488D01*
X451640Y53555D01*
X451567Y53625D01*
X451497Y53698D01*
X451430Y53774D01*
X451365Y53852D01*
X451303Y53932D01*
X451245Y54015D01*
X451189Y54100D01*
X451137Y54186D01*
X451088Y54275D01*
X451042Y54366D01*
X451000Y54458D01*
X450961Y54551D01*
X450926Y54646D01*
X450894Y54743D01*
X450866Y54840D01*
X450842Y54938D01*
X450821Y55037D01*
X450804Y55137D01*
X450791Y55238D01*
X450782Y55339D01*
X450776Y55440D01*
X450774Y55541D01*
X450773Y55541D02*
X450773Y60960D01*
X450774Y60960D02*
X450776Y61061D01*
X450782Y61162D01*
X450791Y61263D01*
X450804Y61364D01*
X450821Y61464D01*
X450842Y61563D01*
X450866Y61661D01*
X450894Y61758D01*
X450926Y61855D01*
X450961Y61950D01*
X451000Y62043D01*
X451042Y62135D01*
X451088Y62226D01*
X451137Y62315D01*
X451189Y62401D01*
X451245Y62486D01*
X451303Y62569D01*
X451365Y62649D01*
X451430Y62727D01*
X451497Y62803D01*
X451567Y62876D01*
X451640Y62946D01*
X451716Y63013D01*
X451794Y63078D01*
X451874Y63140D01*
X451957Y63198D01*
X452042Y63254D01*
X452129Y63306D01*
X452217Y63355D01*
X452308Y63401D01*
X452400Y63443D01*
X452493Y63482D01*
X452588Y63517D01*
X452685Y63549D01*
X452782Y63577D01*
X452880Y63601D01*
X452979Y63622D01*
X453079Y63639D01*
X453180Y63652D01*
X453281Y63661D01*
X453382Y63667D01*
X453483Y63669D01*
X457998Y63669D01*
X464880Y63669D02*
X464880Y52832D01*
X464428Y68185D02*
X464428Y69088D01*
X465331Y69088D01*
X465331Y68185D01*
X464428Y68185D01*
X471167Y60057D02*
X471167Y56444D01*
X471168Y60057D02*
X471170Y60176D01*
X471176Y60296D01*
X471186Y60415D01*
X471200Y60533D01*
X471217Y60652D01*
X471239Y60769D01*
X471264Y60886D01*
X471294Y61001D01*
X471327Y61116D01*
X471364Y61230D01*
X471404Y61342D01*
X471449Y61453D01*
X471497Y61562D01*
X471548Y61670D01*
X471603Y61776D01*
X471662Y61880D01*
X471724Y61982D01*
X471789Y62082D01*
X471858Y62180D01*
X471930Y62276D01*
X472005Y62369D01*
X472082Y62459D01*
X472163Y62547D01*
X472247Y62632D01*
X472334Y62714D01*
X472423Y62794D01*
X472515Y62870D01*
X472609Y62944D01*
X472706Y63014D01*
X472804Y63081D01*
X472905Y63145D01*
X473009Y63205D01*
X473114Y63262D01*
X473221Y63315D01*
X473329Y63365D01*
X473439Y63411D01*
X473551Y63453D01*
X473664Y63492D01*
X473778Y63527D01*
X473893Y63558D01*
X474010Y63586D01*
X474127Y63609D01*
X474244Y63629D01*
X474363Y63645D01*
X474482Y63657D01*
X474601Y63665D01*
X474720Y63669D01*
X474840Y63669D01*
X474959Y63665D01*
X475078Y63657D01*
X475197Y63645D01*
X475316Y63629D01*
X475433Y63609D01*
X475550Y63586D01*
X475667Y63558D01*
X475782Y63527D01*
X475896Y63492D01*
X476009Y63453D01*
X476121Y63411D01*
X476231Y63365D01*
X476339Y63315D01*
X476446Y63262D01*
X476551Y63205D01*
X476655Y63145D01*
X476756Y63081D01*
X476854Y63014D01*
X476951Y62944D01*
X477045Y62870D01*
X477137Y62794D01*
X477226Y62714D01*
X477313Y62632D01*
X477397Y62547D01*
X477478Y62459D01*
X477555Y62369D01*
X477630Y62276D01*
X477702Y62180D01*
X477771Y62082D01*
X477836Y61982D01*
X477898Y61880D01*
X477957Y61776D01*
X478012Y61670D01*
X478063Y61562D01*
X478111Y61453D01*
X478156Y61342D01*
X478196Y61230D01*
X478233Y61116D01*
X478266Y61001D01*
X478296Y60886D01*
X478321Y60769D01*
X478343Y60652D01*
X478360Y60533D01*
X478374Y60415D01*
X478384Y60296D01*
X478390Y60176D01*
X478392Y60057D01*
X478392Y56444D01*
X478390Y56325D01*
X478384Y56205D01*
X478374Y56086D01*
X478360Y55968D01*
X478343Y55849D01*
X478321Y55732D01*
X478296Y55615D01*
X478266Y55500D01*
X478233Y55385D01*
X478196Y55271D01*
X478156Y55159D01*
X478111Y55048D01*
X478063Y54939D01*
X478012Y54831D01*
X477957Y54725D01*
X477898Y54621D01*
X477836Y54519D01*
X477771Y54419D01*
X477702Y54321D01*
X477630Y54225D01*
X477555Y54132D01*
X477478Y54042D01*
X477397Y53954D01*
X477313Y53869D01*
X477226Y53787D01*
X477137Y53707D01*
X477045Y53631D01*
X476951Y53557D01*
X476854Y53487D01*
X476756Y53420D01*
X476655Y53356D01*
X476551Y53296D01*
X476446Y53239D01*
X476339Y53186D01*
X476231Y53136D01*
X476121Y53090D01*
X476009Y53048D01*
X475896Y53009D01*
X475782Y52974D01*
X475667Y52943D01*
X475550Y52915D01*
X475433Y52892D01*
X475316Y52872D01*
X475197Y52856D01*
X475078Y52844D01*
X474959Y52836D01*
X474840Y52832D01*
X474720Y52832D01*
X474601Y52836D01*
X474482Y52844D01*
X474363Y52856D01*
X474244Y52872D01*
X474127Y52892D01*
X474010Y52915D01*
X473893Y52943D01*
X473778Y52974D01*
X473664Y53009D01*
X473551Y53048D01*
X473439Y53090D01*
X473329Y53136D01*
X473221Y53186D01*
X473114Y53239D01*
X473009Y53296D01*
X472905Y53356D01*
X472804Y53420D01*
X472706Y53487D01*
X472609Y53557D01*
X472515Y53631D01*
X472423Y53707D01*
X472334Y53787D01*
X472247Y53869D01*
X472163Y53954D01*
X472082Y54042D01*
X472005Y54132D01*
X471930Y54225D01*
X471858Y54321D01*
X471789Y54419D01*
X471724Y54519D01*
X471662Y54621D01*
X471603Y54725D01*
X471548Y54831D01*
X471497Y54939D01*
X471449Y55048D01*
X471404Y55159D01*
X471364Y55271D01*
X471327Y55385D01*
X471294Y55500D01*
X471264Y55615D01*
X471239Y55732D01*
X471217Y55849D01*
X471200Y55968D01*
X471186Y56086D01*
X471176Y56205D01*
X471170Y56325D01*
X471168Y56444D01*
X492287Y52832D02*
X497705Y69088D01*
X503124Y52832D01*
X501769Y56896D02*
X493641Y56896D01*
X509481Y52832D02*
X509481Y63669D01*
X517609Y63669D01*
X517710Y63667D01*
X517811Y63661D01*
X517912Y63652D01*
X518013Y63639D01*
X518113Y63622D01*
X518212Y63601D01*
X518310Y63577D01*
X518407Y63549D01*
X518504Y63517D01*
X518599Y63482D01*
X518692Y63443D01*
X518784Y63401D01*
X518875Y63355D01*
X518964Y63306D01*
X519050Y63254D01*
X519135Y63198D01*
X519218Y63140D01*
X519298Y63078D01*
X519376Y63013D01*
X519452Y62946D01*
X519525Y62876D01*
X519595Y62803D01*
X519662Y62727D01*
X519727Y62649D01*
X519789Y62569D01*
X519847Y62486D01*
X519903Y62401D01*
X519955Y62315D01*
X520004Y62226D01*
X520050Y62135D01*
X520092Y62043D01*
X520131Y61950D01*
X520166Y61855D01*
X520198Y61758D01*
X520226Y61661D01*
X520250Y61563D01*
X520271Y61464D01*
X520288Y61364D01*
X520301Y61263D01*
X520310Y61162D01*
X520316Y61061D01*
X520318Y60960D01*
X520318Y52832D01*
X514900Y52832D02*
X514900Y63669D01*
X528034Y63669D02*
X528034Y47413D01*
X528034Y63669D02*
X532549Y63669D01*
X532653Y63667D01*
X532756Y63661D01*
X532860Y63651D01*
X532963Y63637D01*
X533065Y63619D01*
X533166Y63598D01*
X533267Y63572D01*
X533366Y63543D01*
X533465Y63510D01*
X533562Y63473D01*
X533657Y63432D01*
X533751Y63388D01*
X533843Y63340D01*
X533933Y63289D01*
X534022Y63234D01*
X534108Y63176D01*
X534191Y63114D01*
X534273Y63050D01*
X534351Y62982D01*
X534427Y62912D01*
X534501Y62839D01*
X534571Y62762D01*
X534639Y62684D01*
X534703Y62602D01*
X534765Y62519D01*
X534823Y62433D01*
X534878Y62344D01*
X534929Y62254D01*
X534977Y62162D01*
X535021Y62068D01*
X535062Y61973D01*
X535099Y61876D01*
X535132Y61777D01*
X535161Y61678D01*
X535187Y61577D01*
X535208Y61476D01*
X535226Y61374D01*
X535240Y61271D01*
X535250Y61167D01*
X535256Y61064D01*
X535258Y60960D01*
X535259Y60960D02*
X535259Y55541D01*
X535258Y55541D02*
X535256Y55440D01*
X535250Y55339D01*
X535241Y55238D01*
X535228Y55137D01*
X535211Y55037D01*
X535190Y54938D01*
X535166Y54840D01*
X535138Y54743D01*
X535106Y54646D01*
X535071Y54551D01*
X535032Y54458D01*
X534990Y54366D01*
X534944Y54275D01*
X534895Y54186D01*
X534843Y54100D01*
X534787Y54015D01*
X534729Y53932D01*
X534667Y53852D01*
X534602Y53774D01*
X534535Y53698D01*
X534465Y53625D01*
X534392Y53555D01*
X534316Y53488D01*
X534238Y53423D01*
X534158Y53361D01*
X534075Y53303D01*
X533990Y53247D01*
X533904Y53195D01*
X533815Y53146D01*
X533724Y53100D01*
X533632Y53058D01*
X533539Y53019D01*
X533444Y52984D01*
X533347Y52952D01*
X533250Y52924D01*
X533152Y52900D01*
X533053Y52879D01*
X532953Y52862D01*
X532852Y52849D01*
X532751Y52840D01*
X532650Y52834D01*
X532549Y52832D01*
X528034Y52832D01*
X419862Y42418D02*
X419862Y26162D01*
X419862Y42418D02*
X424378Y42418D01*
X424511Y42416D01*
X424643Y42410D01*
X424775Y42400D01*
X424907Y42387D01*
X425039Y42369D01*
X425169Y42348D01*
X425300Y42323D01*
X425429Y42294D01*
X425557Y42261D01*
X425685Y42225D01*
X425811Y42185D01*
X425936Y42141D01*
X426060Y42093D01*
X426182Y42042D01*
X426303Y41987D01*
X426422Y41929D01*
X426540Y41867D01*
X426655Y41802D01*
X426769Y41733D01*
X426880Y41662D01*
X426989Y41586D01*
X427096Y41508D01*
X427201Y41427D01*
X427303Y41342D01*
X427403Y41255D01*
X427500Y41165D01*
X427595Y41072D01*
X427686Y40976D01*
X427775Y40878D01*
X427861Y40777D01*
X427944Y40673D01*
X428024Y40567D01*
X428100Y40459D01*
X428174Y40349D01*
X428244Y40236D01*
X428311Y40122D01*
X428374Y40005D01*
X428434Y39887D01*
X428491Y39767D01*
X428544Y39645D01*
X428593Y39522D01*
X428639Y39398D01*
X428681Y39272D01*
X428719Y39145D01*
X428754Y39017D01*
X428785Y38888D01*
X428812Y38759D01*
X428835Y38628D01*
X428855Y38497D01*
X428870Y38365D01*
X428882Y38233D01*
X428890Y38101D01*
X428894Y37968D01*
X428894Y37836D01*
X428890Y37703D01*
X428882Y37571D01*
X428870Y37439D01*
X428855Y37307D01*
X428835Y37176D01*
X428812Y37045D01*
X428785Y36916D01*
X428754Y36787D01*
X428719Y36659D01*
X428681Y36532D01*
X428639Y36406D01*
X428593Y36282D01*
X428544Y36159D01*
X428491Y36037D01*
X428434Y35917D01*
X428374Y35799D01*
X428311Y35682D01*
X428244Y35568D01*
X428174Y35455D01*
X428100Y35345D01*
X428024Y35237D01*
X427944Y35131D01*
X427861Y35027D01*
X427775Y34926D01*
X427686Y34828D01*
X427595Y34732D01*
X427500Y34639D01*
X427403Y34549D01*
X427303Y34462D01*
X427201Y34377D01*
X427096Y34296D01*
X426989Y34218D01*
X426880Y34142D01*
X426769Y34071D01*
X426655Y34002D01*
X426540Y33937D01*
X426422Y33875D01*
X426303Y33817D01*
X426182Y33762D01*
X426060Y33711D01*
X425936Y33663D01*
X425811Y33619D01*
X425685Y33579D01*
X425557Y33543D01*
X425429Y33510D01*
X425300Y33481D01*
X425169Y33456D01*
X425039Y33435D01*
X424907Y33417D01*
X424775Y33404D01*
X424643Y33394D01*
X424511Y33388D01*
X424378Y33386D01*
X424378Y33387D02*
X419862Y33387D01*
X425281Y33387D02*
X428893Y26162D01*
X437972Y26162D02*
X442488Y26162D01*
X437972Y26162D02*
X437871Y26164D01*
X437770Y26170D01*
X437669Y26179D01*
X437568Y26192D01*
X437468Y26209D01*
X437369Y26230D01*
X437271Y26254D01*
X437174Y26282D01*
X437077Y26314D01*
X436982Y26349D01*
X436889Y26388D01*
X436797Y26430D01*
X436706Y26476D01*
X436618Y26525D01*
X436531Y26577D01*
X436446Y26633D01*
X436363Y26691D01*
X436283Y26753D01*
X436205Y26818D01*
X436129Y26885D01*
X436056Y26955D01*
X435986Y27028D01*
X435919Y27104D01*
X435854Y27182D01*
X435792Y27262D01*
X435734Y27345D01*
X435678Y27430D01*
X435626Y27516D01*
X435577Y27605D01*
X435531Y27696D01*
X435489Y27788D01*
X435450Y27881D01*
X435415Y27976D01*
X435383Y28073D01*
X435355Y28170D01*
X435331Y28268D01*
X435310Y28367D01*
X435293Y28467D01*
X435280Y28568D01*
X435271Y28669D01*
X435265Y28770D01*
X435263Y28871D01*
X435263Y33387D01*
X435265Y33506D01*
X435271Y33626D01*
X435281Y33745D01*
X435295Y33863D01*
X435312Y33982D01*
X435334Y34099D01*
X435359Y34216D01*
X435389Y34331D01*
X435422Y34446D01*
X435459Y34560D01*
X435499Y34672D01*
X435544Y34783D01*
X435592Y34892D01*
X435643Y35000D01*
X435698Y35106D01*
X435757Y35210D01*
X435819Y35312D01*
X435884Y35412D01*
X435953Y35510D01*
X436025Y35606D01*
X436100Y35699D01*
X436177Y35789D01*
X436258Y35877D01*
X436342Y35962D01*
X436429Y36044D01*
X436518Y36124D01*
X436610Y36200D01*
X436704Y36274D01*
X436801Y36344D01*
X436899Y36411D01*
X437000Y36475D01*
X437104Y36535D01*
X437209Y36592D01*
X437316Y36645D01*
X437424Y36695D01*
X437534Y36741D01*
X437646Y36783D01*
X437759Y36822D01*
X437873Y36857D01*
X437988Y36888D01*
X438105Y36916D01*
X438222Y36939D01*
X438339Y36959D01*
X438458Y36975D01*
X438577Y36987D01*
X438696Y36995D01*
X438815Y36999D01*
X438935Y36999D01*
X439054Y36995D01*
X439173Y36987D01*
X439292Y36975D01*
X439411Y36959D01*
X439528Y36939D01*
X439645Y36916D01*
X439762Y36888D01*
X439877Y36857D01*
X439991Y36822D01*
X440104Y36783D01*
X440216Y36741D01*
X440326Y36695D01*
X440434Y36645D01*
X440541Y36592D01*
X440646Y36535D01*
X440750Y36475D01*
X440851Y36411D01*
X440949Y36344D01*
X441046Y36274D01*
X441140Y36200D01*
X441232Y36124D01*
X441321Y36044D01*
X441408Y35962D01*
X441492Y35877D01*
X441573Y35789D01*
X441650Y35699D01*
X441725Y35606D01*
X441797Y35510D01*
X441866Y35412D01*
X441931Y35312D01*
X441993Y35210D01*
X442052Y35106D01*
X442107Y35000D01*
X442158Y34892D01*
X442206Y34783D01*
X442251Y34672D01*
X442291Y34560D01*
X442328Y34446D01*
X442361Y34331D01*
X442391Y34216D01*
X442416Y34099D01*
X442438Y33982D01*
X442455Y33863D01*
X442469Y33745D01*
X442479Y33626D01*
X442485Y33506D01*
X442487Y33387D01*
X442488Y33387D02*
X442488Y31581D01*
X435263Y31581D01*
X448289Y36999D02*
X451901Y26162D01*
X455514Y36999D01*
X468887Y26162D02*
X474306Y42418D01*
X479725Y26162D01*
X478370Y30226D02*
X470242Y30226D01*
X125730Y177800D02*
X123190Y177800D01*
X123190Y189230D01*
X116840Y189230D01*
X116840Y166370D01*
X123190Y166370D01*
X123190Y177800D01*
X107950Y177800D02*
X102870Y177800D01*
X147320Y165100D02*
X147320Y157480D01*
X151130Y161290D02*
X143510Y161290D01*
X69850Y177800D02*
X69863Y178891D01*
X69904Y179981D01*
X69970Y181070D01*
X70064Y182157D01*
X70184Y183241D01*
X70331Y184322D01*
X70504Y185399D01*
X70704Y186472D01*
X70930Y187539D01*
X71182Y188600D01*
X71460Y189655D01*
X71764Y190703D01*
X72093Y191743D01*
X72448Y192775D01*
X72828Y193797D01*
X73234Y194810D01*
X73663Y195813D01*
X74118Y196805D01*
X74596Y197785D01*
X75099Y198754D01*
X75625Y199709D01*
X76174Y200652D01*
X76746Y201581D01*
X77341Y202495D01*
X77958Y203395D01*
X78597Y204279D01*
X79258Y205147D01*
X79940Y205999D01*
X80642Y206834D01*
X81365Y207651D01*
X82107Y208450D01*
X82869Y209231D01*
X83650Y209993D01*
X84449Y210735D01*
X85266Y211458D01*
X86101Y212160D01*
X86953Y212842D01*
X87821Y213503D01*
X88705Y214142D01*
X89605Y214759D01*
X90519Y215354D01*
X91448Y215926D01*
X92391Y216475D01*
X93346Y217001D01*
X94315Y217504D01*
X95295Y217982D01*
X96287Y218437D01*
X97290Y218866D01*
X98303Y219272D01*
X99325Y219652D01*
X100357Y220007D01*
X101397Y220336D01*
X102445Y220640D01*
X103500Y220918D01*
X104561Y221170D01*
X105628Y221396D01*
X106701Y221596D01*
X107778Y221769D01*
X108859Y221916D01*
X109943Y222036D01*
X111030Y222130D01*
X112119Y222196D01*
X113209Y222237D01*
X114300Y222250D01*
X115391Y222237D01*
X116481Y222196D01*
X117570Y222130D01*
X118657Y222036D01*
X119741Y221916D01*
X120822Y221769D01*
X121899Y221596D01*
X122972Y221396D01*
X124039Y221170D01*
X125100Y220918D01*
X126155Y220640D01*
X127203Y220336D01*
X128243Y220007D01*
X129275Y219652D01*
X130297Y219272D01*
X131310Y218866D01*
X132313Y218437D01*
X133305Y217982D01*
X134285Y217504D01*
X135254Y217001D01*
X136209Y216475D01*
X137152Y215926D01*
X138081Y215354D01*
X138995Y214759D01*
X139895Y214142D01*
X140779Y213503D01*
X141647Y212842D01*
X142499Y212160D01*
X143334Y211458D01*
X144151Y210735D01*
X144950Y209993D01*
X145731Y209231D01*
X146493Y208450D01*
X147235Y207651D01*
X147958Y206834D01*
X148660Y205999D01*
X149342Y205147D01*
X150003Y204279D01*
X150642Y203395D01*
X151259Y202495D01*
X151854Y201581D01*
X152426Y200652D01*
X152975Y199709D01*
X153501Y198754D01*
X154004Y197785D01*
X154482Y196805D01*
X154937Y195813D01*
X155366Y194810D01*
X155772Y193797D01*
X156152Y192775D01*
X156507Y191743D01*
X156836Y190703D01*
X157140Y189655D01*
X157418Y188600D01*
X157670Y187539D01*
X157896Y186472D01*
X158096Y185399D01*
X158269Y184322D01*
X158416Y183241D01*
X158536Y182157D01*
X158630Y181070D01*
X158696Y179981D01*
X158737Y178891D01*
X158750Y177800D01*
X158737Y176709D01*
X158696Y175619D01*
X158630Y174530D01*
X158536Y173443D01*
X158416Y172359D01*
X158269Y171278D01*
X158096Y170201D01*
X157896Y169128D01*
X157670Y168061D01*
X157418Y167000D01*
X157140Y165945D01*
X156836Y164897D01*
X156507Y163857D01*
X156152Y162825D01*
X155772Y161803D01*
X155366Y160790D01*
X154937Y159787D01*
X154482Y158795D01*
X154004Y157815D01*
X153501Y156846D01*
X152975Y155891D01*
X152426Y154948D01*
X151854Y154019D01*
X151259Y153105D01*
X150642Y152205D01*
X150003Y151321D01*
X149342Y150453D01*
X148660Y149601D01*
X147958Y148766D01*
X147235Y147949D01*
X146493Y147150D01*
X145731Y146369D01*
X144950Y145607D01*
X144151Y144865D01*
X143334Y144142D01*
X142499Y143440D01*
X141647Y142758D01*
X140779Y142097D01*
X139895Y141458D01*
X138995Y140841D01*
X138081Y140246D01*
X137152Y139674D01*
X136209Y139125D01*
X135254Y138599D01*
X134285Y138096D01*
X133305Y137618D01*
X132313Y137163D01*
X131310Y136734D01*
X130297Y136328D01*
X129275Y135948D01*
X128243Y135593D01*
X127203Y135264D01*
X126155Y134960D01*
X125100Y134682D01*
X124039Y134430D01*
X122972Y134204D01*
X121899Y134004D01*
X120822Y133831D01*
X119741Y133684D01*
X118657Y133564D01*
X117570Y133470D01*
X116481Y133404D01*
X115391Y133363D01*
X114300Y133350D01*
X113209Y133363D01*
X112119Y133404D01*
X111030Y133470D01*
X109943Y133564D01*
X108859Y133684D01*
X107778Y133831D01*
X106701Y134004D01*
X105628Y134204D01*
X104561Y134430D01*
X103500Y134682D01*
X102445Y134960D01*
X101397Y135264D01*
X100357Y135593D01*
X99325Y135948D01*
X98303Y136328D01*
X97290Y136734D01*
X96287Y137163D01*
X95295Y137618D01*
X94315Y138096D01*
X93346Y138599D01*
X92391Y139125D01*
X91448Y139674D01*
X90519Y140246D01*
X89605Y140841D01*
X88705Y141458D01*
X87821Y142097D01*
X86953Y142758D01*
X86101Y143440D01*
X85266Y144142D01*
X84449Y144865D01*
X83650Y145607D01*
X82869Y146369D01*
X82107Y147150D01*
X81365Y147949D01*
X80642Y148766D01*
X79940Y149601D01*
X79258Y150453D01*
X78597Y151321D01*
X77958Y152205D01*
X77341Y153105D01*
X76746Y154019D01*
X76174Y154948D01*
X75625Y155891D01*
X75099Y156846D01*
X74596Y157815D01*
X74118Y158795D01*
X73663Y159787D01*
X73234Y160790D01*
X72828Y161803D01*
X72448Y162825D01*
X72093Y163857D01*
X71764Y164897D01*
X71460Y165945D01*
X71182Y167000D01*
X70930Y168061D01*
X70704Y169128D01*
X70504Y170201D01*
X70331Y171278D01*
X70184Y172359D01*
X70064Y173443D01*
X69970Y174530D01*
X69904Y175619D01*
X69863Y176709D01*
X69850Y177800D01*
D11*
X108585Y177800D03*
D12*
X109691Y142875D02*
X112231Y142875D01*
X109691Y142875D02*
X109591Y142877D01*
X109492Y142883D01*
X109392Y142893D01*
X109294Y142906D01*
X109195Y142924D01*
X109098Y142945D01*
X109002Y142970D01*
X108906Y142999D01*
X108812Y143032D01*
X108719Y143068D01*
X108628Y143108D01*
X108538Y143152D01*
X108450Y143199D01*
X108364Y143249D01*
X108280Y143303D01*
X108198Y143360D01*
X108119Y143420D01*
X108041Y143484D01*
X107967Y143550D01*
X107895Y143619D01*
X107826Y143691D01*
X107760Y143765D01*
X107696Y143843D01*
X107636Y143922D01*
X107579Y144004D01*
X107525Y144088D01*
X107475Y144174D01*
X107428Y144262D01*
X107384Y144352D01*
X107344Y144443D01*
X107308Y144536D01*
X107275Y144630D01*
X107246Y144726D01*
X107221Y144822D01*
X107200Y144919D01*
X107182Y145018D01*
X107169Y145116D01*
X107159Y145216D01*
X107153Y145315D01*
X107151Y145415D01*
X107151Y151765D01*
X107153Y151865D01*
X107159Y151964D01*
X107169Y152064D01*
X107182Y152162D01*
X107200Y152261D01*
X107221Y152358D01*
X107246Y152454D01*
X107275Y152550D01*
X107308Y152644D01*
X107344Y152737D01*
X107384Y152828D01*
X107428Y152918D01*
X107475Y153006D01*
X107525Y153092D01*
X107579Y153176D01*
X107636Y153258D01*
X107696Y153337D01*
X107760Y153415D01*
X107826Y153489D01*
X107895Y153561D01*
X107967Y153630D01*
X108041Y153696D01*
X108119Y153760D01*
X108198Y153820D01*
X108280Y153877D01*
X108364Y153931D01*
X108450Y153981D01*
X108538Y154028D01*
X108628Y154072D01*
X108719Y154112D01*
X108812Y154148D01*
X108906Y154181D01*
X109002Y154210D01*
X109098Y154235D01*
X109195Y154256D01*
X109294Y154274D01*
X109392Y154287D01*
X109492Y154297D01*
X109591Y154303D01*
X109691Y154305D01*
X112231Y154305D01*
X116713Y151765D02*
X119888Y154305D01*
X119888Y142875D01*
X116713Y142875D02*
X123063Y142875D01*
D10*
X495300Y262890D02*
X495300Y265430D01*
X495300Y262890D02*
X483870Y262890D01*
X483870Y256540D01*
X506730Y256540D01*
X506730Y262890D01*
X495300Y262890D01*
X495300Y247650D02*
X495300Y242570D01*
X504190Y292100D02*
X511810Y292100D01*
X508000Y288290D02*
X508000Y295910D01*
X444500Y254000D02*
X444515Y255247D01*
X444561Y256493D01*
X444638Y257737D01*
X444745Y258979D01*
X444882Y260218D01*
X445050Y261454D01*
X445248Y262685D01*
X445476Y263911D01*
X445734Y265130D01*
X446022Y266343D01*
X446340Y267549D01*
X446687Y268746D01*
X447064Y269935D01*
X447470Y271114D01*
X447904Y272283D01*
X448367Y273440D01*
X448858Y274586D01*
X449377Y275720D01*
X449924Y276840D01*
X450498Y277947D01*
X451100Y279039D01*
X451727Y280116D01*
X452381Y281178D01*
X453061Y282223D01*
X453767Y283251D01*
X454497Y284262D01*
X455252Y285254D01*
X456031Y286227D01*
X456834Y287181D01*
X457660Y288115D01*
X458508Y289029D01*
X459379Y289921D01*
X460271Y290792D01*
X461185Y291640D01*
X462119Y292466D01*
X463073Y293269D01*
X464046Y294048D01*
X465038Y294803D01*
X466049Y295533D01*
X467077Y296239D01*
X468122Y296919D01*
X469184Y297573D01*
X470261Y298200D01*
X471353Y298802D01*
X472460Y299376D01*
X473580Y299923D01*
X474714Y300442D01*
X475860Y300933D01*
X477017Y301396D01*
X478186Y301830D01*
X479365Y302236D01*
X480554Y302613D01*
X481751Y302960D01*
X482957Y303278D01*
X484170Y303566D01*
X485389Y303824D01*
X486615Y304052D01*
X487846Y304250D01*
X489082Y304418D01*
X490321Y304555D01*
X491563Y304662D01*
X492807Y304739D01*
X494053Y304785D01*
X495300Y304800D01*
X496547Y304785D01*
X497793Y304739D01*
X499037Y304662D01*
X500279Y304555D01*
X501518Y304418D01*
X502754Y304250D01*
X503985Y304052D01*
X505211Y303824D01*
X506430Y303566D01*
X507643Y303278D01*
X508849Y302960D01*
X510046Y302613D01*
X511235Y302236D01*
X512414Y301830D01*
X513583Y301396D01*
X514740Y300933D01*
X515886Y300442D01*
X517020Y299923D01*
X518140Y299376D01*
X519247Y298802D01*
X520339Y298200D01*
X521416Y297573D01*
X522478Y296919D01*
X523523Y296239D01*
X524551Y295533D01*
X525562Y294803D01*
X526554Y294048D01*
X527527Y293269D01*
X528481Y292466D01*
X529415Y291640D01*
X530329Y290792D01*
X531221Y289921D01*
X532092Y289029D01*
X532940Y288115D01*
X533766Y287181D01*
X534569Y286227D01*
X535348Y285254D01*
X536103Y284262D01*
X536833Y283251D01*
X537539Y282223D01*
X538219Y281178D01*
X538873Y280116D01*
X539500Y279039D01*
X540102Y277947D01*
X540676Y276840D01*
X541223Y275720D01*
X541742Y274586D01*
X542233Y273440D01*
X542696Y272283D01*
X543130Y271114D01*
X543536Y269935D01*
X543913Y268746D01*
X544260Y267549D01*
X544578Y266343D01*
X544866Y265130D01*
X545124Y263911D01*
X545352Y262685D01*
X545550Y261454D01*
X545718Y260218D01*
X545855Y258979D01*
X545962Y257737D01*
X546039Y256493D01*
X546085Y255247D01*
X546100Y254000D01*
X546085Y252753D01*
X546039Y251507D01*
X545962Y250263D01*
X545855Y249021D01*
X545718Y247782D01*
X545550Y246546D01*
X545352Y245315D01*
X545124Y244089D01*
X544866Y242870D01*
X544578Y241657D01*
X544260Y240451D01*
X543913Y239254D01*
X543536Y238065D01*
X543130Y236886D01*
X542696Y235717D01*
X542233Y234560D01*
X541742Y233414D01*
X541223Y232280D01*
X540676Y231160D01*
X540102Y230053D01*
X539500Y228961D01*
X538873Y227884D01*
X538219Y226822D01*
X537539Y225777D01*
X536833Y224749D01*
X536103Y223738D01*
X535348Y222746D01*
X534569Y221773D01*
X533766Y220819D01*
X532940Y219885D01*
X532092Y218971D01*
X531221Y218079D01*
X530329Y217208D01*
X529415Y216360D01*
X528481Y215534D01*
X527527Y214731D01*
X526554Y213952D01*
X525562Y213197D01*
X524551Y212467D01*
X523523Y211761D01*
X522478Y211081D01*
X521416Y210427D01*
X520339Y209800D01*
X519247Y209198D01*
X518140Y208624D01*
X517020Y208077D01*
X515886Y207558D01*
X514740Y207067D01*
X513583Y206604D01*
X512414Y206170D01*
X511235Y205764D01*
X510046Y205387D01*
X508849Y205040D01*
X507643Y204722D01*
X506430Y204434D01*
X505211Y204176D01*
X503985Y203948D01*
X502754Y203750D01*
X501518Y203582D01*
X500279Y203445D01*
X499037Y203338D01*
X497793Y203261D01*
X496547Y203215D01*
X495300Y203200D01*
X494053Y203215D01*
X492807Y203261D01*
X491563Y203338D01*
X490321Y203445D01*
X489082Y203582D01*
X487846Y203750D01*
X486615Y203948D01*
X485389Y204176D01*
X484170Y204434D01*
X482957Y204722D01*
X481751Y205040D01*
X480554Y205387D01*
X479365Y205764D01*
X478186Y206170D01*
X477017Y206604D01*
X475860Y207067D01*
X474714Y207558D01*
X473580Y208077D01*
X472460Y208624D01*
X471353Y209198D01*
X470261Y209800D01*
X469184Y210427D01*
X468122Y211081D01*
X467077Y211761D01*
X466049Y212467D01*
X465038Y213197D01*
X464046Y213952D01*
X463073Y214731D01*
X462119Y215534D01*
X461185Y216360D01*
X460271Y217208D01*
X459379Y218079D01*
X458508Y218971D01*
X457660Y219885D01*
X456834Y220819D01*
X456031Y221773D01*
X455252Y222746D01*
X454497Y223738D01*
X453767Y224749D01*
X453061Y225777D01*
X452381Y226822D01*
X451727Y227884D01*
X451100Y228961D01*
X450498Y230053D01*
X449924Y231160D01*
X449377Y232280D01*
X448858Y233414D01*
X448367Y234560D01*
X447904Y235717D01*
X447470Y236886D01*
X447064Y238065D01*
X446687Y239254D01*
X446340Y240451D01*
X446022Y241657D01*
X445734Y242870D01*
X445476Y244089D01*
X445248Y245315D01*
X445050Y246546D01*
X444882Y247782D01*
X444745Y249021D01*
X444638Y250263D01*
X444561Y251507D01*
X444515Y252753D01*
X444500Y254000D01*
D13*
X495300Y248285D03*
D12*
X534797Y246343D02*
X534797Y243803D01*
X534795Y243703D01*
X534789Y243604D01*
X534779Y243504D01*
X534766Y243406D01*
X534748Y243307D01*
X534727Y243210D01*
X534702Y243114D01*
X534673Y243018D01*
X534640Y242924D01*
X534604Y242831D01*
X534564Y242740D01*
X534520Y242650D01*
X534473Y242562D01*
X534423Y242476D01*
X534369Y242392D01*
X534312Y242310D01*
X534252Y242231D01*
X534188Y242153D01*
X534122Y242079D01*
X534053Y242007D01*
X533981Y241938D01*
X533907Y241872D01*
X533829Y241808D01*
X533750Y241748D01*
X533668Y241691D01*
X533584Y241637D01*
X533498Y241587D01*
X533410Y241540D01*
X533320Y241496D01*
X533229Y241456D01*
X533136Y241420D01*
X533042Y241387D01*
X532946Y241358D01*
X532850Y241333D01*
X532753Y241312D01*
X532654Y241294D01*
X532556Y241281D01*
X532456Y241271D01*
X532357Y241265D01*
X532257Y241263D01*
X525907Y241263D01*
X525807Y241265D01*
X525708Y241271D01*
X525608Y241281D01*
X525510Y241294D01*
X525411Y241312D01*
X525314Y241333D01*
X525218Y241358D01*
X525122Y241387D01*
X525028Y241420D01*
X524935Y241456D01*
X524844Y241496D01*
X524754Y241540D01*
X524666Y241587D01*
X524580Y241637D01*
X524496Y241691D01*
X524414Y241748D01*
X524335Y241808D01*
X524257Y241872D01*
X524183Y241938D01*
X524111Y242007D01*
X524042Y242079D01*
X523976Y242153D01*
X523912Y242231D01*
X523852Y242310D01*
X523795Y242392D01*
X523741Y242476D01*
X523691Y242562D01*
X523644Y242650D01*
X523600Y242740D01*
X523560Y242831D01*
X523524Y242924D01*
X523491Y243018D01*
X523462Y243114D01*
X523437Y243210D01*
X523416Y243307D01*
X523398Y243406D01*
X523385Y243504D01*
X523375Y243604D01*
X523369Y243703D01*
X523367Y243803D01*
X523367Y246343D01*
X523367Y254318D02*
X523369Y254422D01*
X523375Y254527D01*
X523384Y254631D01*
X523397Y254734D01*
X523415Y254837D01*
X523435Y254939D01*
X523460Y255041D01*
X523488Y255141D01*
X523520Y255241D01*
X523556Y255339D01*
X523595Y255436D01*
X523637Y255531D01*
X523683Y255625D01*
X523733Y255717D01*
X523785Y255807D01*
X523841Y255895D01*
X523901Y255981D01*
X523963Y256065D01*
X524028Y256146D01*
X524096Y256225D01*
X524168Y256302D01*
X524241Y256375D01*
X524318Y256447D01*
X524397Y256515D01*
X524478Y256580D01*
X524562Y256642D01*
X524648Y256702D01*
X524736Y256758D01*
X524826Y256810D01*
X524918Y256860D01*
X525012Y256906D01*
X525107Y256948D01*
X525204Y256987D01*
X525302Y257023D01*
X525402Y257055D01*
X525502Y257083D01*
X525604Y257108D01*
X525706Y257128D01*
X525809Y257146D01*
X525912Y257159D01*
X526016Y257168D01*
X526121Y257174D01*
X526225Y257176D01*
X523367Y254318D02*
X523369Y254200D01*
X523375Y254081D01*
X523384Y253963D01*
X523397Y253846D01*
X523415Y253729D01*
X523435Y253612D01*
X523460Y253496D01*
X523488Y253381D01*
X523521Y253268D01*
X523556Y253155D01*
X523596Y253043D01*
X523638Y252933D01*
X523685Y252824D01*
X523735Y252716D01*
X523788Y252611D01*
X523845Y252507D01*
X523905Y252405D01*
X523968Y252305D01*
X524035Y252207D01*
X524104Y252111D01*
X524177Y252018D01*
X524253Y251927D01*
X524331Y251838D01*
X524413Y251752D01*
X524497Y251669D01*
X524583Y251588D01*
X524673Y251511D01*
X524764Y251436D01*
X524858Y251364D01*
X524955Y251295D01*
X525053Y251230D01*
X525154Y251167D01*
X525257Y251108D01*
X525361Y251052D01*
X525467Y251000D01*
X525575Y250951D01*
X525684Y250906D01*
X525795Y250864D01*
X525907Y250826D01*
X528447Y256223D02*
X528372Y256299D01*
X528293Y256374D01*
X528212Y256445D01*
X528128Y256514D01*
X528042Y256579D01*
X527954Y256641D01*
X527864Y256701D01*
X527772Y256757D01*
X527677Y256810D01*
X527581Y256859D01*
X527483Y256905D01*
X527384Y256948D01*
X527283Y256987D01*
X527181Y257022D01*
X527078Y257054D01*
X526974Y257082D01*
X526869Y257107D01*
X526762Y257128D01*
X526656Y257145D01*
X526549Y257158D01*
X526441Y257167D01*
X526333Y257173D01*
X526225Y257175D01*
X528447Y256223D02*
X534797Y250825D01*
X534797Y257175D01*
D10*
X96520Y279400D02*
X55880Y279400D01*
X55880Y254000D01*
X96520Y254000D01*
X96520Y279400D01*
X82550Y266700D02*
X76200Y266700D01*
X66040Y260350D02*
X66040Y273050D01*
X76200Y266700D01*
X60960Y266700D01*
X66040Y260350D02*
X76200Y266700D01*
X76200Y260350D01*
X76200Y266700D02*
X76200Y273050D01*
D14*
X90170Y266700D03*
D15*
X46355Y266700D03*
X106045Y266700D03*
D12*
X65024Y249555D02*
X65024Y238125D01*
X65024Y249555D02*
X68199Y249555D01*
X68310Y249553D01*
X68420Y249547D01*
X68531Y249538D01*
X68641Y249524D01*
X68750Y249507D01*
X68859Y249486D01*
X68967Y249461D01*
X69074Y249432D01*
X69180Y249400D01*
X69285Y249364D01*
X69388Y249324D01*
X69490Y249281D01*
X69591Y249234D01*
X69690Y249183D01*
X69787Y249130D01*
X69881Y249073D01*
X69974Y249012D01*
X70065Y248949D01*
X70154Y248882D01*
X70240Y248812D01*
X70323Y248739D01*
X70405Y248664D01*
X70483Y248586D01*
X70558Y248504D01*
X70631Y248421D01*
X70701Y248335D01*
X70768Y248246D01*
X70831Y248155D01*
X70892Y248062D01*
X70949Y247968D01*
X71002Y247871D01*
X71053Y247772D01*
X71100Y247671D01*
X71143Y247569D01*
X71183Y247466D01*
X71219Y247361D01*
X71251Y247255D01*
X71280Y247148D01*
X71305Y247040D01*
X71326Y246931D01*
X71343Y246822D01*
X71357Y246712D01*
X71366Y246601D01*
X71372Y246491D01*
X71374Y246380D01*
X71374Y241300D01*
X71372Y241189D01*
X71366Y241079D01*
X71357Y240968D01*
X71343Y240858D01*
X71326Y240749D01*
X71305Y240640D01*
X71280Y240532D01*
X71251Y240425D01*
X71219Y240319D01*
X71183Y240214D01*
X71143Y240111D01*
X71100Y240009D01*
X71053Y239908D01*
X71002Y239809D01*
X70949Y239712D01*
X70892Y239618D01*
X70831Y239525D01*
X70768Y239434D01*
X70701Y239345D01*
X70631Y239259D01*
X70558Y239176D01*
X70483Y239094D01*
X70405Y239016D01*
X70323Y238941D01*
X70240Y238868D01*
X70154Y238798D01*
X70065Y238731D01*
X69974Y238668D01*
X69881Y238607D01*
X69786Y238550D01*
X69690Y238497D01*
X69591Y238446D01*
X69490Y238399D01*
X69388Y238356D01*
X69285Y238316D01*
X69180Y238280D01*
X69074Y238248D01*
X68967Y238219D01*
X68859Y238194D01*
X68750Y238173D01*
X68641Y238156D01*
X68531Y238142D01*
X68420Y238133D01*
X68310Y238127D01*
X68199Y238125D01*
X65024Y238125D01*
X76835Y247015D02*
X80010Y249555D01*
X80010Y238125D01*
X76835Y238125D02*
X83185Y238125D01*
D10*
X215900Y236220D02*
X215900Y195580D01*
X215900Y236220D02*
X190500Y236220D01*
X190500Y195580D01*
X215900Y195580D01*
X203200Y209550D02*
X203200Y215900D01*
X196850Y226060D02*
X209550Y226060D01*
X203200Y215900D01*
X203200Y231140D01*
X196850Y226060D02*
X203200Y215900D01*
X196850Y215900D01*
X203200Y215900D02*
X209550Y215900D01*
D16*
X203200Y201930D03*
D17*
X203200Y245745D03*
X203200Y186055D03*
D12*
X186055Y208915D02*
X174625Y208915D01*
X174625Y212090D01*
X174627Y212201D01*
X174633Y212311D01*
X174642Y212422D01*
X174656Y212532D01*
X174673Y212641D01*
X174694Y212750D01*
X174719Y212858D01*
X174748Y212965D01*
X174780Y213071D01*
X174816Y213176D01*
X174856Y213279D01*
X174899Y213381D01*
X174946Y213482D01*
X174997Y213581D01*
X175050Y213678D01*
X175107Y213772D01*
X175168Y213865D01*
X175231Y213956D01*
X175298Y214045D01*
X175368Y214131D01*
X175441Y214214D01*
X175516Y214296D01*
X175594Y214374D01*
X175676Y214449D01*
X175759Y214522D01*
X175845Y214592D01*
X175934Y214659D01*
X176025Y214722D01*
X176118Y214783D01*
X176213Y214840D01*
X176309Y214893D01*
X176408Y214944D01*
X176509Y214991D01*
X176611Y215034D01*
X176714Y215074D01*
X176819Y215110D01*
X176925Y215142D01*
X177032Y215171D01*
X177140Y215196D01*
X177249Y215217D01*
X177358Y215234D01*
X177468Y215248D01*
X177579Y215257D01*
X177689Y215263D01*
X177800Y215265D01*
X182880Y215265D01*
X182991Y215263D01*
X183101Y215257D01*
X183212Y215248D01*
X183322Y215234D01*
X183431Y215217D01*
X183540Y215196D01*
X183648Y215171D01*
X183755Y215142D01*
X183861Y215110D01*
X183966Y215074D01*
X184069Y215034D01*
X184171Y214991D01*
X184272Y214944D01*
X184371Y214893D01*
X184468Y214840D01*
X184562Y214783D01*
X184655Y214722D01*
X184746Y214659D01*
X184835Y214592D01*
X184921Y214522D01*
X185004Y214449D01*
X185086Y214374D01*
X185164Y214296D01*
X185239Y214214D01*
X185312Y214131D01*
X185382Y214045D01*
X185449Y213956D01*
X185512Y213865D01*
X185573Y213772D01*
X185630Y213678D01*
X185683Y213581D01*
X185734Y213482D01*
X185781Y213381D01*
X185824Y213279D01*
X185864Y213176D01*
X185900Y213071D01*
X185932Y212965D01*
X185961Y212858D01*
X185986Y212750D01*
X186007Y212641D01*
X186024Y212532D01*
X186038Y212422D01*
X186047Y212311D01*
X186053Y212201D01*
X186055Y212090D01*
X186055Y208915D01*
X174625Y224219D02*
X174627Y224323D01*
X174633Y224428D01*
X174642Y224532D01*
X174655Y224635D01*
X174673Y224738D01*
X174693Y224840D01*
X174718Y224942D01*
X174746Y225042D01*
X174778Y225142D01*
X174814Y225240D01*
X174853Y225337D01*
X174895Y225432D01*
X174941Y225526D01*
X174991Y225618D01*
X175043Y225708D01*
X175099Y225796D01*
X175159Y225882D01*
X175221Y225966D01*
X175286Y226047D01*
X175354Y226126D01*
X175426Y226203D01*
X175499Y226276D01*
X175576Y226348D01*
X175655Y226416D01*
X175736Y226481D01*
X175820Y226543D01*
X175906Y226603D01*
X175994Y226659D01*
X176084Y226711D01*
X176176Y226761D01*
X176270Y226807D01*
X176365Y226849D01*
X176462Y226888D01*
X176560Y226924D01*
X176660Y226956D01*
X176760Y226984D01*
X176862Y227009D01*
X176964Y227029D01*
X177067Y227047D01*
X177170Y227060D01*
X177274Y227069D01*
X177379Y227075D01*
X177483Y227077D01*
X174625Y224219D02*
X174627Y224101D01*
X174633Y223982D01*
X174642Y223864D01*
X174655Y223747D01*
X174673Y223630D01*
X174693Y223513D01*
X174718Y223397D01*
X174746Y223282D01*
X174779Y223169D01*
X174814Y223056D01*
X174854Y222944D01*
X174896Y222834D01*
X174943Y222725D01*
X174993Y222617D01*
X175046Y222512D01*
X175103Y222408D01*
X175163Y222306D01*
X175226Y222206D01*
X175293Y222108D01*
X175362Y222012D01*
X175435Y221919D01*
X175511Y221828D01*
X175589Y221739D01*
X175671Y221653D01*
X175755Y221570D01*
X175841Y221489D01*
X175931Y221412D01*
X176022Y221337D01*
X176116Y221265D01*
X176213Y221196D01*
X176311Y221131D01*
X176412Y221068D01*
X176515Y221009D01*
X176619Y220953D01*
X176725Y220901D01*
X176833Y220852D01*
X176942Y220807D01*
X177053Y220765D01*
X177165Y220727D01*
X179705Y226124D02*
X179630Y226200D01*
X179551Y226275D01*
X179470Y226346D01*
X179386Y226415D01*
X179300Y226480D01*
X179212Y226542D01*
X179122Y226602D01*
X179030Y226658D01*
X178935Y226711D01*
X178839Y226760D01*
X178741Y226806D01*
X178642Y226849D01*
X178541Y226888D01*
X178439Y226923D01*
X178336Y226955D01*
X178232Y226983D01*
X178127Y227008D01*
X178020Y227029D01*
X177914Y227046D01*
X177807Y227059D01*
X177699Y227068D01*
X177591Y227074D01*
X177483Y227076D01*
X179705Y226124D02*
X186055Y220726D01*
X186055Y227076D01*
X300346Y245109D02*
X300733Y244605D01*
X301109Y244092D01*
X301472Y243570D01*
X301823Y243040D01*
X302160Y242502D01*
X302485Y241955D01*
X302797Y241401D01*
X303096Y240840D01*
X303381Y240271D01*
X303652Y239696D01*
X303910Y239115D01*
X304153Y238528D01*
X304383Y237935D01*
X304598Y237337D01*
X304799Y236734D01*
X304986Y236126D01*
X305158Y235514D01*
X305316Y234898D01*
X305458Y234278D01*
X305586Y233656D01*
X305699Y233030D01*
X305798Y232402D01*
X305881Y231772D01*
X305949Y231139D01*
X305949Y231140D02*
X306003Y230491D01*
X306041Y229842D01*
X306063Y229191D01*
X306070Y228540D01*
X306061Y227889D01*
X306035Y227239D01*
X305994Y226589D01*
X305937Y225941D01*
X305864Y225294D01*
X305776Y224649D01*
X305671Y224006D01*
X305551Y223366D01*
X305416Y222730D01*
X305265Y222096D01*
X305098Y221467D01*
X304917Y220842D01*
X304720Y220221D01*
X304508Y219606D01*
X304281Y218996D01*
X304039Y218391D01*
X303782Y217793D01*
X303511Y217201D01*
X303226Y216616D01*
X302926Y216038D01*
X302613Y215468D01*
X302285Y214905D01*
X301944Y214351D01*
X301590Y213805D01*
X301222Y213268D01*
X300841Y212739D01*
X300448Y212221D01*
X300042Y211712D01*
X299624Y211213D01*
X299193Y210725D01*
X298751Y210247D01*
X298297Y209780D01*
X297832Y209325D01*
X297356Y208881D01*
X296870Y208448D01*
X296373Y208028D01*
X295866Y207620D01*
X295349Y207224D01*
X294822Y206841D01*
X294286Y206471D01*
X293742Y206114D01*
X293189Y205771D01*
X292628Y205441D01*
X292058Y205125D01*
X291482Y204823D01*
X290898Y204536D01*
X290307Y204262D01*
X289710Y204003D01*
X289106Y203759D01*
X288497Y203529D01*
X287883Y203315D01*
X287263Y203115D01*
X271537Y203115D02*
X270922Y203314D01*
X270311Y203526D01*
X269706Y203754D01*
X269107Y203996D01*
X268514Y204253D01*
X267927Y204524D01*
X267347Y204809D01*
X266774Y205108D01*
X266208Y205421D01*
X265650Y205748D01*
X265100Y206088D01*
X264559Y206441D01*
X264026Y206807D01*
X263503Y207186D01*
X262988Y207578D01*
X262484Y207981D01*
X261989Y208398D01*
X261504Y208825D01*
X261030Y209265D01*
X260567Y209716D01*
X260115Y210178D01*
X259674Y210651D01*
X259245Y211134D01*
X258828Y211628D01*
X258422Y212131D01*
X258029Y212644D01*
X257649Y213167D01*
X257281Y213699D01*
X256927Y214239D01*
X256585Y214788D01*
X256257Y215345D01*
X255943Y215910D01*
X255642Y216482D01*
X255355Y217061D01*
X255083Y217648D01*
X254824Y218240D01*
X254581Y218839D01*
X254351Y219443D01*
X254137Y220053D01*
X253937Y220668D01*
X253752Y221287D01*
X253582Y221911D01*
X253428Y222539D01*
X253289Y223170D01*
X253165Y223804D01*
X253056Y224442D01*
X252963Y225081D01*
X252886Y225723D01*
X252824Y226366D01*
X252777Y227011D01*
X252747Y227657D01*
X252732Y228303D01*
X252732Y228949D01*
X252749Y229596D01*
X252781Y230241D01*
X252828Y230886D01*
X252891Y231529D01*
X252970Y232171D01*
X253064Y232810D01*
X253174Y233447D01*
X253299Y234082D01*
X253440Y234713D01*
X253596Y235340D01*
X253767Y235963D01*
X253953Y236582D01*
X254154Y237197D01*
X254369Y237806D01*
X254600Y238410D01*
X254845Y239008D01*
X255104Y239600D01*
X255378Y240186D01*
X255666Y240765D01*
X255968Y241336D01*
X256283Y241901D01*
X256612Y242457D01*
X256955Y243005D01*
X257311Y243545D01*
X257679Y244076D01*
X258061Y244598D01*
X258455Y245110D01*
X300345Y245110D01*
X301937Y231140D02*
X305949Y231140D01*
X282263Y231140D02*
X276537Y231140D01*
X256863Y231140D02*
X252851Y231140D01*
X255004Y251460D02*
X255004Y256540D01*
X255006Y256651D01*
X255012Y256761D01*
X255021Y256872D01*
X255035Y256982D01*
X255052Y257091D01*
X255073Y257200D01*
X255098Y257308D01*
X255127Y257415D01*
X255159Y257521D01*
X255195Y257626D01*
X255235Y257729D01*
X255278Y257831D01*
X255325Y257932D01*
X255376Y258031D01*
X255429Y258128D01*
X255486Y258222D01*
X255547Y258315D01*
X255610Y258406D01*
X255677Y258495D01*
X255747Y258581D01*
X255820Y258664D01*
X255895Y258746D01*
X255973Y258824D01*
X256055Y258899D01*
X256138Y258972D01*
X256224Y259042D01*
X256313Y259109D01*
X256404Y259172D01*
X256497Y259233D01*
X256592Y259290D01*
X256688Y259343D01*
X256787Y259394D01*
X256888Y259441D01*
X256990Y259484D01*
X257093Y259524D01*
X257198Y259560D01*
X257304Y259592D01*
X257411Y259621D01*
X257519Y259646D01*
X257628Y259667D01*
X257737Y259684D01*
X257847Y259698D01*
X257958Y259707D01*
X258068Y259713D01*
X258179Y259715D01*
X258290Y259713D01*
X258400Y259707D01*
X258511Y259698D01*
X258621Y259684D01*
X258730Y259667D01*
X258839Y259646D01*
X258947Y259621D01*
X259054Y259592D01*
X259160Y259560D01*
X259265Y259524D01*
X259368Y259484D01*
X259470Y259441D01*
X259571Y259394D01*
X259670Y259343D01*
X259767Y259290D01*
X259861Y259233D01*
X259954Y259172D01*
X260045Y259109D01*
X260134Y259042D01*
X260220Y258972D01*
X260303Y258899D01*
X260385Y258824D01*
X260463Y258746D01*
X260538Y258664D01*
X260611Y258581D01*
X260681Y258495D01*
X260748Y258406D01*
X260811Y258315D01*
X260872Y258222D01*
X260929Y258128D01*
X260982Y258031D01*
X261033Y257932D01*
X261080Y257831D01*
X261123Y257729D01*
X261163Y257626D01*
X261199Y257521D01*
X261231Y257415D01*
X261260Y257308D01*
X261285Y257200D01*
X261306Y257091D01*
X261323Y256982D01*
X261337Y256872D01*
X261346Y256761D01*
X261352Y256651D01*
X261354Y256540D01*
X261354Y251460D01*
X261352Y251349D01*
X261346Y251239D01*
X261337Y251128D01*
X261323Y251018D01*
X261306Y250909D01*
X261285Y250800D01*
X261260Y250692D01*
X261231Y250585D01*
X261199Y250479D01*
X261163Y250374D01*
X261123Y250271D01*
X261080Y250169D01*
X261033Y250068D01*
X260982Y249969D01*
X260929Y249872D01*
X260872Y249778D01*
X260811Y249685D01*
X260748Y249594D01*
X260681Y249505D01*
X260611Y249419D01*
X260538Y249336D01*
X260463Y249254D01*
X260385Y249176D01*
X260303Y249101D01*
X260220Y249028D01*
X260134Y248958D01*
X260045Y248891D01*
X259954Y248828D01*
X259861Y248767D01*
X259766Y248710D01*
X259670Y248657D01*
X259571Y248606D01*
X259470Y248559D01*
X259368Y248516D01*
X259265Y248476D01*
X259160Y248440D01*
X259054Y248408D01*
X258947Y248379D01*
X258839Y248354D01*
X258730Y248333D01*
X258621Y248316D01*
X258511Y248302D01*
X258400Y248293D01*
X258290Y248287D01*
X258179Y248285D01*
X258068Y248287D01*
X257958Y248293D01*
X257847Y248302D01*
X257737Y248316D01*
X257628Y248333D01*
X257519Y248354D01*
X257411Y248379D01*
X257304Y248408D01*
X257198Y248440D01*
X257093Y248476D01*
X256990Y248516D01*
X256888Y248559D01*
X256787Y248606D01*
X256688Y248657D01*
X256592Y248710D01*
X256497Y248767D01*
X256404Y248828D01*
X256313Y248891D01*
X256224Y248958D01*
X256138Y249028D01*
X256055Y249101D01*
X255973Y249176D01*
X255895Y249254D01*
X255820Y249336D01*
X255747Y249419D01*
X255677Y249505D01*
X255610Y249594D01*
X255547Y249685D01*
X255486Y249778D01*
X255429Y249873D01*
X255376Y249969D01*
X255325Y250068D01*
X255278Y250169D01*
X255235Y250271D01*
X255195Y250374D01*
X255159Y250479D01*
X255127Y250585D01*
X255098Y250692D01*
X255073Y250800D01*
X255052Y250909D01*
X255035Y251018D01*
X255021Y251128D01*
X255012Y251239D01*
X255006Y251349D01*
X255004Y251460D01*
X260084Y250825D02*
X262624Y248285D01*
X266065Y257175D02*
X269240Y259715D01*
X269240Y248285D01*
X266065Y248285D02*
X272415Y248285D01*
X181609Y360054D02*
X181105Y359667D01*
X180592Y359291D01*
X180070Y358928D01*
X179540Y358577D01*
X179002Y358240D01*
X178455Y357915D01*
X177901Y357603D01*
X177340Y357304D01*
X176771Y357019D01*
X176196Y356748D01*
X175615Y356490D01*
X175028Y356247D01*
X174435Y356017D01*
X173837Y355802D01*
X173234Y355601D01*
X172626Y355414D01*
X172014Y355242D01*
X171398Y355084D01*
X170778Y354942D01*
X170156Y354814D01*
X169530Y354701D01*
X168902Y354602D01*
X168272Y354519D01*
X167639Y354451D01*
X167640Y354451D02*
X166991Y354397D01*
X166342Y354359D01*
X165691Y354337D01*
X165040Y354330D01*
X164389Y354339D01*
X163739Y354365D01*
X163089Y354406D01*
X162441Y354463D01*
X161794Y354536D01*
X161149Y354624D01*
X160506Y354729D01*
X159866Y354849D01*
X159230Y354984D01*
X158596Y355135D01*
X157967Y355302D01*
X157342Y355483D01*
X156721Y355680D01*
X156106Y355892D01*
X155496Y356119D01*
X154891Y356361D01*
X154293Y356618D01*
X153701Y356889D01*
X153116Y357174D01*
X152538Y357474D01*
X151968Y357787D01*
X151405Y358115D01*
X150851Y358456D01*
X150305Y358810D01*
X149768Y359178D01*
X149239Y359559D01*
X148721Y359952D01*
X148212Y360358D01*
X147713Y360776D01*
X147225Y361207D01*
X146747Y361649D01*
X146280Y362103D01*
X145825Y362568D01*
X145381Y363044D01*
X144948Y363530D01*
X144528Y364027D01*
X144120Y364534D01*
X143724Y365051D01*
X143341Y365578D01*
X142971Y366114D01*
X142614Y366658D01*
X142271Y367211D01*
X141941Y367772D01*
X141625Y368342D01*
X141323Y368918D01*
X141036Y369502D01*
X140762Y370093D01*
X140503Y370690D01*
X140259Y371294D01*
X140029Y371903D01*
X139815Y372517D01*
X139615Y373137D01*
X139615Y388863D02*
X139814Y389478D01*
X140026Y390089D01*
X140254Y390694D01*
X140496Y391293D01*
X140753Y391886D01*
X141024Y392473D01*
X141309Y393053D01*
X141608Y393626D01*
X141921Y394192D01*
X142248Y394750D01*
X142588Y395300D01*
X142941Y395841D01*
X143307Y396374D01*
X143686Y396897D01*
X144078Y397412D01*
X144481Y397916D01*
X144898Y398411D01*
X145325Y398896D01*
X145765Y399370D01*
X146216Y399833D01*
X146678Y400285D01*
X147151Y400726D01*
X147634Y401155D01*
X148128Y401572D01*
X148631Y401978D01*
X149144Y402371D01*
X149667Y402751D01*
X150199Y403119D01*
X150739Y403473D01*
X151288Y403815D01*
X151845Y404143D01*
X152410Y404457D01*
X152982Y404758D01*
X153561Y405045D01*
X154148Y405317D01*
X154740Y405576D01*
X155339Y405819D01*
X155943Y406049D01*
X156553Y406263D01*
X157168Y406463D01*
X157787Y406648D01*
X158411Y406818D01*
X159039Y406972D01*
X159670Y407111D01*
X160304Y407235D01*
X160942Y407344D01*
X161581Y407437D01*
X162223Y407514D01*
X162866Y407576D01*
X163511Y407623D01*
X164157Y407653D01*
X164803Y407668D01*
X165449Y407668D01*
X166096Y407651D01*
X166741Y407619D01*
X167386Y407572D01*
X168029Y407509D01*
X168671Y407430D01*
X169310Y407336D01*
X169947Y407226D01*
X170582Y407101D01*
X171213Y406960D01*
X171840Y406804D01*
X172463Y406633D01*
X173082Y406447D01*
X173697Y406246D01*
X174306Y406031D01*
X174910Y405800D01*
X175508Y405555D01*
X176100Y405296D01*
X176686Y405022D01*
X177265Y404734D01*
X177836Y404432D01*
X178401Y404117D01*
X178957Y403788D01*
X179505Y403445D01*
X180045Y403089D01*
X180576Y402721D01*
X181098Y402339D01*
X181610Y401945D01*
X181610Y360055D01*
X167640Y358463D02*
X167640Y354451D01*
X167640Y378137D02*
X167640Y383863D01*
X167640Y403537D02*
X167640Y407549D01*
X191504Y370840D02*
X191504Y365760D01*
X191504Y370840D02*
X191506Y370951D01*
X191512Y371061D01*
X191521Y371172D01*
X191535Y371282D01*
X191552Y371391D01*
X191573Y371500D01*
X191598Y371608D01*
X191627Y371715D01*
X191659Y371821D01*
X191695Y371926D01*
X191735Y372029D01*
X191778Y372131D01*
X191825Y372232D01*
X191876Y372331D01*
X191929Y372428D01*
X191986Y372522D01*
X192047Y372615D01*
X192110Y372706D01*
X192177Y372795D01*
X192247Y372881D01*
X192320Y372964D01*
X192395Y373046D01*
X192473Y373124D01*
X192555Y373199D01*
X192638Y373272D01*
X192724Y373342D01*
X192813Y373409D01*
X192904Y373472D01*
X192997Y373533D01*
X193092Y373590D01*
X193188Y373643D01*
X193287Y373694D01*
X193388Y373741D01*
X193490Y373784D01*
X193593Y373824D01*
X193698Y373860D01*
X193804Y373892D01*
X193911Y373921D01*
X194019Y373946D01*
X194128Y373967D01*
X194237Y373984D01*
X194347Y373998D01*
X194458Y374007D01*
X194568Y374013D01*
X194679Y374015D01*
X194790Y374013D01*
X194900Y374007D01*
X195011Y373998D01*
X195121Y373984D01*
X195230Y373967D01*
X195339Y373946D01*
X195447Y373921D01*
X195554Y373892D01*
X195660Y373860D01*
X195765Y373824D01*
X195868Y373784D01*
X195970Y373741D01*
X196071Y373694D01*
X196170Y373643D01*
X196267Y373590D01*
X196361Y373533D01*
X196454Y373472D01*
X196545Y373409D01*
X196634Y373342D01*
X196720Y373272D01*
X196803Y373199D01*
X196885Y373124D01*
X196963Y373046D01*
X197038Y372964D01*
X197111Y372881D01*
X197181Y372795D01*
X197248Y372706D01*
X197311Y372615D01*
X197372Y372522D01*
X197429Y372428D01*
X197482Y372331D01*
X197533Y372232D01*
X197580Y372131D01*
X197623Y372029D01*
X197663Y371926D01*
X197699Y371821D01*
X197731Y371715D01*
X197760Y371608D01*
X197785Y371500D01*
X197806Y371391D01*
X197823Y371282D01*
X197837Y371172D01*
X197846Y371061D01*
X197852Y370951D01*
X197854Y370840D01*
X197854Y365760D01*
X197852Y365649D01*
X197846Y365539D01*
X197837Y365428D01*
X197823Y365318D01*
X197806Y365209D01*
X197785Y365100D01*
X197760Y364992D01*
X197731Y364885D01*
X197699Y364779D01*
X197663Y364674D01*
X197623Y364571D01*
X197580Y364469D01*
X197533Y364368D01*
X197482Y364269D01*
X197429Y364172D01*
X197372Y364078D01*
X197311Y363985D01*
X197248Y363894D01*
X197181Y363805D01*
X197111Y363719D01*
X197038Y363636D01*
X196963Y363554D01*
X196885Y363476D01*
X196803Y363401D01*
X196720Y363328D01*
X196634Y363258D01*
X196545Y363191D01*
X196454Y363128D01*
X196361Y363067D01*
X196266Y363010D01*
X196170Y362957D01*
X196071Y362906D01*
X195970Y362859D01*
X195868Y362816D01*
X195765Y362776D01*
X195660Y362740D01*
X195554Y362708D01*
X195447Y362679D01*
X195339Y362654D01*
X195230Y362633D01*
X195121Y362616D01*
X195011Y362602D01*
X194900Y362593D01*
X194790Y362587D01*
X194679Y362585D01*
X194568Y362587D01*
X194458Y362593D01*
X194347Y362602D01*
X194237Y362616D01*
X194128Y362633D01*
X194019Y362654D01*
X193911Y362679D01*
X193804Y362708D01*
X193698Y362740D01*
X193593Y362776D01*
X193490Y362816D01*
X193388Y362859D01*
X193287Y362906D01*
X193188Y362957D01*
X193092Y363010D01*
X192997Y363067D01*
X192904Y363128D01*
X192813Y363191D01*
X192724Y363258D01*
X192638Y363328D01*
X192555Y363401D01*
X192473Y363476D01*
X192395Y363554D01*
X192320Y363636D01*
X192247Y363719D01*
X192177Y363805D01*
X192110Y363894D01*
X192047Y363985D01*
X191986Y364078D01*
X191929Y364173D01*
X191876Y364269D01*
X191825Y364368D01*
X191778Y364469D01*
X191735Y364571D01*
X191695Y364674D01*
X191659Y364779D01*
X191627Y364885D01*
X191598Y364992D01*
X191573Y365100D01*
X191552Y365209D01*
X191535Y365318D01*
X191521Y365428D01*
X191512Y365539D01*
X191506Y365649D01*
X191504Y365760D01*
X196584Y365125D02*
X199124Y362585D01*
X208916Y371158D02*
X208914Y371262D01*
X208908Y371367D01*
X208899Y371471D01*
X208886Y371574D01*
X208868Y371677D01*
X208848Y371779D01*
X208823Y371881D01*
X208795Y371981D01*
X208763Y372081D01*
X208727Y372179D01*
X208688Y372276D01*
X208646Y372371D01*
X208600Y372465D01*
X208550Y372557D01*
X208498Y372647D01*
X208442Y372735D01*
X208382Y372821D01*
X208320Y372905D01*
X208255Y372986D01*
X208187Y373065D01*
X208115Y373142D01*
X208042Y373215D01*
X207965Y373287D01*
X207886Y373355D01*
X207805Y373420D01*
X207721Y373482D01*
X207635Y373542D01*
X207547Y373598D01*
X207457Y373650D01*
X207365Y373700D01*
X207271Y373746D01*
X207176Y373788D01*
X207079Y373827D01*
X206981Y373863D01*
X206881Y373895D01*
X206781Y373923D01*
X206679Y373948D01*
X206577Y373968D01*
X206474Y373986D01*
X206371Y373999D01*
X206267Y374008D01*
X206162Y374014D01*
X206058Y374016D01*
X206058Y374015D02*
X205940Y374013D01*
X205821Y374007D01*
X205703Y373998D01*
X205586Y373985D01*
X205469Y373967D01*
X205352Y373947D01*
X205236Y373922D01*
X205121Y373894D01*
X205008Y373861D01*
X204895Y373826D01*
X204783Y373786D01*
X204673Y373744D01*
X204564Y373697D01*
X204456Y373647D01*
X204351Y373594D01*
X204247Y373537D01*
X204145Y373477D01*
X204045Y373414D01*
X203947Y373347D01*
X203851Y373278D01*
X203758Y373205D01*
X203667Y373129D01*
X203578Y373051D01*
X203492Y372969D01*
X203409Y372885D01*
X203328Y372799D01*
X203251Y372709D01*
X203176Y372618D01*
X203104Y372524D01*
X203035Y372427D01*
X202970Y372329D01*
X202907Y372228D01*
X202848Y372125D01*
X202792Y372021D01*
X202740Y371915D01*
X202691Y371807D01*
X202646Y371698D01*
X202604Y371587D01*
X202566Y371475D01*
X207963Y368936D02*
X208039Y369011D01*
X208114Y369090D01*
X208185Y369171D01*
X208254Y369255D01*
X208319Y369341D01*
X208381Y369429D01*
X208441Y369519D01*
X208497Y369611D01*
X208550Y369706D01*
X208599Y369802D01*
X208645Y369900D01*
X208688Y369999D01*
X208727Y370100D01*
X208762Y370202D01*
X208794Y370305D01*
X208822Y370409D01*
X208847Y370514D01*
X208868Y370621D01*
X208885Y370727D01*
X208898Y370834D01*
X208907Y370942D01*
X208913Y371050D01*
X208915Y371158D01*
X207963Y368935D02*
X202565Y362585D01*
X208915Y362585D01*
D10*
X368215Y233437D02*
X368413Y232822D01*
X368626Y232211D01*
X368854Y231606D01*
X369096Y231007D01*
X369353Y230414D01*
X369624Y229827D01*
X369909Y229247D01*
X370208Y228674D01*
X370521Y228108D01*
X370848Y227550D01*
X371187Y227001D01*
X371541Y226459D01*
X371907Y225926D01*
X372286Y225403D01*
X372677Y224888D01*
X373081Y224384D01*
X373497Y223889D01*
X373925Y223405D01*
X374365Y222931D01*
X374816Y222467D01*
X375278Y222015D01*
X375750Y221574D01*
X376234Y221145D01*
X376727Y220728D01*
X377231Y220322D01*
X377744Y219929D01*
X378267Y219549D01*
X378798Y219181D01*
X379339Y218827D01*
X379888Y218485D01*
X380445Y218157D01*
X381010Y217843D01*
X381582Y217542D01*
X382161Y217255D01*
X382747Y216983D01*
X383340Y216725D01*
X383938Y216481D01*
X384543Y216251D01*
X385153Y216037D01*
X385767Y215837D01*
X386387Y215652D01*
X387011Y215483D01*
X387638Y215328D01*
X388269Y215189D01*
X388904Y215065D01*
X389541Y214956D01*
X390181Y214863D01*
X390823Y214786D01*
X391466Y214724D01*
X392111Y214677D01*
X392756Y214647D01*
X393403Y214632D01*
X394049Y214632D01*
X394695Y214649D01*
X395341Y214681D01*
X395986Y214728D01*
X396629Y214791D01*
X397270Y214870D01*
X397910Y214964D01*
X398547Y215074D01*
X399181Y215199D01*
X399812Y215340D01*
X400439Y215496D01*
X401063Y215666D01*
X401682Y215852D01*
X402296Y216053D01*
X402906Y216269D01*
X403510Y216500D01*
X404108Y216745D01*
X404700Y217004D01*
X405285Y217278D01*
X405864Y217566D01*
X406436Y217867D01*
X407000Y218183D01*
X407556Y218512D01*
X408105Y218855D01*
X408644Y219210D01*
X409175Y219579D01*
X409697Y219960D01*
X410210Y220354D01*
X410210Y262250D02*
X409698Y262644D01*
X409176Y263026D01*
X408645Y263394D01*
X408105Y263750D01*
X407557Y264093D01*
X407001Y264422D01*
X406436Y264737D01*
X405865Y265039D01*
X405286Y265327D01*
X404700Y265601D01*
X404108Y265860D01*
X403510Y266105D01*
X402906Y266336D01*
X402297Y266551D01*
X401682Y266752D01*
X401063Y266938D01*
X400440Y267109D01*
X399813Y267265D01*
X399182Y267406D01*
X398547Y267531D01*
X397910Y267641D01*
X397271Y267735D01*
X396629Y267814D01*
X395986Y267877D01*
X395341Y267924D01*
X394696Y267956D01*
X394049Y267973D01*
X393403Y267973D01*
X392757Y267958D01*
X392111Y267928D01*
X391466Y267881D01*
X390823Y267819D01*
X390181Y267742D01*
X389542Y267649D01*
X388904Y267540D01*
X388270Y267416D01*
X387639Y267277D01*
X387011Y267123D01*
X386387Y266953D01*
X385768Y266768D01*
X385153Y266568D01*
X384543Y266354D01*
X383939Y266124D01*
X383340Y265881D01*
X382748Y265622D01*
X382161Y265350D01*
X381582Y265063D01*
X381010Y264762D01*
X380445Y264448D01*
X379888Y264120D01*
X379339Y263778D01*
X378799Y263424D01*
X378267Y263056D01*
X377744Y262676D01*
X377231Y262283D01*
X376728Y261877D01*
X376234Y261460D01*
X375751Y261031D01*
X375278Y260590D01*
X374816Y260138D01*
X374365Y259675D01*
X373925Y259201D01*
X373498Y258716D01*
X373081Y258221D01*
X372678Y257717D01*
X372286Y257202D01*
X371907Y256679D01*
X371541Y256146D01*
X371188Y255605D01*
X370848Y255055D01*
X370521Y254497D01*
X370208Y253931D01*
X369909Y253358D01*
X369624Y252778D01*
X369353Y252191D01*
X369096Y251598D01*
X368854Y250999D01*
X368626Y250394D01*
X368414Y249783D01*
X368215Y249168D01*
X410210Y262250D02*
X410210Y220350D01*
X396240Y218760D02*
X396240Y214750D01*
X396240Y238440D02*
X396240Y244160D01*
X396240Y263840D02*
X396240Y267850D01*
D12*
X369304Y205740D02*
X369304Y200660D01*
X369304Y205740D02*
X369306Y205851D01*
X369312Y205961D01*
X369321Y206072D01*
X369335Y206182D01*
X369352Y206291D01*
X369373Y206400D01*
X369398Y206508D01*
X369427Y206615D01*
X369459Y206721D01*
X369495Y206826D01*
X369535Y206929D01*
X369578Y207031D01*
X369625Y207132D01*
X369676Y207231D01*
X369729Y207328D01*
X369786Y207422D01*
X369847Y207515D01*
X369910Y207606D01*
X369977Y207695D01*
X370047Y207781D01*
X370120Y207864D01*
X370195Y207946D01*
X370273Y208024D01*
X370355Y208099D01*
X370438Y208172D01*
X370524Y208242D01*
X370613Y208309D01*
X370704Y208372D01*
X370797Y208433D01*
X370892Y208490D01*
X370988Y208543D01*
X371087Y208594D01*
X371188Y208641D01*
X371290Y208684D01*
X371393Y208724D01*
X371498Y208760D01*
X371604Y208792D01*
X371711Y208821D01*
X371819Y208846D01*
X371928Y208867D01*
X372037Y208884D01*
X372147Y208898D01*
X372258Y208907D01*
X372368Y208913D01*
X372479Y208915D01*
X372590Y208913D01*
X372700Y208907D01*
X372811Y208898D01*
X372921Y208884D01*
X373030Y208867D01*
X373139Y208846D01*
X373247Y208821D01*
X373354Y208792D01*
X373460Y208760D01*
X373565Y208724D01*
X373668Y208684D01*
X373770Y208641D01*
X373871Y208594D01*
X373970Y208543D01*
X374067Y208490D01*
X374161Y208433D01*
X374254Y208372D01*
X374345Y208309D01*
X374434Y208242D01*
X374520Y208172D01*
X374603Y208099D01*
X374685Y208024D01*
X374763Y207946D01*
X374838Y207864D01*
X374911Y207781D01*
X374981Y207695D01*
X375048Y207606D01*
X375111Y207515D01*
X375172Y207422D01*
X375229Y207328D01*
X375282Y207231D01*
X375333Y207132D01*
X375380Y207031D01*
X375423Y206929D01*
X375463Y206826D01*
X375499Y206721D01*
X375531Y206615D01*
X375560Y206508D01*
X375585Y206400D01*
X375606Y206291D01*
X375623Y206182D01*
X375637Y206072D01*
X375646Y205961D01*
X375652Y205851D01*
X375654Y205740D01*
X375654Y200660D01*
X375652Y200549D01*
X375646Y200439D01*
X375637Y200328D01*
X375623Y200218D01*
X375606Y200109D01*
X375585Y200000D01*
X375560Y199892D01*
X375531Y199785D01*
X375499Y199679D01*
X375463Y199574D01*
X375423Y199471D01*
X375380Y199369D01*
X375333Y199268D01*
X375282Y199169D01*
X375229Y199072D01*
X375172Y198978D01*
X375111Y198885D01*
X375048Y198794D01*
X374981Y198705D01*
X374911Y198619D01*
X374838Y198536D01*
X374763Y198454D01*
X374685Y198376D01*
X374603Y198301D01*
X374520Y198228D01*
X374434Y198158D01*
X374345Y198091D01*
X374254Y198028D01*
X374161Y197967D01*
X374066Y197910D01*
X373970Y197857D01*
X373871Y197806D01*
X373770Y197759D01*
X373668Y197716D01*
X373565Y197676D01*
X373460Y197640D01*
X373354Y197608D01*
X373247Y197579D01*
X373139Y197554D01*
X373030Y197533D01*
X372921Y197516D01*
X372811Y197502D01*
X372700Y197493D01*
X372590Y197487D01*
X372479Y197485D01*
X372368Y197487D01*
X372258Y197493D01*
X372147Y197502D01*
X372037Y197516D01*
X371928Y197533D01*
X371819Y197554D01*
X371711Y197579D01*
X371604Y197608D01*
X371498Y197640D01*
X371393Y197676D01*
X371290Y197716D01*
X371188Y197759D01*
X371087Y197806D01*
X370988Y197857D01*
X370892Y197910D01*
X370797Y197967D01*
X370704Y198028D01*
X370613Y198091D01*
X370524Y198158D01*
X370438Y198228D01*
X370355Y198301D01*
X370273Y198376D01*
X370195Y198454D01*
X370120Y198536D01*
X370047Y198619D01*
X369977Y198705D01*
X369910Y198794D01*
X369847Y198885D01*
X369786Y198978D01*
X369729Y199073D01*
X369676Y199169D01*
X369625Y199268D01*
X369578Y199369D01*
X369535Y199471D01*
X369495Y199574D01*
X369459Y199679D01*
X369427Y199785D01*
X369398Y199892D01*
X369373Y200000D01*
X369352Y200109D01*
X369335Y200218D01*
X369321Y200328D01*
X369312Y200439D01*
X369306Y200549D01*
X369304Y200660D01*
X374384Y200025D02*
X376924Y197485D01*
X380365Y197485D02*
X383540Y197485D01*
X383651Y197487D01*
X383761Y197493D01*
X383872Y197502D01*
X383982Y197516D01*
X384091Y197533D01*
X384200Y197554D01*
X384308Y197579D01*
X384415Y197608D01*
X384521Y197640D01*
X384626Y197676D01*
X384729Y197716D01*
X384831Y197759D01*
X384932Y197806D01*
X385031Y197857D01*
X385128Y197910D01*
X385222Y197967D01*
X385315Y198028D01*
X385406Y198091D01*
X385495Y198158D01*
X385581Y198228D01*
X385664Y198301D01*
X385746Y198376D01*
X385824Y198454D01*
X385899Y198536D01*
X385972Y198619D01*
X386042Y198705D01*
X386109Y198794D01*
X386172Y198885D01*
X386233Y198978D01*
X386290Y199072D01*
X386343Y199169D01*
X386394Y199268D01*
X386441Y199369D01*
X386484Y199471D01*
X386524Y199574D01*
X386560Y199679D01*
X386592Y199785D01*
X386621Y199892D01*
X386646Y200000D01*
X386667Y200109D01*
X386684Y200218D01*
X386698Y200328D01*
X386707Y200439D01*
X386713Y200549D01*
X386715Y200660D01*
X386713Y200771D01*
X386707Y200881D01*
X386698Y200992D01*
X386684Y201102D01*
X386667Y201211D01*
X386646Y201320D01*
X386621Y201428D01*
X386592Y201535D01*
X386560Y201641D01*
X386524Y201746D01*
X386484Y201849D01*
X386441Y201951D01*
X386394Y202052D01*
X386343Y202151D01*
X386290Y202247D01*
X386233Y202342D01*
X386172Y202435D01*
X386109Y202526D01*
X386042Y202615D01*
X385972Y202701D01*
X385899Y202784D01*
X385824Y202866D01*
X385746Y202944D01*
X385664Y203019D01*
X385581Y203092D01*
X385495Y203162D01*
X385406Y203229D01*
X385315Y203292D01*
X385222Y203353D01*
X385128Y203410D01*
X385031Y203463D01*
X384932Y203514D01*
X384831Y203561D01*
X384729Y203604D01*
X384626Y203644D01*
X384521Y203680D01*
X384415Y203712D01*
X384308Y203741D01*
X384200Y203766D01*
X384091Y203787D01*
X383982Y203804D01*
X383872Y203818D01*
X383761Y203827D01*
X383651Y203833D01*
X383540Y203835D01*
X384175Y208915D02*
X380365Y208915D01*
X384175Y208915D02*
X384275Y208913D01*
X384374Y208907D01*
X384474Y208897D01*
X384572Y208884D01*
X384671Y208866D01*
X384768Y208845D01*
X384864Y208820D01*
X384960Y208791D01*
X385054Y208758D01*
X385147Y208722D01*
X385238Y208682D01*
X385328Y208638D01*
X385416Y208591D01*
X385502Y208541D01*
X385586Y208487D01*
X385668Y208430D01*
X385747Y208370D01*
X385825Y208306D01*
X385899Y208240D01*
X385971Y208171D01*
X386040Y208099D01*
X386106Y208025D01*
X386170Y207947D01*
X386230Y207868D01*
X386287Y207786D01*
X386341Y207702D01*
X386391Y207616D01*
X386438Y207528D01*
X386482Y207438D01*
X386522Y207347D01*
X386558Y207254D01*
X386591Y207160D01*
X386620Y207064D01*
X386645Y206968D01*
X386666Y206871D01*
X386684Y206772D01*
X386697Y206674D01*
X386707Y206574D01*
X386713Y206475D01*
X386715Y206375D01*
X386713Y206275D01*
X386707Y206176D01*
X386697Y206076D01*
X386684Y205978D01*
X386666Y205879D01*
X386645Y205782D01*
X386620Y205686D01*
X386591Y205590D01*
X386558Y205496D01*
X386522Y205403D01*
X386482Y205312D01*
X386438Y205222D01*
X386391Y205134D01*
X386341Y205048D01*
X386287Y204964D01*
X386230Y204882D01*
X386170Y204803D01*
X386106Y204725D01*
X386040Y204651D01*
X385971Y204579D01*
X385899Y204510D01*
X385825Y204444D01*
X385747Y204380D01*
X385668Y204320D01*
X385586Y204263D01*
X385502Y204209D01*
X385416Y204159D01*
X385328Y204112D01*
X385238Y204068D01*
X385147Y204028D01*
X385054Y203992D01*
X384960Y203959D01*
X384864Y203930D01*
X384768Y203905D01*
X384671Y203884D01*
X384572Y203866D01*
X384474Y203853D01*
X384374Y203843D01*
X384275Y203837D01*
X384175Y203835D01*
X381635Y203835D01*
D10*
X237490Y125730D02*
X237390Y125728D01*
X237291Y125722D01*
X237191Y125712D01*
X237093Y125699D01*
X236994Y125681D01*
X236897Y125660D01*
X236801Y125635D01*
X236705Y125606D01*
X236611Y125573D01*
X236518Y125537D01*
X236427Y125497D01*
X236337Y125453D01*
X236249Y125406D01*
X236163Y125356D01*
X236079Y125302D01*
X235997Y125245D01*
X235918Y125185D01*
X235840Y125121D01*
X235766Y125055D01*
X235694Y124986D01*
X235625Y124914D01*
X235559Y124840D01*
X235495Y124762D01*
X235435Y124683D01*
X235378Y124601D01*
X235324Y124517D01*
X235274Y124431D01*
X235227Y124343D01*
X235183Y124253D01*
X235143Y124162D01*
X235107Y124069D01*
X235074Y123975D01*
X235045Y123879D01*
X235020Y123783D01*
X234999Y123686D01*
X234981Y123587D01*
X234968Y123489D01*
X234958Y123389D01*
X234952Y123290D01*
X234950Y123190D01*
X234950Y105410D02*
X234952Y105310D01*
X234958Y105211D01*
X234968Y105111D01*
X234981Y105013D01*
X234999Y104914D01*
X235020Y104817D01*
X235045Y104721D01*
X235074Y104625D01*
X235107Y104531D01*
X235143Y104438D01*
X235183Y104347D01*
X235227Y104257D01*
X235274Y104169D01*
X235324Y104083D01*
X235378Y103999D01*
X235435Y103917D01*
X235495Y103838D01*
X235559Y103760D01*
X235625Y103686D01*
X235694Y103614D01*
X235766Y103545D01*
X235840Y103479D01*
X235918Y103415D01*
X235997Y103355D01*
X236079Y103298D01*
X236163Y103244D01*
X236249Y103194D01*
X236337Y103147D01*
X236427Y103103D01*
X236518Y103063D01*
X236611Y103027D01*
X236705Y102994D01*
X236801Y102965D01*
X236897Y102940D01*
X236994Y102919D01*
X237093Y102901D01*
X237191Y102888D01*
X237291Y102878D01*
X237390Y102872D01*
X237490Y102870D01*
X295910Y102870D02*
X296010Y102872D01*
X296109Y102878D01*
X296209Y102888D01*
X296307Y102901D01*
X296406Y102919D01*
X296503Y102940D01*
X296599Y102965D01*
X296695Y102994D01*
X296789Y103027D01*
X296882Y103063D01*
X296973Y103103D01*
X297063Y103147D01*
X297151Y103194D01*
X297237Y103244D01*
X297321Y103298D01*
X297403Y103355D01*
X297482Y103415D01*
X297560Y103479D01*
X297634Y103545D01*
X297706Y103614D01*
X297775Y103686D01*
X297841Y103760D01*
X297905Y103838D01*
X297965Y103917D01*
X298022Y103999D01*
X298076Y104083D01*
X298126Y104169D01*
X298173Y104257D01*
X298217Y104347D01*
X298257Y104438D01*
X298293Y104531D01*
X298326Y104625D01*
X298355Y104721D01*
X298380Y104817D01*
X298401Y104914D01*
X298419Y105013D01*
X298432Y105111D01*
X298442Y105211D01*
X298448Y105310D01*
X298450Y105410D01*
X298450Y123190D02*
X298448Y123290D01*
X298442Y123389D01*
X298432Y123489D01*
X298419Y123587D01*
X298401Y123686D01*
X298380Y123783D01*
X298355Y123879D01*
X298326Y123975D01*
X298293Y124069D01*
X298257Y124162D01*
X298217Y124253D01*
X298173Y124343D01*
X298126Y124431D01*
X298076Y124517D01*
X298022Y124601D01*
X297965Y124683D01*
X297905Y124762D01*
X297841Y124840D01*
X297775Y124914D01*
X297706Y124986D01*
X297634Y125055D01*
X297560Y125121D01*
X297482Y125185D01*
X297403Y125245D01*
X297321Y125302D01*
X297237Y125356D01*
X297151Y125406D01*
X297063Y125453D01*
X296973Y125497D01*
X296882Y125537D01*
X296789Y125573D01*
X296695Y125606D01*
X296599Y125635D01*
X296503Y125660D01*
X296406Y125681D01*
X296307Y125699D01*
X296209Y125712D01*
X296109Y125722D01*
X296010Y125728D01*
X295910Y125730D01*
X234950Y123190D02*
X234950Y105410D01*
X237490Y125730D02*
X241300Y125730D01*
X242570Y124460D01*
X241300Y102870D02*
X237490Y102870D01*
X241300Y102870D02*
X242570Y104140D01*
X290830Y124460D02*
X292100Y125730D01*
X290830Y124460D02*
X242570Y124460D01*
X290830Y104140D02*
X292100Y102870D01*
X290830Y104140D02*
X242570Y104140D01*
X292100Y125730D02*
X295910Y125730D01*
X295910Y102870D02*
X292100Y102870D01*
X298450Y105410D02*
X298450Y123190D01*
D18*
X302768Y114300D03*
X230632Y114300D03*
D12*
X258445Y102235D02*
X258445Y90805D01*
X258445Y102235D02*
X261620Y102235D01*
X261731Y102233D01*
X261841Y102227D01*
X261952Y102218D01*
X262062Y102204D01*
X262171Y102187D01*
X262280Y102166D01*
X262388Y102141D01*
X262495Y102112D01*
X262601Y102080D01*
X262706Y102044D01*
X262809Y102004D01*
X262911Y101961D01*
X263012Y101914D01*
X263111Y101863D01*
X263208Y101810D01*
X263302Y101753D01*
X263395Y101692D01*
X263486Y101629D01*
X263575Y101562D01*
X263661Y101492D01*
X263744Y101419D01*
X263826Y101344D01*
X263904Y101266D01*
X263979Y101184D01*
X264052Y101101D01*
X264122Y101015D01*
X264189Y100926D01*
X264252Y100835D01*
X264313Y100742D01*
X264370Y100647D01*
X264423Y100551D01*
X264474Y100452D01*
X264521Y100351D01*
X264564Y100249D01*
X264604Y100146D01*
X264640Y100041D01*
X264672Y99935D01*
X264701Y99828D01*
X264726Y99720D01*
X264747Y99611D01*
X264764Y99502D01*
X264778Y99392D01*
X264787Y99281D01*
X264793Y99171D01*
X264795Y99060D01*
X264793Y98949D01*
X264787Y98839D01*
X264778Y98728D01*
X264764Y98618D01*
X264747Y98509D01*
X264726Y98400D01*
X264701Y98292D01*
X264672Y98185D01*
X264640Y98079D01*
X264604Y97974D01*
X264564Y97871D01*
X264521Y97769D01*
X264474Y97668D01*
X264423Y97569D01*
X264370Y97472D01*
X264313Y97378D01*
X264252Y97285D01*
X264189Y97194D01*
X264122Y97105D01*
X264052Y97019D01*
X263979Y96936D01*
X263904Y96854D01*
X263826Y96776D01*
X263744Y96701D01*
X263661Y96628D01*
X263575Y96558D01*
X263486Y96491D01*
X263395Y96428D01*
X263302Y96367D01*
X263208Y96310D01*
X263111Y96257D01*
X263012Y96206D01*
X262911Y96159D01*
X262809Y96116D01*
X262706Y96076D01*
X262601Y96040D01*
X262495Y96008D01*
X262388Y95979D01*
X262280Y95954D01*
X262171Y95933D01*
X262062Y95916D01*
X261952Y95902D01*
X261841Y95893D01*
X261731Y95887D01*
X261620Y95885D01*
X258445Y95885D01*
X262255Y95885D02*
X264795Y90805D01*
X269792Y99695D02*
X272967Y102235D01*
X272967Y90805D01*
X269792Y90805D02*
X276142Y90805D01*
D10*
X44450Y326390D02*
X44452Y326490D01*
X44458Y326589D01*
X44468Y326689D01*
X44481Y326787D01*
X44499Y326886D01*
X44520Y326983D01*
X44545Y327079D01*
X44574Y327175D01*
X44607Y327269D01*
X44643Y327362D01*
X44683Y327453D01*
X44727Y327543D01*
X44774Y327631D01*
X44824Y327717D01*
X44878Y327801D01*
X44935Y327883D01*
X44995Y327962D01*
X45059Y328040D01*
X45125Y328114D01*
X45194Y328186D01*
X45266Y328255D01*
X45340Y328321D01*
X45418Y328385D01*
X45497Y328445D01*
X45579Y328502D01*
X45663Y328556D01*
X45749Y328606D01*
X45837Y328653D01*
X45927Y328697D01*
X46018Y328737D01*
X46111Y328773D01*
X46205Y328806D01*
X46301Y328835D01*
X46397Y328860D01*
X46494Y328881D01*
X46593Y328899D01*
X46691Y328912D01*
X46791Y328922D01*
X46890Y328928D01*
X46990Y328930D01*
X44450Y308610D02*
X44452Y308510D01*
X44458Y308411D01*
X44468Y308311D01*
X44481Y308213D01*
X44499Y308114D01*
X44520Y308017D01*
X44545Y307921D01*
X44574Y307825D01*
X44607Y307731D01*
X44643Y307638D01*
X44683Y307547D01*
X44727Y307457D01*
X44774Y307369D01*
X44824Y307283D01*
X44878Y307199D01*
X44935Y307117D01*
X44995Y307038D01*
X45059Y306960D01*
X45125Y306886D01*
X45194Y306814D01*
X45266Y306745D01*
X45340Y306679D01*
X45418Y306615D01*
X45497Y306555D01*
X45579Y306498D01*
X45663Y306444D01*
X45749Y306394D01*
X45837Y306347D01*
X45927Y306303D01*
X46018Y306263D01*
X46111Y306227D01*
X46205Y306194D01*
X46301Y306165D01*
X46397Y306140D01*
X46494Y306119D01*
X46593Y306101D01*
X46691Y306088D01*
X46791Y306078D01*
X46890Y306072D01*
X46990Y306070D01*
X105410Y306070D02*
X105510Y306072D01*
X105609Y306078D01*
X105709Y306088D01*
X105807Y306101D01*
X105906Y306119D01*
X106003Y306140D01*
X106099Y306165D01*
X106195Y306194D01*
X106289Y306227D01*
X106382Y306263D01*
X106473Y306303D01*
X106563Y306347D01*
X106651Y306394D01*
X106737Y306444D01*
X106821Y306498D01*
X106903Y306555D01*
X106982Y306615D01*
X107060Y306679D01*
X107134Y306745D01*
X107206Y306814D01*
X107275Y306886D01*
X107341Y306960D01*
X107405Y307038D01*
X107465Y307117D01*
X107522Y307199D01*
X107576Y307283D01*
X107626Y307369D01*
X107673Y307457D01*
X107717Y307547D01*
X107757Y307638D01*
X107793Y307731D01*
X107826Y307825D01*
X107855Y307921D01*
X107880Y308017D01*
X107901Y308114D01*
X107919Y308213D01*
X107932Y308311D01*
X107942Y308411D01*
X107948Y308510D01*
X107950Y308610D01*
X107950Y326390D02*
X107948Y326490D01*
X107942Y326589D01*
X107932Y326689D01*
X107919Y326787D01*
X107901Y326886D01*
X107880Y326983D01*
X107855Y327079D01*
X107826Y327175D01*
X107793Y327269D01*
X107757Y327362D01*
X107717Y327453D01*
X107673Y327543D01*
X107626Y327631D01*
X107576Y327717D01*
X107522Y327801D01*
X107465Y327883D01*
X107405Y327962D01*
X107341Y328040D01*
X107275Y328114D01*
X107206Y328186D01*
X107134Y328255D01*
X107060Y328321D01*
X106982Y328385D01*
X106903Y328445D01*
X106821Y328502D01*
X106737Y328556D01*
X106651Y328606D01*
X106563Y328653D01*
X106473Y328697D01*
X106382Y328737D01*
X106289Y328773D01*
X106195Y328806D01*
X106099Y328835D01*
X106003Y328860D01*
X105906Y328881D01*
X105807Y328899D01*
X105709Y328912D01*
X105609Y328922D01*
X105510Y328928D01*
X105410Y328930D01*
X44450Y326390D02*
X44450Y308610D01*
X46990Y328930D02*
X50800Y328930D01*
X52070Y327660D01*
X50800Y306070D02*
X46990Y306070D01*
X50800Y306070D02*
X52070Y307340D01*
X100330Y327660D02*
X101600Y328930D01*
X100330Y327660D02*
X52070Y327660D01*
X100330Y307340D02*
X101600Y306070D01*
X100330Y307340D02*
X52070Y307340D01*
X101600Y328930D02*
X105410Y328930D01*
X105410Y306070D02*
X101600Y306070D01*
X107950Y308610D02*
X107950Y326390D01*
D18*
X112268Y317500D03*
X40132Y317500D03*
D12*
X66675Y304165D02*
X66675Y292735D01*
X66675Y304165D02*
X69850Y304165D01*
X69961Y304163D01*
X70071Y304157D01*
X70182Y304148D01*
X70292Y304134D01*
X70401Y304117D01*
X70510Y304096D01*
X70618Y304071D01*
X70725Y304042D01*
X70831Y304010D01*
X70936Y303974D01*
X71039Y303934D01*
X71141Y303891D01*
X71242Y303844D01*
X71341Y303793D01*
X71438Y303740D01*
X71532Y303683D01*
X71625Y303622D01*
X71716Y303559D01*
X71805Y303492D01*
X71891Y303422D01*
X71974Y303349D01*
X72056Y303274D01*
X72134Y303196D01*
X72209Y303114D01*
X72282Y303031D01*
X72352Y302945D01*
X72419Y302856D01*
X72482Y302765D01*
X72543Y302672D01*
X72600Y302577D01*
X72653Y302481D01*
X72704Y302382D01*
X72751Y302281D01*
X72794Y302179D01*
X72834Y302076D01*
X72870Y301971D01*
X72902Y301865D01*
X72931Y301758D01*
X72956Y301650D01*
X72977Y301541D01*
X72994Y301432D01*
X73008Y301322D01*
X73017Y301211D01*
X73023Y301101D01*
X73025Y300990D01*
X73023Y300879D01*
X73017Y300769D01*
X73008Y300658D01*
X72994Y300548D01*
X72977Y300439D01*
X72956Y300330D01*
X72931Y300222D01*
X72902Y300115D01*
X72870Y300009D01*
X72834Y299904D01*
X72794Y299801D01*
X72751Y299699D01*
X72704Y299598D01*
X72653Y299499D01*
X72600Y299402D01*
X72543Y299308D01*
X72482Y299215D01*
X72419Y299124D01*
X72352Y299035D01*
X72282Y298949D01*
X72209Y298866D01*
X72134Y298784D01*
X72056Y298706D01*
X71974Y298631D01*
X71891Y298558D01*
X71805Y298488D01*
X71716Y298421D01*
X71625Y298358D01*
X71532Y298297D01*
X71437Y298240D01*
X71341Y298187D01*
X71242Y298136D01*
X71141Y298089D01*
X71039Y298046D01*
X70936Y298006D01*
X70831Y297970D01*
X70725Y297938D01*
X70618Y297909D01*
X70510Y297884D01*
X70401Y297863D01*
X70292Y297846D01*
X70182Y297832D01*
X70071Y297823D01*
X69961Y297817D01*
X69850Y297815D01*
X66675Y297815D01*
X70485Y297815D02*
X73025Y292735D01*
X78022Y292735D02*
X81197Y292735D01*
X81308Y292737D01*
X81418Y292743D01*
X81529Y292752D01*
X81639Y292766D01*
X81748Y292783D01*
X81857Y292804D01*
X81965Y292829D01*
X82072Y292858D01*
X82178Y292890D01*
X82283Y292926D01*
X82386Y292966D01*
X82488Y293009D01*
X82589Y293056D01*
X82688Y293107D01*
X82784Y293160D01*
X82879Y293217D01*
X82972Y293278D01*
X83063Y293341D01*
X83152Y293408D01*
X83238Y293478D01*
X83321Y293551D01*
X83403Y293626D01*
X83481Y293704D01*
X83556Y293786D01*
X83629Y293869D01*
X83699Y293955D01*
X83766Y294044D01*
X83829Y294135D01*
X83890Y294228D01*
X83947Y294322D01*
X84000Y294419D01*
X84051Y294518D01*
X84098Y294619D01*
X84141Y294721D01*
X84181Y294824D01*
X84217Y294929D01*
X84249Y295035D01*
X84278Y295142D01*
X84303Y295250D01*
X84324Y295359D01*
X84341Y295468D01*
X84355Y295578D01*
X84364Y295689D01*
X84370Y295799D01*
X84372Y295910D01*
X84370Y296021D01*
X84364Y296131D01*
X84355Y296242D01*
X84341Y296352D01*
X84324Y296461D01*
X84303Y296570D01*
X84278Y296678D01*
X84249Y296785D01*
X84217Y296891D01*
X84181Y296996D01*
X84141Y297099D01*
X84098Y297201D01*
X84051Y297302D01*
X84000Y297401D01*
X83947Y297497D01*
X83890Y297592D01*
X83829Y297685D01*
X83766Y297776D01*
X83699Y297865D01*
X83629Y297951D01*
X83556Y298034D01*
X83481Y298116D01*
X83403Y298194D01*
X83321Y298269D01*
X83238Y298342D01*
X83152Y298412D01*
X83063Y298479D01*
X82972Y298542D01*
X82879Y298603D01*
X82785Y298660D01*
X82688Y298713D01*
X82589Y298764D01*
X82488Y298811D01*
X82386Y298854D01*
X82283Y298894D01*
X82178Y298930D01*
X82072Y298962D01*
X81965Y298991D01*
X81857Y299016D01*
X81748Y299037D01*
X81639Y299054D01*
X81529Y299068D01*
X81418Y299077D01*
X81308Y299083D01*
X81197Y299085D01*
X81832Y304165D02*
X78022Y304165D01*
X81832Y304165D02*
X81932Y304163D01*
X82031Y304157D01*
X82131Y304147D01*
X82229Y304134D01*
X82328Y304116D01*
X82425Y304095D01*
X82521Y304070D01*
X82617Y304041D01*
X82711Y304008D01*
X82804Y303972D01*
X82895Y303932D01*
X82985Y303888D01*
X83073Y303841D01*
X83159Y303791D01*
X83243Y303737D01*
X83325Y303680D01*
X83404Y303620D01*
X83482Y303556D01*
X83556Y303490D01*
X83628Y303421D01*
X83697Y303349D01*
X83763Y303275D01*
X83827Y303197D01*
X83887Y303118D01*
X83944Y303036D01*
X83998Y302952D01*
X84048Y302866D01*
X84095Y302778D01*
X84139Y302688D01*
X84179Y302597D01*
X84215Y302504D01*
X84248Y302410D01*
X84277Y302314D01*
X84302Y302218D01*
X84323Y302121D01*
X84341Y302022D01*
X84354Y301924D01*
X84364Y301824D01*
X84370Y301725D01*
X84372Y301625D01*
X84370Y301525D01*
X84364Y301426D01*
X84354Y301326D01*
X84341Y301228D01*
X84323Y301129D01*
X84302Y301032D01*
X84277Y300936D01*
X84248Y300840D01*
X84215Y300746D01*
X84179Y300653D01*
X84139Y300562D01*
X84095Y300472D01*
X84048Y300384D01*
X83998Y300298D01*
X83944Y300214D01*
X83887Y300132D01*
X83827Y300053D01*
X83763Y299975D01*
X83697Y299901D01*
X83628Y299829D01*
X83556Y299760D01*
X83482Y299694D01*
X83404Y299630D01*
X83325Y299570D01*
X83243Y299513D01*
X83159Y299459D01*
X83073Y299409D01*
X82985Y299362D01*
X82895Y299318D01*
X82804Y299278D01*
X82711Y299242D01*
X82617Y299209D01*
X82521Y299180D01*
X82425Y299155D01*
X82328Y299134D01*
X82229Y299116D01*
X82131Y299103D01*
X82031Y299093D01*
X81932Y299087D01*
X81832Y299085D01*
X79292Y299085D01*
D10*
X336550Y339090D02*
X336552Y339190D01*
X336558Y339289D01*
X336568Y339389D01*
X336581Y339487D01*
X336599Y339586D01*
X336620Y339683D01*
X336645Y339779D01*
X336674Y339875D01*
X336707Y339969D01*
X336743Y340062D01*
X336783Y340153D01*
X336827Y340243D01*
X336874Y340331D01*
X336924Y340417D01*
X336978Y340501D01*
X337035Y340583D01*
X337095Y340662D01*
X337159Y340740D01*
X337225Y340814D01*
X337294Y340886D01*
X337366Y340955D01*
X337440Y341021D01*
X337518Y341085D01*
X337597Y341145D01*
X337679Y341202D01*
X337763Y341256D01*
X337849Y341306D01*
X337937Y341353D01*
X338027Y341397D01*
X338118Y341437D01*
X338211Y341473D01*
X338305Y341506D01*
X338401Y341535D01*
X338497Y341560D01*
X338594Y341581D01*
X338693Y341599D01*
X338791Y341612D01*
X338891Y341622D01*
X338990Y341628D01*
X339090Y341630D01*
X336550Y321310D02*
X336552Y321210D01*
X336558Y321111D01*
X336568Y321011D01*
X336581Y320913D01*
X336599Y320814D01*
X336620Y320717D01*
X336645Y320621D01*
X336674Y320525D01*
X336707Y320431D01*
X336743Y320338D01*
X336783Y320247D01*
X336827Y320157D01*
X336874Y320069D01*
X336924Y319983D01*
X336978Y319899D01*
X337035Y319817D01*
X337095Y319738D01*
X337159Y319660D01*
X337225Y319586D01*
X337294Y319514D01*
X337366Y319445D01*
X337440Y319379D01*
X337518Y319315D01*
X337597Y319255D01*
X337679Y319198D01*
X337763Y319144D01*
X337849Y319094D01*
X337937Y319047D01*
X338027Y319003D01*
X338118Y318963D01*
X338211Y318927D01*
X338305Y318894D01*
X338401Y318865D01*
X338497Y318840D01*
X338594Y318819D01*
X338693Y318801D01*
X338791Y318788D01*
X338891Y318778D01*
X338990Y318772D01*
X339090Y318770D01*
X397510Y318770D02*
X397610Y318772D01*
X397709Y318778D01*
X397809Y318788D01*
X397907Y318801D01*
X398006Y318819D01*
X398103Y318840D01*
X398199Y318865D01*
X398295Y318894D01*
X398389Y318927D01*
X398482Y318963D01*
X398573Y319003D01*
X398663Y319047D01*
X398751Y319094D01*
X398837Y319144D01*
X398921Y319198D01*
X399003Y319255D01*
X399082Y319315D01*
X399160Y319379D01*
X399234Y319445D01*
X399306Y319514D01*
X399375Y319586D01*
X399441Y319660D01*
X399505Y319738D01*
X399565Y319817D01*
X399622Y319899D01*
X399676Y319983D01*
X399726Y320069D01*
X399773Y320157D01*
X399817Y320247D01*
X399857Y320338D01*
X399893Y320431D01*
X399926Y320525D01*
X399955Y320621D01*
X399980Y320717D01*
X400001Y320814D01*
X400019Y320913D01*
X400032Y321011D01*
X400042Y321111D01*
X400048Y321210D01*
X400050Y321310D01*
X400050Y339090D02*
X400048Y339190D01*
X400042Y339289D01*
X400032Y339389D01*
X400019Y339487D01*
X400001Y339586D01*
X399980Y339683D01*
X399955Y339779D01*
X399926Y339875D01*
X399893Y339969D01*
X399857Y340062D01*
X399817Y340153D01*
X399773Y340243D01*
X399726Y340331D01*
X399676Y340417D01*
X399622Y340501D01*
X399565Y340583D01*
X399505Y340662D01*
X399441Y340740D01*
X399375Y340814D01*
X399306Y340886D01*
X399234Y340955D01*
X399160Y341021D01*
X399082Y341085D01*
X399003Y341145D01*
X398921Y341202D01*
X398837Y341256D01*
X398751Y341306D01*
X398663Y341353D01*
X398573Y341397D01*
X398482Y341437D01*
X398389Y341473D01*
X398295Y341506D01*
X398199Y341535D01*
X398103Y341560D01*
X398006Y341581D01*
X397907Y341599D01*
X397809Y341612D01*
X397709Y341622D01*
X397610Y341628D01*
X397510Y341630D01*
X336550Y339090D02*
X336550Y321310D01*
X339090Y341630D02*
X342900Y341630D01*
X344170Y340360D01*
X342900Y318770D02*
X339090Y318770D01*
X342900Y318770D02*
X344170Y320040D01*
X392430Y340360D02*
X393700Y341630D01*
X392430Y340360D02*
X344170Y340360D01*
X392430Y320040D02*
X393700Y318770D01*
X392430Y320040D02*
X344170Y320040D01*
X393700Y341630D02*
X397510Y341630D01*
X397510Y318770D02*
X393700Y318770D01*
X400050Y321310D02*
X400050Y339090D01*
D18*
X404368Y330200D03*
X332232Y330200D03*
D12*
X356235Y316865D02*
X356235Y305435D01*
X356235Y316865D02*
X359410Y316865D01*
X359521Y316863D01*
X359631Y316857D01*
X359742Y316848D01*
X359852Y316834D01*
X359961Y316817D01*
X360070Y316796D01*
X360178Y316771D01*
X360285Y316742D01*
X360391Y316710D01*
X360496Y316674D01*
X360599Y316634D01*
X360701Y316591D01*
X360802Y316544D01*
X360901Y316493D01*
X360998Y316440D01*
X361092Y316383D01*
X361185Y316322D01*
X361276Y316259D01*
X361365Y316192D01*
X361451Y316122D01*
X361534Y316049D01*
X361616Y315974D01*
X361694Y315896D01*
X361769Y315814D01*
X361842Y315731D01*
X361912Y315645D01*
X361979Y315556D01*
X362042Y315465D01*
X362103Y315372D01*
X362160Y315277D01*
X362213Y315181D01*
X362264Y315082D01*
X362311Y314981D01*
X362354Y314879D01*
X362394Y314776D01*
X362430Y314671D01*
X362462Y314565D01*
X362491Y314458D01*
X362516Y314350D01*
X362537Y314241D01*
X362554Y314132D01*
X362568Y314022D01*
X362577Y313911D01*
X362583Y313801D01*
X362585Y313690D01*
X362583Y313579D01*
X362577Y313469D01*
X362568Y313358D01*
X362554Y313248D01*
X362537Y313139D01*
X362516Y313030D01*
X362491Y312922D01*
X362462Y312815D01*
X362430Y312709D01*
X362394Y312604D01*
X362354Y312501D01*
X362311Y312399D01*
X362264Y312298D01*
X362213Y312199D01*
X362160Y312102D01*
X362103Y312008D01*
X362042Y311915D01*
X361979Y311824D01*
X361912Y311735D01*
X361842Y311649D01*
X361769Y311566D01*
X361694Y311484D01*
X361616Y311406D01*
X361534Y311331D01*
X361451Y311258D01*
X361365Y311188D01*
X361276Y311121D01*
X361185Y311058D01*
X361092Y310997D01*
X360998Y310940D01*
X360901Y310887D01*
X360802Y310836D01*
X360701Y310789D01*
X360599Y310746D01*
X360496Y310706D01*
X360391Y310670D01*
X360285Y310638D01*
X360178Y310609D01*
X360070Y310584D01*
X359961Y310563D01*
X359852Y310546D01*
X359742Y310532D01*
X359631Y310523D01*
X359521Y310517D01*
X359410Y310515D01*
X356235Y310515D01*
X360045Y310515D02*
X362585Y305435D01*
X367582Y307975D02*
X370122Y316865D01*
X367582Y307975D02*
X373932Y307975D01*
X372027Y310515D02*
X372027Y305435D01*
D10*
X273050Y295910D02*
X273048Y295810D01*
X273042Y295711D01*
X273032Y295611D01*
X273019Y295513D01*
X273001Y295414D01*
X272980Y295317D01*
X272955Y295221D01*
X272926Y295125D01*
X272893Y295031D01*
X272857Y294938D01*
X272817Y294847D01*
X272773Y294757D01*
X272726Y294669D01*
X272676Y294583D01*
X272622Y294499D01*
X272565Y294417D01*
X272505Y294338D01*
X272441Y294260D01*
X272375Y294186D01*
X272306Y294114D01*
X272234Y294045D01*
X272160Y293979D01*
X272082Y293915D01*
X272003Y293855D01*
X271921Y293798D01*
X271837Y293744D01*
X271751Y293694D01*
X271663Y293647D01*
X271573Y293603D01*
X271482Y293563D01*
X271389Y293527D01*
X271295Y293494D01*
X271199Y293465D01*
X271103Y293440D01*
X271006Y293419D01*
X270907Y293401D01*
X270809Y293388D01*
X270709Y293378D01*
X270610Y293372D01*
X270510Y293370D01*
X273050Y313690D02*
X273048Y313790D01*
X273042Y313889D01*
X273032Y313989D01*
X273019Y314087D01*
X273001Y314186D01*
X272980Y314283D01*
X272955Y314379D01*
X272926Y314475D01*
X272893Y314569D01*
X272857Y314662D01*
X272817Y314753D01*
X272773Y314843D01*
X272726Y314931D01*
X272676Y315017D01*
X272622Y315101D01*
X272565Y315183D01*
X272505Y315262D01*
X272441Y315340D01*
X272375Y315414D01*
X272306Y315486D01*
X272234Y315555D01*
X272160Y315621D01*
X272082Y315685D01*
X272003Y315745D01*
X271921Y315802D01*
X271837Y315856D01*
X271751Y315906D01*
X271663Y315953D01*
X271573Y315997D01*
X271482Y316037D01*
X271389Y316073D01*
X271295Y316106D01*
X271199Y316135D01*
X271103Y316160D01*
X271006Y316181D01*
X270907Y316199D01*
X270809Y316212D01*
X270709Y316222D01*
X270610Y316228D01*
X270510Y316230D01*
X212090Y316230D02*
X211990Y316228D01*
X211891Y316222D01*
X211791Y316212D01*
X211693Y316199D01*
X211594Y316181D01*
X211497Y316160D01*
X211401Y316135D01*
X211305Y316106D01*
X211211Y316073D01*
X211118Y316037D01*
X211027Y315997D01*
X210937Y315953D01*
X210849Y315906D01*
X210763Y315856D01*
X210679Y315802D01*
X210597Y315745D01*
X210518Y315685D01*
X210440Y315621D01*
X210366Y315555D01*
X210294Y315486D01*
X210225Y315414D01*
X210159Y315340D01*
X210095Y315262D01*
X210035Y315183D01*
X209978Y315101D01*
X209924Y315017D01*
X209874Y314931D01*
X209827Y314843D01*
X209783Y314753D01*
X209743Y314662D01*
X209707Y314569D01*
X209674Y314475D01*
X209645Y314379D01*
X209620Y314283D01*
X209599Y314186D01*
X209581Y314087D01*
X209568Y313989D01*
X209558Y313889D01*
X209552Y313790D01*
X209550Y313690D01*
X209550Y295910D02*
X209552Y295810D01*
X209558Y295711D01*
X209568Y295611D01*
X209581Y295513D01*
X209599Y295414D01*
X209620Y295317D01*
X209645Y295221D01*
X209674Y295125D01*
X209707Y295031D01*
X209743Y294938D01*
X209783Y294847D01*
X209827Y294757D01*
X209874Y294669D01*
X209924Y294583D01*
X209978Y294499D01*
X210035Y294417D01*
X210095Y294338D01*
X210159Y294260D01*
X210225Y294186D01*
X210294Y294114D01*
X210366Y294045D01*
X210440Y293979D01*
X210518Y293915D01*
X210597Y293855D01*
X210679Y293798D01*
X210763Y293744D01*
X210849Y293694D01*
X210937Y293647D01*
X211027Y293603D01*
X211118Y293563D01*
X211211Y293527D01*
X211305Y293494D01*
X211401Y293465D01*
X211497Y293440D01*
X211594Y293419D01*
X211693Y293401D01*
X211791Y293388D01*
X211891Y293378D01*
X211990Y293372D01*
X212090Y293370D01*
X273050Y295910D02*
X273050Y313690D01*
X270510Y293370D02*
X266700Y293370D01*
X265430Y294640D01*
X266700Y316230D02*
X270510Y316230D01*
X266700Y316230D02*
X265430Y314960D01*
X217170Y294640D02*
X215900Y293370D01*
X217170Y294640D02*
X265430Y294640D01*
X217170Y314960D02*
X215900Y316230D01*
X217170Y314960D02*
X265430Y314960D01*
X215900Y293370D02*
X212090Y293370D01*
X212090Y316230D02*
X215900Y316230D01*
X209550Y313690D02*
X209550Y295910D01*
D18*
X205232Y304800D03*
X277368Y304800D03*
D12*
X234398Y290195D02*
X234398Y278765D01*
X234398Y290195D02*
X237573Y290195D01*
X237684Y290193D01*
X237794Y290187D01*
X237905Y290178D01*
X238015Y290164D01*
X238124Y290147D01*
X238233Y290126D01*
X238341Y290101D01*
X238448Y290072D01*
X238554Y290040D01*
X238659Y290004D01*
X238762Y289964D01*
X238864Y289921D01*
X238965Y289874D01*
X239064Y289823D01*
X239161Y289770D01*
X239255Y289713D01*
X239348Y289652D01*
X239439Y289589D01*
X239528Y289522D01*
X239614Y289452D01*
X239697Y289379D01*
X239779Y289304D01*
X239857Y289226D01*
X239932Y289144D01*
X240005Y289061D01*
X240075Y288975D01*
X240142Y288886D01*
X240205Y288795D01*
X240266Y288702D01*
X240323Y288607D01*
X240376Y288511D01*
X240427Y288412D01*
X240474Y288311D01*
X240517Y288209D01*
X240557Y288106D01*
X240593Y288001D01*
X240625Y287895D01*
X240654Y287788D01*
X240679Y287680D01*
X240700Y287571D01*
X240717Y287462D01*
X240731Y287352D01*
X240740Y287241D01*
X240746Y287131D01*
X240748Y287020D01*
X240746Y286909D01*
X240740Y286799D01*
X240731Y286688D01*
X240717Y286578D01*
X240700Y286469D01*
X240679Y286360D01*
X240654Y286252D01*
X240625Y286145D01*
X240593Y286039D01*
X240557Y285934D01*
X240517Y285831D01*
X240474Y285729D01*
X240427Y285628D01*
X240376Y285529D01*
X240323Y285432D01*
X240266Y285338D01*
X240205Y285245D01*
X240142Y285154D01*
X240075Y285065D01*
X240005Y284979D01*
X239932Y284896D01*
X239857Y284814D01*
X239779Y284736D01*
X239697Y284661D01*
X239614Y284588D01*
X239528Y284518D01*
X239439Y284451D01*
X239348Y284388D01*
X239255Y284327D01*
X239160Y284270D01*
X239064Y284217D01*
X238965Y284166D01*
X238864Y284119D01*
X238762Y284076D01*
X238659Y284036D01*
X238554Y284000D01*
X238448Y283968D01*
X238341Y283939D01*
X238233Y283914D01*
X238124Y283893D01*
X238015Y283876D01*
X237905Y283862D01*
X237794Y283853D01*
X237684Y283847D01*
X237573Y283845D01*
X234398Y283845D01*
X238208Y283845D02*
X240748Y278765D01*
X245745Y278765D02*
X249555Y278765D01*
X249655Y278767D01*
X249754Y278773D01*
X249854Y278783D01*
X249952Y278796D01*
X250051Y278814D01*
X250148Y278835D01*
X250244Y278860D01*
X250340Y278889D01*
X250434Y278922D01*
X250527Y278958D01*
X250618Y278998D01*
X250708Y279042D01*
X250796Y279089D01*
X250882Y279139D01*
X250966Y279193D01*
X251048Y279250D01*
X251127Y279310D01*
X251205Y279374D01*
X251279Y279440D01*
X251351Y279509D01*
X251420Y279581D01*
X251486Y279655D01*
X251550Y279733D01*
X251610Y279812D01*
X251667Y279894D01*
X251721Y279978D01*
X251771Y280064D01*
X251818Y280152D01*
X251862Y280242D01*
X251902Y280333D01*
X251938Y280426D01*
X251971Y280520D01*
X252000Y280616D01*
X252025Y280712D01*
X252046Y280809D01*
X252064Y280908D01*
X252077Y281006D01*
X252087Y281106D01*
X252093Y281205D01*
X252095Y281305D01*
X252095Y282575D01*
X252093Y282675D01*
X252087Y282774D01*
X252077Y282874D01*
X252064Y282972D01*
X252046Y283071D01*
X252025Y283168D01*
X252000Y283264D01*
X251971Y283360D01*
X251938Y283454D01*
X251902Y283547D01*
X251862Y283638D01*
X251818Y283728D01*
X251771Y283816D01*
X251721Y283902D01*
X251667Y283986D01*
X251610Y284068D01*
X251550Y284147D01*
X251486Y284225D01*
X251420Y284299D01*
X251351Y284371D01*
X251279Y284440D01*
X251205Y284506D01*
X251127Y284570D01*
X251048Y284630D01*
X250966Y284687D01*
X250882Y284741D01*
X250796Y284791D01*
X250708Y284838D01*
X250618Y284882D01*
X250527Y284922D01*
X250434Y284958D01*
X250340Y284991D01*
X250244Y285020D01*
X250148Y285045D01*
X250051Y285066D01*
X249952Y285084D01*
X249854Y285097D01*
X249754Y285107D01*
X249655Y285113D01*
X249555Y285115D01*
X245745Y285115D01*
X245745Y290195D01*
X252095Y290195D01*
D10*
X422910Y140970D02*
X423010Y140972D01*
X423109Y140978D01*
X423209Y140988D01*
X423307Y141001D01*
X423406Y141019D01*
X423503Y141040D01*
X423599Y141065D01*
X423695Y141094D01*
X423789Y141127D01*
X423882Y141163D01*
X423973Y141203D01*
X424063Y141247D01*
X424151Y141294D01*
X424237Y141344D01*
X424321Y141398D01*
X424403Y141455D01*
X424482Y141515D01*
X424560Y141579D01*
X424634Y141645D01*
X424706Y141714D01*
X424775Y141786D01*
X424841Y141860D01*
X424905Y141938D01*
X424965Y142017D01*
X425022Y142099D01*
X425076Y142183D01*
X425126Y142269D01*
X425173Y142357D01*
X425217Y142447D01*
X425257Y142538D01*
X425293Y142631D01*
X425326Y142725D01*
X425355Y142821D01*
X425380Y142917D01*
X425401Y143014D01*
X425419Y143113D01*
X425432Y143211D01*
X425442Y143311D01*
X425448Y143410D01*
X425450Y143510D01*
X425450Y161290D02*
X425448Y161390D01*
X425442Y161489D01*
X425432Y161589D01*
X425419Y161687D01*
X425401Y161786D01*
X425380Y161883D01*
X425355Y161979D01*
X425326Y162075D01*
X425293Y162169D01*
X425257Y162262D01*
X425217Y162353D01*
X425173Y162443D01*
X425126Y162531D01*
X425076Y162617D01*
X425022Y162701D01*
X424965Y162783D01*
X424905Y162862D01*
X424841Y162940D01*
X424775Y163014D01*
X424706Y163086D01*
X424634Y163155D01*
X424560Y163221D01*
X424482Y163285D01*
X424403Y163345D01*
X424321Y163402D01*
X424237Y163456D01*
X424151Y163506D01*
X424063Y163553D01*
X423973Y163597D01*
X423882Y163637D01*
X423789Y163673D01*
X423695Y163706D01*
X423599Y163735D01*
X423503Y163760D01*
X423406Y163781D01*
X423307Y163799D01*
X423209Y163812D01*
X423109Y163822D01*
X423010Y163828D01*
X422910Y163830D01*
X364490Y163830D02*
X364390Y163828D01*
X364291Y163822D01*
X364191Y163812D01*
X364093Y163799D01*
X363994Y163781D01*
X363897Y163760D01*
X363801Y163735D01*
X363705Y163706D01*
X363611Y163673D01*
X363518Y163637D01*
X363427Y163597D01*
X363337Y163553D01*
X363249Y163506D01*
X363163Y163456D01*
X363079Y163402D01*
X362997Y163345D01*
X362918Y163285D01*
X362840Y163221D01*
X362766Y163155D01*
X362694Y163086D01*
X362625Y163014D01*
X362559Y162940D01*
X362495Y162862D01*
X362435Y162783D01*
X362378Y162701D01*
X362324Y162617D01*
X362274Y162531D01*
X362227Y162443D01*
X362183Y162353D01*
X362143Y162262D01*
X362107Y162169D01*
X362074Y162075D01*
X362045Y161979D01*
X362020Y161883D01*
X361999Y161786D01*
X361981Y161687D01*
X361968Y161589D01*
X361958Y161489D01*
X361952Y161390D01*
X361950Y161290D01*
X361950Y143510D02*
X361952Y143410D01*
X361958Y143311D01*
X361968Y143211D01*
X361981Y143113D01*
X361999Y143014D01*
X362020Y142917D01*
X362045Y142821D01*
X362074Y142725D01*
X362107Y142631D01*
X362143Y142538D01*
X362183Y142447D01*
X362227Y142357D01*
X362274Y142269D01*
X362324Y142183D01*
X362378Y142099D01*
X362435Y142017D01*
X362495Y141938D01*
X362559Y141860D01*
X362625Y141786D01*
X362694Y141714D01*
X362766Y141645D01*
X362840Y141579D01*
X362918Y141515D01*
X362997Y141455D01*
X363079Y141398D01*
X363163Y141344D01*
X363249Y141294D01*
X363337Y141247D01*
X363427Y141203D01*
X363518Y141163D01*
X363611Y141127D01*
X363705Y141094D01*
X363801Y141065D01*
X363897Y141040D01*
X363994Y141019D01*
X364093Y141001D01*
X364191Y140988D01*
X364291Y140978D01*
X364390Y140972D01*
X364490Y140970D01*
X425450Y143510D02*
X425450Y161290D01*
X422910Y140970D02*
X419100Y140970D01*
X417830Y142240D01*
X419100Y163830D02*
X422910Y163830D01*
X419100Y163830D02*
X417830Y162560D01*
X369570Y142240D02*
X368300Y140970D01*
X369570Y142240D02*
X417830Y142240D01*
X369570Y162560D02*
X368300Y163830D01*
X369570Y162560D02*
X417830Y162560D01*
X368300Y140970D02*
X364490Y140970D01*
X364490Y163830D02*
X368300Y163830D01*
X361950Y161290D02*
X361950Y143510D01*
D18*
X357632Y152400D03*
X429768Y152400D03*
D12*
X380448Y136525D02*
X380448Y125095D01*
X380448Y136525D02*
X383623Y136525D01*
X383734Y136523D01*
X383844Y136517D01*
X383955Y136508D01*
X384065Y136494D01*
X384174Y136477D01*
X384283Y136456D01*
X384391Y136431D01*
X384498Y136402D01*
X384604Y136370D01*
X384709Y136334D01*
X384812Y136294D01*
X384914Y136251D01*
X385015Y136204D01*
X385114Y136153D01*
X385211Y136100D01*
X385305Y136043D01*
X385398Y135982D01*
X385489Y135919D01*
X385578Y135852D01*
X385664Y135782D01*
X385747Y135709D01*
X385829Y135634D01*
X385907Y135556D01*
X385982Y135474D01*
X386055Y135391D01*
X386125Y135305D01*
X386192Y135216D01*
X386255Y135125D01*
X386316Y135032D01*
X386373Y134937D01*
X386426Y134841D01*
X386477Y134742D01*
X386524Y134641D01*
X386567Y134539D01*
X386607Y134436D01*
X386643Y134331D01*
X386675Y134225D01*
X386704Y134118D01*
X386729Y134010D01*
X386750Y133901D01*
X386767Y133792D01*
X386781Y133682D01*
X386790Y133571D01*
X386796Y133461D01*
X386798Y133350D01*
X386796Y133239D01*
X386790Y133129D01*
X386781Y133018D01*
X386767Y132908D01*
X386750Y132799D01*
X386729Y132690D01*
X386704Y132582D01*
X386675Y132475D01*
X386643Y132369D01*
X386607Y132264D01*
X386567Y132161D01*
X386524Y132059D01*
X386477Y131958D01*
X386426Y131859D01*
X386373Y131762D01*
X386316Y131668D01*
X386255Y131575D01*
X386192Y131484D01*
X386125Y131395D01*
X386055Y131309D01*
X385982Y131226D01*
X385907Y131144D01*
X385829Y131066D01*
X385747Y130991D01*
X385664Y130918D01*
X385578Y130848D01*
X385489Y130781D01*
X385398Y130718D01*
X385305Y130657D01*
X385211Y130600D01*
X385114Y130547D01*
X385015Y130496D01*
X384914Y130449D01*
X384812Y130406D01*
X384709Y130366D01*
X384604Y130330D01*
X384498Y130298D01*
X384391Y130269D01*
X384283Y130244D01*
X384174Y130223D01*
X384065Y130206D01*
X383955Y130192D01*
X383844Y130183D01*
X383734Y130177D01*
X383623Y130175D01*
X380448Y130175D01*
X384258Y130175D02*
X386798Y125095D01*
X391795Y131445D02*
X395605Y131445D01*
X395705Y131443D01*
X395804Y131437D01*
X395904Y131427D01*
X396002Y131414D01*
X396101Y131396D01*
X396198Y131375D01*
X396294Y131350D01*
X396390Y131321D01*
X396484Y131288D01*
X396577Y131252D01*
X396668Y131212D01*
X396758Y131168D01*
X396846Y131121D01*
X396932Y131071D01*
X397016Y131017D01*
X397098Y130960D01*
X397177Y130900D01*
X397255Y130836D01*
X397329Y130770D01*
X397401Y130701D01*
X397470Y130629D01*
X397536Y130555D01*
X397600Y130477D01*
X397660Y130398D01*
X397717Y130316D01*
X397771Y130232D01*
X397821Y130146D01*
X397868Y130058D01*
X397912Y129968D01*
X397952Y129877D01*
X397988Y129784D01*
X398021Y129690D01*
X398050Y129594D01*
X398075Y129498D01*
X398096Y129401D01*
X398114Y129302D01*
X398127Y129204D01*
X398137Y129104D01*
X398143Y129005D01*
X398145Y128905D01*
X398145Y128270D01*
X398143Y128159D01*
X398137Y128049D01*
X398128Y127938D01*
X398114Y127828D01*
X398097Y127719D01*
X398076Y127610D01*
X398051Y127502D01*
X398022Y127395D01*
X397990Y127289D01*
X397954Y127184D01*
X397914Y127081D01*
X397871Y126979D01*
X397824Y126878D01*
X397773Y126779D01*
X397720Y126682D01*
X397663Y126588D01*
X397602Y126495D01*
X397539Y126404D01*
X397472Y126315D01*
X397402Y126229D01*
X397329Y126146D01*
X397254Y126064D01*
X397176Y125986D01*
X397094Y125911D01*
X397011Y125838D01*
X396925Y125768D01*
X396836Y125701D01*
X396745Y125638D01*
X396652Y125577D01*
X396557Y125520D01*
X396461Y125467D01*
X396362Y125416D01*
X396261Y125369D01*
X396159Y125326D01*
X396056Y125286D01*
X395951Y125250D01*
X395845Y125218D01*
X395738Y125189D01*
X395630Y125164D01*
X395521Y125143D01*
X395412Y125126D01*
X395302Y125112D01*
X395191Y125103D01*
X395081Y125097D01*
X394970Y125095D01*
X394859Y125097D01*
X394749Y125103D01*
X394638Y125112D01*
X394528Y125126D01*
X394419Y125143D01*
X394310Y125164D01*
X394202Y125189D01*
X394095Y125218D01*
X393989Y125250D01*
X393884Y125286D01*
X393781Y125326D01*
X393679Y125369D01*
X393578Y125416D01*
X393479Y125467D01*
X393383Y125520D01*
X393288Y125577D01*
X393195Y125638D01*
X393104Y125701D01*
X393015Y125768D01*
X392929Y125838D01*
X392846Y125911D01*
X392764Y125986D01*
X392686Y126064D01*
X392611Y126146D01*
X392538Y126229D01*
X392468Y126315D01*
X392401Y126404D01*
X392338Y126495D01*
X392277Y126588D01*
X392220Y126683D01*
X392167Y126779D01*
X392116Y126878D01*
X392069Y126979D01*
X392026Y127081D01*
X391986Y127184D01*
X391950Y127289D01*
X391918Y127395D01*
X391889Y127502D01*
X391864Y127610D01*
X391843Y127719D01*
X391826Y127828D01*
X391812Y127938D01*
X391803Y128049D01*
X391797Y128159D01*
X391795Y128270D01*
X391795Y131445D01*
X391797Y131585D01*
X391803Y131725D01*
X391812Y131865D01*
X391826Y132004D01*
X391843Y132143D01*
X391864Y132281D01*
X391889Y132419D01*
X391918Y132556D01*
X391950Y132692D01*
X391987Y132827D01*
X392027Y132961D01*
X392070Y133094D01*
X392118Y133226D01*
X392168Y133357D01*
X392223Y133486D01*
X392281Y133613D01*
X392342Y133739D01*
X392407Y133863D01*
X392476Y133985D01*
X392547Y134105D01*
X392622Y134223D01*
X392700Y134340D01*
X392782Y134454D01*
X392866Y134565D01*
X392954Y134674D01*
X393044Y134781D01*
X393138Y134886D01*
X393234Y134987D01*
X393333Y135086D01*
X393434Y135182D01*
X393539Y135276D01*
X393646Y135366D01*
X393755Y135454D01*
X393866Y135538D01*
X393980Y135620D01*
X394097Y135698D01*
X394215Y135773D01*
X394335Y135844D01*
X394457Y135913D01*
X394581Y135978D01*
X394707Y136039D01*
X394834Y136097D01*
X394963Y136152D01*
X395094Y136202D01*
X395226Y136250D01*
X395359Y136293D01*
X395493Y136333D01*
X395628Y136370D01*
X395764Y136402D01*
X395901Y136431D01*
X396039Y136456D01*
X396177Y136477D01*
X396316Y136494D01*
X396455Y136508D01*
X396595Y136517D01*
X396735Y136523D01*
X396875Y136525D01*
D10*
X38100Y44450D02*
X38100Y31750D01*
X38100Y44450D02*
X44450Y50800D01*
X57150Y50800D02*
X63500Y44450D01*
X44450Y50800D02*
X38100Y57150D01*
X38100Y69850D01*
X44450Y76200D01*
X57150Y76200D02*
X63500Y69850D01*
X63500Y57150D01*
X57150Y50800D01*
X57150Y25400D02*
X44450Y25400D01*
X38100Y31750D01*
X57150Y25400D02*
X63500Y31750D01*
X63500Y44450D01*
X44450Y76200D02*
X38100Y82550D01*
X38100Y95250D01*
X44450Y101600D01*
X57150Y101600D02*
X63500Y95250D01*
X63500Y82550D01*
X57150Y76200D01*
X38100Y107950D02*
X38100Y120650D01*
X44450Y127000D01*
X57150Y127000D01*
X63500Y120650D01*
X44450Y101600D02*
X38100Y107950D01*
X57150Y101600D02*
X63500Y107950D01*
X63500Y120650D01*
D12*
X45085Y17780D02*
X47625Y14605D01*
X45085Y17780D02*
X56515Y17780D01*
X56515Y14605D02*
X56515Y20955D01*
X53975Y130175D02*
X45085Y132715D01*
X53975Y130175D02*
X53975Y136525D01*
X51435Y134620D02*
X56515Y134620D01*
X18415Y45085D02*
X18515Y45083D01*
X18614Y45077D01*
X18714Y45067D01*
X18812Y45054D01*
X18911Y45036D01*
X19008Y45015D01*
X19104Y44990D01*
X19200Y44961D01*
X19294Y44928D01*
X19387Y44892D01*
X19478Y44852D01*
X19568Y44808D01*
X19656Y44761D01*
X19742Y44711D01*
X19826Y44657D01*
X19908Y44600D01*
X19987Y44540D01*
X20065Y44476D01*
X20139Y44410D01*
X20211Y44341D01*
X20280Y44269D01*
X20346Y44195D01*
X20410Y44117D01*
X20470Y44038D01*
X20527Y43956D01*
X20581Y43872D01*
X20631Y43786D01*
X20678Y43698D01*
X20722Y43608D01*
X20762Y43517D01*
X20798Y43424D01*
X20831Y43330D01*
X20860Y43234D01*
X20885Y43138D01*
X20906Y43041D01*
X20924Y42942D01*
X20937Y42844D01*
X20947Y42744D01*
X20953Y42645D01*
X20955Y42545D01*
X20953Y42404D01*
X20948Y42263D01*
X20938Y42122D01*
X20925Y41981D01*
X20909Y41841D01*
X20888Y41701D01*
X20864Y41562D01*
X20836Y41423D01*
X20805Y41286D01*
X20770Y41149D01*
X20732Y41013D01*
X20690Y40878D01*
X20644Y40745D01*
X20595Y40612D01*
X20542Y40481D01*
X20486Y40352D01*
X20427Y40223D01*
X20364Y40097D01*
X20298Y39972D01*
X20229Y39849D01*
X20156Y39728D01*
X20080Y39609D01*
X20001Y39491D01*
X19920Y39376D01*
X19835Y39264D01*
X19747Y39153D01*
X19656Y39045D01*
X19563Y38939D01*
X19466Y38836D01*
X19367Y38735D01*
X12065Y39053D02*
X11965Y39055D01*
X11866Y39061D01*
X11766Y39071D01*
X11668Y39084D01*
X11569Y39102D01*
X11472Y39123D01*
X11376Y39148D01*
X11280Y39177D01*
X11186Y39210D01*
X11093Y39246D01*
X11002Y39286D01*
X10912Y39330D01*
X10824Y39377D01*
X10738Y39427D01*
X10654Y39481D01*
X10572Y39538D01*
X10493Y39598D01*
X10415Y39662D01*
X10341Y39728D01*
X10269Y39797D01*
X10200Y39869D01*
X10134Y39943D01*
X10070Y40021D01*
X10010Y40100D01*
X9953Y40182D01*
X9899Y40266D01*
X9849Y40352D01*
X9802Y40440D01*
X9758Y40530D01*
X9718Y40621D01*
X9682Y40714D01*
X9649Y40808D01*
X9620Y40904D01*
X9595Y41000D01*
X9574Y41097D01*
X9556Y41196D01*
X9543Y41294D01*
X9533Y41394D01*
X9527Y41493D01*
X9525Y41593D01*
X9527Y41726D01*
X9532Y41859D01*
X9542Y41992D01*
X9555Y42125D01*
X9572Y42257D01*
X9592Y42389D01*
X9616Y42520D01*
X9644Y42650D01*
X9675Y42780D01*
X9710Y42908D01*
X9749Y43036D01*
X9791Y43162D01*
X9837Y43287D01*
X9886Y43411D01*
X9938Y43534D01*
X9994Y43655D01*
X10054Y43774D01*
X10116Y43892D01*
X10182Y44007D01*
X10251Y44121D01*
X10324Y44233D01*
X10399Y44343D01*
X10478Y44451D01*
X14288Y40322D02*
X14236Y40238D01*
X14181Y40155D01*
X14122Y40075D01*
X14061Y39997D01*
X13997Y39922D01*
X13929Y39849D01*
X13859Y39778D01*
X13787Y39711D01*
X13712Y39646D01*
X13634Y39584D01*
X13554Y39525D01*
X13472Y39469D01*
X13388Y39417D01*
X13302Y39368D01*
X13214Y39322D01*
X13124Y39279D01*
X13033Y39240D01*
X12940Y39205D01*
X12846Y39173D01*
X12751Y39145D01*
X12655Y39120D01*
X12558Y39100D01*
X12460Y39082D01*
X12362Y39069D01*
X12263Y39060D01*
X12164Y39054D01*
X12065Y39052D01*
X16192Y43815D02*
X16244Y43899D01*
X16299Y43982D01*
X16358Y44062D01*
X16419Y44140D01*
X16483Y44215D01*
X16551Y44288D01*
X16621Y44359D01*
X16693Y44426D01*
X16768Y44491D01*
X16846Y44553D01*
X16926Y44612D01*
X17008Y44668D01*
X17092Y44720D01*
X17178Y44769D01*
X17266Y44815D01*
X17356Y44858D01*
X17447Y44897D01*
X17540Y44932D01*
X17634Y44964D01*
X17729Y44992D01*
X17825Y45017D01*
X17922Y45037D01*
X18020Y45055D01*
X18118Y45068D01*
X18217Y45077D01*
X18316Y45083D01*
X18415Y45085D01*
X16193Y43815D02*
X14288Y40323D01*
X20955Y52287D02*
X20955Y54827D01*
X20955Y52287D02*
X20953Y52187D01*
X20947Y52088D01*
X20937Y51988D01*
X20924Y51890D01*
X20906Y51791D01*
X20885Y51694D01*
X20860Y51598D01*
X20831Y51502D01*
X20798Y51408D01*
X20762Y51315D01*
X20722Y51224D01*
X20678Y51134D01*
X20631Y51046D01*
X20581Y50960D01*
X20527Y50876D01*
X20470Y50794D01*
X20410Y50715D01*
X20346Y50637D01*
X20280Y50563D01*
X20211Y50491D01*
X20139Y50422D01*
X20065Y50356D01*
X19987Y50292D01*
X19908Y50232D01*
X19826Y50175D01*
X19742Y50121D01*
X19656Y50071D01*
X19568Y50024D01*
X19478Y49980D01*
X19387Y49940D01*
X19294Y49904D01*
X19200Y49871D01*
X19104Y49842D01*
X19008Y49817D01*
X18911Y49796D01*
X18812Y49778D01*
X18714Y49765D01*
X18614Y49755D01*
X18515Y49749D01*
X18415Y49747D01*
X12065Y49747D01*
X11965Y49749D01*
X11866Y49755D01*
X11766Y49765D01*
X11668Y49778D01*
X11569Y49796D01*
X11472Y49817D01*
X11376Y49842D01*
X11280Y49871D01*
X11186Y49904D01*
X11093Y49940D01*
X11002Y49980D01*
X10912Y50024D01*
X10824Y50071D01*
X10738Y50121D01*
X10654Y50175D01*
X10572Y50232D01*
X10493Y50292D01*
X10415Y50356D01*
X10341Y50422D01*
X10269Y50491D01*
X10200Y50563D01*
X10134Y50637D01*
X10070Y50715D01*
X10010Y50794D01*
X9953Y50876D01*
X9899Y50960D01*
X9849Y51046D01*
X9802Y51134D01*
X9758Y51224D01*
X9718Y51315D01*
X9682Y51408D01*
X9649Y51502D01*
X9620Y51598D01*
X9595Y51694D01*
X9574Y51791D01*
X9556Y51890D01*
X9543Y51988D01*
X9533Y52088D01*
X9527Y52187D01*
X9525Y52287D01*
X9525Y54827D01*
X12700Y59309D02*
X17780Y59309D01*
X12700Y59309D02*
X12589Y59311D01*
X12479Y59317D01*
X12368Y59326D01*
X12258Y59340D01*
X12149Y59357D01*
X12040Y59378D01*
X11932Y59403D01*
X11825Y59432D01*
X11719Y59464D01*
X11614Y59500D01*
X11511Y59540D01*
X11409Y59583D01*
X11308Y59630D01*
X11209Y59681D01*
X11113Y59734D01*
X11018Y59791D01*
X10925Y59852D01*
X10834Y59915D01*
X10745Y59982D01*
X10659Y60052D01*
X10576Y60125D01*
X10494Y60200D01*
X10416Y60278D01*
X10341Y60360D01*
X10268Y60443D01*
X10198Y60529D01*
X10131Y60618D01*
X10068Y60709D01*
X10007Y60802D01*
X9950Y60896D01*
X9897Y60993D01*
X9846Y61092D01*
X9799Y61193D01*
X9756Y61295D01*
X9716Y61398D01*
X9680Y61503D01*
X9648Y61609D01*
X9619Y61716D01*
X9594Y61824D01*
X9573Y61933D01*
X9556Y62042D01*
X9542Y62152D01*
X9533Y62263D01*
X9527Y62373D01*
X9525Y62484D01*
X9527Y62595D01*
X9533Y62705D01*
X9542Y62816D01*
X9556Y62926D01*
X9573Y63035D01*
X9594Y63144D01*
X9619Y63252D01*
X9648Y63359D01*
X9680Y63465D01*
X9716Y63570D01*
X9756Y63673D01*
X9799Y63775D01*
X9846Y63876D01*
X9897Y63975D01*
X9950Y64071D01*
X10007Y64166D01*
X10068Y64259D01*
X10131Y64350D01*
X10198Y64439D01*
X10268Y64525D01*
X10341Y64608D01*
X10416Y64690D01*
X10494Y64768D01*
X10576Y64843D01*
X10659Y64916D01*
X10745Y64986D01*
X10834Y65053D01*
X10925Y65116D01*
X11018Y65177D01*
X11112Y65234D01*
X11209Y65287D01*
X11308Y65338D01*
X11409Y65385D01*
X11511Y65428D01*
X11614Y65468D01*
X11719Y65504D01*
X11825Y65536D01*
X11932Y65565D01*
X12040Y65590D01*
X12149Y65611D01*
X12258Y65628D01*
X12368Y65642D01*
X12479Y65651D01*
X12589Y65657D01*
X12700Y65659D01*
X17780Y65659D01*
X17891Y65657D01*
X18001Y65651D01*
X18112Y65642D01*
X18222Y65628D01*
X18331Y65611D01*
X18440Y65590D01*
X18548Y65565D01*
X18655Y65536D01*
X18761Y65504D01*
X18866Y65468D01*
X18969Y65428D01*
X19071Y65385D01*
X19172Y65338D01*
X19271Y65287D01*
X19368Y65234D01*
X19462Y65177D01*
X19555Y65116D01*
X19646Y65053D01*
X19735Y64986D01*
X19821Y64916D01*
X19904Y64843D01*
X19986Y64768D01*
X20064Y64690D01*
X20139Y64608D01*
X20212Y64525D01*
X20282Y64439D01*
X20349Y64350D01*
X20412Y64259D01*
X20473Y64166D01*
X20530Y64071D01*
X20583Y63975D01*
X20634Y63876D01*
X20681Y63775D01*
X20724Y63673D01*
X20764Y63570D01*
X20800Y63465D01*
X20832Y63359D01*
X20861Y63252D01*
X20886Y63144D01*
X20907Y63035D01*
X20924Y62926D01*
X20938Y62816D01*
X20947Y62705D01*
X20953Y62595D01*
X20955Y62484D01*
X20953Y62373D01*
X20947Y62263D01*
X20938Y62152D01*
X20924Y62042D01*
X20907Y61933D01*
X20886Y61824D01*
X20861Y61716D01*
X20832Y61609D01*
X20800Y61503D01*
X20764Y61398D01*
X20724Y61295D01*
X20681Y61193D01*
X20634Y61092D01*
X20583Y60993D01*
X20530Y60896D01*
X20473Y60802D01*
X20412Y60709D01*
X20349Y60618D01*
X20282Y60529D01*
X20212Y60443D01*
X20139Y60360D01*
X20064Y60278D01*
X19986Y60200D01*
X19904Y60125D01*
X19821Y60052D01*
X19735Y59982D01*
X19646Y59915D01*
X19555Y59852D01*
X19462Y59791D01*
X19367Y59734D01*
X19271Y59681D01*
X19172Y59630D01*
X19071Y59583D01*
X18969Y59540D01*
X18866Y59500D01*
X18761Y59464D01*
X18655Y59432D01*
X18548Y59403D01*
X18440Y59378D01*
X18331Y59357D01*
X18222Y59340D01*
X18112Y59326D01*
X18001Y59317D01*
X17891Y59311D01*
X17780Y59309D01*
X20955Y71310D02*
X9525Y71310D01*
X9525Y74485D01*
X9527Y74596D01*
X9533Y74706D01*
X9542Y74817D01*
X9556Y74927D01*
X9573Y75036D01*
X9594Y75145D01*
X9619Y75253D01*
X9648Y75360D01*
X9680Y75466D01*
X9716Y75571D01*
X9756Y75674D01*
X9799Y75776D01*
X9846Y75877D01*
X9897Y75976D01*
X9950Y76072D01*
X10007Y76167D01*
X10068Y76260D01*
X10131Y76351D01*
X10198Y76440D01*
X10268Y76526D01*
X10341Y76609D01*
X10416Y76691D01*
X10494Y76769D01*
X10576Y76844D01*
X10659Y76917D01*
X10745Y76987D01*
X10834Y77054D01*
X10925Y77117D01*
X11018Y77178D01*
X11112Y77235D01*
X11209Y77288D01*
X11308Y77339D01*
X11409Y77386D01*
X11511Y77429D01*
X11614Y77469D01*
X11719Y77505D01*
X11825Y77537D01*
X11932Y77566D01*
X12040Y77591D01*
X12149Y77612D01*
X12258Y77629D01*
X12368Y77643D01*
X12479Y77652D01*
X12589Y77658D01*
X12700Y77660D01*
X12811Y77658D01*
X12921Y77652D01*
X13032Y77643D01*
X13142Y77629D01*
X13251Y77612D01*
X13360Y77591D01*
X13468Y77566D01*
X13575Y77537D01*
X13681Y77505D01*
X13786Y77469D01*
X13889Y77429D01*
X13991Y77386D01*
X14092Y77339D01*
X14191Y77288D01*
X14287Y77235D01*
X14382Y77178D01*
X14475Y77117D01*
X14566Y77054D01*
X14655Y76987D01*
X14741Y76917D01*
X14824Y76844D01*
X14906Y76769D01*
X14984Y76691D01*
X15059Y76609D01*
X15132Y76526D01*
X15202Y76440D01*
X15269Y76351D01*
X15332Y76260D01*
X15393Y76167D01*
X15450Y76073D01*
X15503Y75976D01*
X15554Y75877D01*
X15601Y75776D01*
X15644Y75674D01*
X15684Y75571D01*
X15720Y75466D01*
X15752Y75360D01*
X15781Y75253D01*
X15806Y75145D01*
X15827Y75036D01*
X15844Y74927D01*
X15858Y74817D01*
X15867Y74706D01*
X15873Y74596D01*
X15875Y74485D01*
X15875Y71310D01*
X9525Y81534D02*
X14923Y85344D01*
X9525Y89154D01*
X14923Y85344D02*
X20955Y85344D01*
X22225Y93091D02*
X22225Y98171D01*
X20955Y103632D02*
X9525Y103632D01*
X20955Y102362D02*
X20955Y104902D01*
X9525Y104902D02*
X9525Y102362D01*
X9525Y109982D02*
X20955Y109982D01*
X20955Y116332D02*
X9525Y109982D01*
X9525Y116332D02*
X20955Y116332D01*
D10*
X336550Y38100D02*
X349250Y38100D01*
X336550Y38100D02*
X330200Y44450D01*
X330200Y57150D02*
X336550Y63500D01*
X330200Y44450D02*
X323850Y38100D01*
X311150Y38100D01*
X304800Y44450D01*
X304800Y57150D02*
X311150Y63500D01*
X323850Y63500D01*
X330200Y57150D01*
X355600Y57150D02*
X355600Y44450D01*
X349250Y38100D01*
X355600Y57150D02*
X349250Y63500D01*
X336550Y63500D01*
X304800Y44450D02*
X298450Y38100D01*
X285750Y38100D01*
X279400Y44450D01*
X279400Y57150D02*
X285750Y63500D01*
X298450Y63500D01*
X304800Y57150D01*
X273050Y38100D02*
X260350Y38100D01*
X254000Y44450D01*
X254000Y57150D01*
X260350Y63500D01*
X279400Y44450D02*
X273050Y38100D01*
X279400Y57150D02*
X273050Y63500D01*
X260350Y63500D01*
D12*
X360045Y53975D02*
X363220Y56515D01*
X363220Y45085D01*
X360045Y45085D02*
X366395Y45085D01*
X247015Y56515D02*
X244475Y47625D01*
X250825Y47625D01*
X248920Y50165D02*
X248920Y45085D01*
X266827Y15875D02*
X266825Y15775D01*
X266819Y15676D01*
X266809Y15576D01*
X266796Y15478D01*
X266778Y15379D01*
X266757Y15282D01*
X266732Y15186D01*
X266703Y15090D01*
X266670Y14996D01*
X266634Y14903D01*
X266594Y14812D01*
X266550Y14722D01*
X266503Y14634D01*
X266453Y14548D01*
X266399Y14464D01*
X266342Y14382D01*
X266282Y14303D01*
X266218Y14225D01*
X266152Y14151D01*
X266083Y14079D01*
X266011Y14010D01*
X265937Y13944D01*
X265859Y13880D01*
X265780Y13820D01*
X265698Y13763D01*
X265614Y13709D01*
X265528Y13659D01*
X265440Y13612D01*
X265350Y13568D01*
X265259Y13528D01*
X265166Y13492D01*
X265072Y13459D01*
X264976Y13430D01*
X264880Y13405D01*
X264783Y13384D01*
X264684Y13366D01*
X264586Y13353D01*
X264486Y13343D01*
X264387Y13337D01*
X264287Y13335D01*
X264146Y13337D01*
X264005Y13342D01*
X263864Y13352D01*
X263723Y13365D01*
X263583Y13381D01*
X263443Y13402D01*
X263304Y13426D01*
X263165Y13454D01*
X263028Y13485D01*
X262891Y13520D01*
X262755Y13558D01*
X262620Y13600D01*
X262487Y13646D01*
X262354Y13695D01*
X262223Y13748D01*
X262094Y13804D01*
X261965Y13863D01*
X261839Y13926D01*
X261714Y13992D01*
X261591Y14061D01*
X261470Y14134D01*
X261351Y14210D01*
X261233Y14289D01*
X261118Y14370D01*
X261006Y14455D01*
X260895Y14543D01*
X260787Y14634D01*
X260681Y14727D01*
X260578Y14824D01*
X260477Y14923D01*
X260795Y22225D02*
X260797Y22325D01*
X260803Y22424D01*
X260813Y22524D01*
X260826Y22622D01*
X260844Y22721D01*
X260865Y22818D01*
X260890Y22914D01*
X260919Y23010D01*
X260952Y23104D01*
X260988Y23197D01*
X261028Y23288D01*
X261072Y23378D01*
X261119Y23466D01*
X261169Y23552D01*
X261223Y23636D01*
X261280Y23718D01*
X261340Y23797D01*
X261404Y23875D01*
X261470Y23949D01*
X261539Y24021D01*
X261611Y24090D01*
X261685Y24156D01*
X261763Y24220D01*
X261842Y24280D01*
X261924Y24337D01*
X262008Y24391D01*
X262094Y24441D01*
X262182Y24488D01*
X262272Y24532D01*
X262363Y24572D01*
X262456Y24608D01*
X262550Y24641D01*
X262646Y24670D01*
X262742Y24695D01*
X262839Y24716D01*
X262938Y24734D01*
X263036Y24747D01*
X263136Y24757D01*
X263235Y24763D01*
X263335Y24765D01*
X263335Y24766D02*
X263468Y24764D01*
X263601Y24759D01*
X263734Y24749D01*
X263867Y24736D01*
X263999Y24719D01*
X264131Y24699D01*
X264262Y24675D01*
X264392Y24647D01*
X264522Y24616D01*
X264650Y24581D01*
X264778Y24542D01*
X264904Y24500D01*
X265029Y24454D01*
X265153Y24405D01*
X265276Y24353D01*
X265397Y24297D01*
X265516Y24237D01*
X265634Y24175D01*
X265749Y24109D01*
X265863Y24040D01*
X265975Y23967D01*
X266085Y23892D01*
X266193Y23813D01*
X262064Y20002D02*
X261980Y20054D01*
X261897Y20109D01*
X261817Y20168D01*
X261739Y20229D01*
X261664Y20293D01*
X261591Y20361D01*
X261520Y20431D01*
X261453Y20503D01*
X261388Y20578D01*
X261326Y20656D01*
X261267Y20736D01*
X261211Y20818D01*
X261159Y20902D01*
X261110Y20988D01*
X261064Y21076D01*
X261021Y21166D01*
X260982Y21257D01*
X260947Y21350D01*
X260915Y21444D01*
X260887Y21539D01*
X260862Y21635D01*
X260842Y21732D01*
X260824Y21830D01*
X260811Y21928D01*
X260802Y22027D01*
X260796Y22126D01*
X260794Y22225D01*
X265557Y18098D02*
X265641Y18046D01*
X265724Y17991D01*
X265804Y17932D01*
X265882Y17871D01*
X265957Y17807D01*
X266030Y17739D01*
X266101Y17669D01*
X266168Y17597D01*
X266233Y17522D01*
X266295Y17444D01*
X266354Y17364D01*
X266410Y17282D01*
X266462Y17198D01*
X266511Y17112D01*
X266557Y17024D01*
X266600Y16934D01*
X266639Y16843D01*
X266674Y16750D01*
X266706Y16656D01*
X266734Y16561D01*
X266759Y16465D01*
X266779Y16368D01*
X266797Y16270D01*
X266810Y16172D01*
X266819Y16073D01*
X266825Y15974D01*
X266827Y15875D01*
X265557Y18098D02*
X262065Y20003D01*
X274029Y13335D02*
X276569Y13335D01*
X274029Y13335D02*
X273929Y13337D01*
X273830Y13343D01*
X273730Y13353D01*
X273632Y13366D01*
X273533Y13384D01*
X273436Y13405D01*
X273340Y13430D01*
X273244Y13459D01*
X273150Y13492D01*
X273057Y13528D01*
X272966Y13568D01*
X272876Y13612D01*
X272788Y13659D01*
X272702Y13709D01*
X272618Y13763D01*
X272536Y13820D01*
X272457Y13880D01*
X272379Y13944D01*
X272305Y14010D01*
X272233Y14079D01*
X272164Y14151D01*
X272098Y14225D01*
X272034Y14303D01*
X271974Y14382D01*
X271917Y14464D01*
X271863Y14548D01*
X271813Y14634D01*
X271766Y14722D01*
X271722Y14812D01*
X271682Y14903D01*
X271646Y14996D01*
X271613Y15090D01*
X271584Y15186D01*
X271559Y15282D01*
X271538Y15379D01*
X271520Y15478D01*
X271507Y15576D01*
X271497Y15676D01*
X271491Y15775D01*
X271489Y15875D01*
X271489Y22225D01*
X271491Y22325D01*
X271497Y22424D01*
X271507Y22524D01*
X271520Y22622D01*
X271538Y22721D01*
X271559Y22818D01*
X271584Y22914D01*
X271613Y23010D01*
X271646Y23104D01*
X271682Y23197D01*
X271722Y23288D01*
X271766Y23378D01*
X271813Y23466D01*
X271863Y23552D01*
X271917Y23636D01*
X271974Y23718D01*
X272034Y23797D01*
X272098Y23875D01*
X272164Y23949D01*
X272233Y24021D01*
X272305Y24090D01*
X272379Y24156D01*
X272457Y24220D01*
X272536Y24280D01*
X272618Y24337D01*
X272702Y24391D01*
X272788Y24441D01*
X272876Y24488D01*
X272966Y24532D01*
X273057Y24572D01*
X273150Y24608D01*
X273244Y24641D01*
X273340Y24670D01*
X273436Y24695D01*
X273533Y24716D01*
X273632Y24734D01*
X273730Y24747D01*
X273830Y24757D01*
X273929Y24763D01*
X274029Y24765D01*
X276569Y24765D01*
X281051Y21590D02*
X281051Y16510D01*
X281051Y21590D02*
X281053Y21701D01*
X281059Y21811D01*
X281068Y21922D01*
X281082Y22032D01*
X281099Y22141D01*
X281120Y22250D01*
X281145Y22358D01*
X281174Y22465D01*
X281206Y22571D01*
X281242Y22676D01*
X281282Y22779D01*
X281325Y22881D01*
X281372Y22982D01*
X281423Y23081D01*
X281476Y23177D01*
X281533Y23272D01*
X281594Y23365D01*
X281657Y23456D01*
X281724Y23545D01*
X281794Y23631D01*
X281867Y23714D01*
X281942Y23796D01*
X282020Y23874D01*
X282102Y23949D01*
X282185Y24022D01*
X282271Y24092D01*
X282360Y24159D01*
X282451Y24222D01*
X282544Y24283D01*
X282639Y24340D01*
X282735Y24393D01*
X282834Y24444D01*
X282935Y24491D01*
X283037Y24534D01*
X283140Y24574D01*
X283245Y24610D01*
X283351Y24642D01*
X283458Y24671D01*
X283566Y24696D01*
X283675Y24717D01*
X283784Y24734D01*
X283894Y24748D01*
X284005Y24757D01*
X284115Y24763D01*
X284226Y24765D01*
X284337Y24763D01*
X284447Y24757D01*
X284558Y24748D01*
X284668Y24734D01*
X284777Y24717D01*
X284886Y24696D01*
X284994Y24671D01*
X285101Y24642D01*
X285207Y24610D01*
X285312Y24574D01*
X285415Y24534D01*
X285517Y24491D01*
X285618Y24444D01*
X285717Y24393D01*
X285814Y24340D01*
X285908Y24283D01*
X286001Y24222D01*
X286092Y24159D01*
X286181Y24092D01*
X286267Y24022D01*
X286350Y23949D01*
X286432Y23874D01*
X286510Y23796D01*
X286585Y23714D01*
X286658Y23631D01*
X286728Y23545D01*
X286795Y23456D01*
X286858Y23365D01*
X286919Y23272D01*
X286976Y23178D01*
X287029Y23081D01*
X287080Y22982D01*
X287127Y22881D01*
X287170Y22779D01*
X287210Y22676D01*
X287246Y22571D01*
X287278Y22465D01*
X287307Y22358D01*
X287332Y22250D01*
X287353Y22141D01*
X287370Y22032D01*
X287384Y21922D01*
X287393Y21811D01*
X287399Y21701D01*
X287401Y21590D01*
X287401Y16510D01*
X287399Y16399D01*
X287393Y16289D01*
X287384Y16178D01*
X287370Y16068D01*
X287353Y15959D01*
X287332Y15850D01*
X287307Y15742D01*
X287278Y15635D01*
X287246Y15529D01*
X287210Y15424D01*
X287170Y15321D01*
X287127Y15219D01*
X287080Y15118D01*
X287029Y15019D01*
X286976Y14922D01*
X286919Y14828D01*
X286858Y14735D01*
X286795Y14644D01*
X286728Y14555D01*
X286658Y14469D01*
X286585Y14386D01*
X286510Y14304D01*
X286432Y14226D01*
X286350Y14151D01*
X286267Y14078D01*
X286181Y14008D01*
X286092Y13941D01*
X286001Y13878D01*
X285908Y13817D01*
X285813Y13760D01*
X285717Y13707D01*
X285618Y13656D01*
X285517Y13609D01*
X285415Y13566D01*
X285312Y13526D01*
X285207Y13490D01*
X285101Y13458D01*
X284994Y13429D01*
X284886Y13404D01*
X284777Y13383D01*
X284668Y13366D01*
X284558Y13352D01*
X284447Y13343D01*
X284337Y13337D01*
X284226Y13335D01*
X284115Y13337D01*
X284005Y13343D01*
X283894Y13352D01*
X283784Y13366D01*
X283675Y13383D01*
X283566Y13404D01*
X283458Y13429D01*
X283351Y13458D01*
X283245Y13490D01*
X283140Y13526D01*
X283037Y13566D01*
X282935Y13609D01*
X282834Y13656D01*
X282735Y13707D01*
X282639Y13760D01*
X282544Y13817D01*
X282451Y13878D01*
X282360Y13941D01*
X282271Y14008D01*
X282185Y14078D01*
X282102Y14151D01*
X282020Y14226D01*
X281942Y14304D01*
X281867Y14386D01*
X281794Y14469D01*
X281724Y14555D01*
X281657Y14644D01*
X281594Y14735D01*
X281533Y14828D01*
X281476Y14922D01*
X281423Y15019D01*
X281372Y15118D01*
X281325Y15219D01*
X281282Y15321D01*
X281242Y15424D01*
X281206Y15529D01*
X281174Y15635D01*
X281145Y15742D01*
X281120Y15850D01*
X281099Y15959D01*
X281082Y16068D01*
X281068Y16178D01*
X281059Y16289D01*
X281053Y16399D01*
X281051Y16510D01*
X293053Y13335D02*
X293053Y24765D01*
X296228Y24765D01*
X296339Y24763D01*
X296449Y24757D01*
X296560Y24748D01*
X296670Y24734D01*
X296779Y24717D01*
X296888Y24696D01*
X296996Y24671D01*
X297103Y24642D01*
X297209Y24610D01*
X297314Y24574D01*
X297417Y24534D01*
X297519Y24491D01*
X297620Y24444D01*
X297719Y24393D01*
X297816Y24340D01*
X297910Y24283D01*
X298003Y24222D01*
X298094Y24159D01*
X298183Y24092D01*
X298269Y24022D01*
X298352Y23949D01*
X298434Y23874D01*
X298512Y23796D01*
X298587Y23714D01*
X298660Y23631D01*
X298730Y23545D01*
X298797Y23456D01*
X298860Y23365D01*
X298921Y23272D01*
X298978Y23177D01*
X299031Y23081D01*
X299082Y22982D01*
X299129Y22881D01*
X299172Y22779D01*
X299212Y22676D01*
X299248Y22571D01*
X299280Y22465D01*
X299309Y22358D01*
X299334Y22250D01*
X299355Y22141D01*
X299372Y22032D01*
X299386Y21922D01*
X299395Y21811D01*
X299401Y21701D01*
X299403Y21590D01*
X299401Y21479D01*
X299395Y21369D01*
X299386Y21258D01*
X299372Y21148D01*
X299355Y21039D01*
X299334Y20930D01*
X299309Y20822D01*
X299280Y20715D01*
X299248Y20609D01*
X299212Y20504D01*
X299172Y20401D01*
X299129Y20299D01*
X299082Y20198D01*
X299031Y20099D01*
X298978Y20002D01*
X298921Y19908D01*
X298860Y19815D01*
X298797Y19724D01*
X298730Y19635D01*
X298660Y19549D01*
X298587Y19466D01*
X298512Y19384D01*
X298434Y19306D01*
X298352Y19231D01*
X298269Y19158D01*
X298183Y19088D01*
X298094Y19021D01*
X298003Y18958D01*
X297910Y18897D01*
X297816Y18840D01*
X297719Y18787D01*
X297620Y18736D01*
X297519Y18689D01*
X297417Y18646D01*
X297314Y18606D01*
X297209Y18570D01*
X297103Y18538D01*
X296996Y18509D01*
X296888Y18484D01*
X296779Y18463D01*
X296670Y18446D01*
X296560Y18432D01*
X296449Y18423D01*
X296339Y18417D01*
X296228Y18415D01*
X293053Y18415D01*
X303276Y24765D02*
X307086Y19368D01*
X310896Y24765D01*
X307086Y19368D02*
X307086Y13335D01*
X314833Y12065D02*
X319913Y12065D01*
X324485Y16510D02*
X324485Y21590D01*
X324487Y21701D01*
X324493Y21811D01*
X324502Y21922D01*
X324516Y22032D01*
X324533Y22141D01*
X324554Y22250D01*
X324579Y22358D01*
X324608Y22465D01*
X324640Y22571D01*
X324676Y22676D01*
X324716Y22779D01*
X324759Y22881D01*
X324806Y22982D01*
X324857Y23081D01*
X324910Y23177D01*
X324967Y23272D01*
X325028Y23365D01*
X325091Y23456D01*
X325158Y23545D01*
X325228Y23631D01*
X325301Y23714D01*
X325376Y23796D01*
X325454Y23874D01*
X325536Y23949D01*
X325619Y24022D01*
X325705Y24092D01*
X325794Y24159D01*
X325885Y24222D01*
X325978Y24283D01*
X326073Y24340D01*
X326169Y24393D01*
X326268Y24444D01*
X326369Y24491D01*
X326471Y24534D01*
X326574Y24574D01*
X326679Y24610D01*
X326785Y24642D01*
X326892Y24671D01*
X327000Y24696D01*
X327109Y24717D01*
X327218Y24734D01*
X327328Y24748D01*
X327439Y24757D01*
X327549Y24763D01*
X327660Y24765D01*
X327771Y24763D01*
X327881Y24757D01*
X327992Y24748D01*
X328102Y24734D01*
X328211Y24717D01*
X328320Y24696D01*
X328428Y24671D01*
X328535Y24642D01*
X328641Y24610D01*
X328746Y24574D01*
X328849Y24534D01*
X328951Y24491D01*
X329052Y24444D01*
X329151Y24393D01*
X329248Y24340D01*
X329342Y24283D01*
X329435Y24222D01*
X329526Y24159D01*
X329615Y24092D01*
X329701Y24022D01*
X329784Y23949D01*
X329866Y23874D01*
X329944Y23796D01*
X330019Y23714D01*
X330092Y23631D01*
X330162Y23545D01*
X330229Y23456D01*
X330292Y23365D01*
X330353Y23272D01*
X330410Y23178D01*
X330463Y23081D01*
X330514Y22982D01*
X330561Y22881D01*
X330604Y22779D01*
X330644Y22676D01*
X330680Y22571D01*
X330712Y22465D01*
X330741Y22358D01*
X330766Y22250D01*
X330787Y22141D01*
X330804Y22032D01*
X330818Y21922D01*
X330827Y21811D01*
X330833Y21701D01*
X330835Y21590D01*
X330835Y16510D01*
X330833Y16399D01*
X330827Y16289D01*
X330818Y16178D01*
X330804Y16068D01*
X330787Y15959D01*
X330766Y15850D01*
X330741Y15742D01*
X330712Y15635D01*
X330680Y15529D01*
X330644Y15424D01*
X330604Y15321D01*
X330561Y15219D01*
X330514Y15118D01*
X330463Y15019D01*
X330410Y14922D01*
X330353Y14828D01*
X330292Y14735D01*
X330229Y14644D01*
X330162Y14555D01*
X330092Y14469D01*
X330019Y14386D01*
X329944Y14304D01*
X329866Y14226D01*
X329784Y14151D01*
X329701Y14078D01*
X329615Y14008D01*
X329526Y13941D01*
X329435Y13878D01*
X329342Y13817D01*
X329247Y13760D01*
X329151Y13707D01*
X329052Y13656D01*
X328951Y13609D01*
X328849Y13566D01*
X328746Y13526D01*
X328641Y13490D01*
X328535Y13458D01*
X328428Y13429D01*
X328320Y13404D01*
X328211Y13383D01*
X328102Y13366D01*
X327992Y13352D01*
X327881Y13343D01*
X327771Y13337D01*
X327660Y13335D01*
X327549Y13337D01*
X327439Y13343D01*
X327328Y13352D01*
X327218Y13366D01*
X327109Y13383D01*
X327000Y13404D01*
X326892Y13429D01*
X326785Y13458D01*
X326679Y13490D01*
X326574Y13526D01*
X326471Y13566D01*
X326369Y13609D01*
X326268Y13656D01*
X326169Y13707D01*
X326073Y13760D01*
X325978Y13817D01*
X325885Y13878D01*
X325794Y13941D01*
X325705Y14008D01*
X325619Y14078D01*
X325536Y14151D01*
X325454Y14226D01*
X325376Y14304D01*
X325301Y14386D01*
X325228Y14469D01*
X325158Y14555D01*
X325091Y14644D01*
X325028Y14735D01*
X324967Y14828D01*
X324910Y14922D01*
X324857Y15019D01*
X324806Y15118D01*
X324759Y15219D01*
X324716Y15321D01*
X324676Y15424D01*
X324640Y15529D01*
X324608Y15635D01*
X324579Y15742D01*
X324554Y15850D01*
X324533Y15959D01*
X324516Y16068D01*
X324502Y16178D01*
X324493Y16289D01*
X324487Y16399D01*
X324485Y16510D01*
X336296Y16510D02*
X336296Y24765D01*
X336296Y16510D02*
X336298Y16399D01*
X336304Y16289D01*
X336313Y16178D01*
X336327Y16068D01*
X336344Y15959D01*
X336365Y15850D01*
X336390Y15742D01*
X336419Y15635D01*
X336451Y15529D01*
X336487Y15424D01*
X336527Y15321D01*
X336570Y15219D01*
X336617Y15118D01*
X336668Y15019D01*
X336721Y14922D01*
X336778Y14828D01*
X336839Y14735D01*
X336902Y14644D01*
X336969Y14555D01*
X337039Y14469D01*
X337112Y14386D01*
X337187Y14304D01*
X337265Y14226D01*
X337347Y14151D01*
X337430Y14078D01*
X337516Y14008D01*
X337605Y13941D01*
X337696Y13878D01*
X337789Y13817D01*
X337884Y13760D01*
X337980Y13707D01*
X338079Y13656D01*
X338180Y13609D01*
X338282Y13566D01*
X338385Y13526D01*
X338490Y13490D01*
X338596Y13458D01*
X338703Y13429D01*
X338811Y13404D01*
X338920Y13383D01*
X339029Y13366D01*
X339139Y13352D01*
X339250Y13343D01*
X339360Y13337D01*
X339471Y13335D01*
X339582Y13337D01*
X339692Y13343D01*
X339803Y13352D01*
X339913Y13366D01*
X340022Y13383D01*
X340131Y13404D01*
X340239Y13429D01*
X340346Y13458D01*
X340452Y13490D01*
X340557Y13526D01*
X340660Y13566D01*
X340762Y13609D01*
X340863Y13656D01*
X340962Y13707D01*
X341058Y13760D01*
X341153Y13817D01*
X341246Y13878D01*
X341337Y13941D01*
X341426Y14008D01*
X341512Y14078D01*
X341595Y14151D01*
X341677Y14226D01*
X341755Y14304D01*
X341830Y14386D01*
X341903Y14469D01*
X341973Y14555D01*
X342040Y14644D01*
X342103Y14735D01*
X342164Y14828D01*
X342221Y14922D01*
X342274Y15019D01*
X342325Y15118D01*
X342372Y15219D01*
X342415Y15321D01*
X342455Y15424D01*
X342491Y15529D01*
X342523Y15635D01*
X342552Y15742D01*
X342577Y15850D01*
X342598Y15959D01*
X342615Y16068D01*
X342629Y16178D01*
X342638Y16289D01*
X342644Y16399D01*
X342646Y16510D01*
X342646Y24765D01*
X350520Y24765D02*
X350520Y13335D01*
X347345Y24765D02*
X353695Y24765D01*
D10*
X381000Y381000D02*
X381000Y406400D01*
X358140Y406400D01*
X355600Y403860D01*
X353060Y406400D01*
X332740Y406400D01*
X330200Y403860D01*
X327660Y406400D01*
X307340Y406400D01*
X304800Y403860D01*
X302260Y406400D01*
X281940Y406400D01*
X279400Y403860D01*
X276860Y406400D01*
X254000Y406400D01*
X254000Y381000D01*
X276860Y381000D01*
X279400Y383540D01*
X281940Y381000D01*
X302260Y381000D01*
X304800Y383540D01*
X307340Y381000D01*
X327660Y381000D01*
X330200Y383540D01*
X332740Y381000D01*
X353060Y381000D01*
X355600Y383540D01*
X358140Y381000D01*
X381000Y381000D01*
D12*
X385445Y396875D02*
X388620Y399415D01*
X388620Y387985D01*
X385445Y387985D02*
X391795Y387985D01*
X248285Y387985D02*
X244475Y387985D01*
X248285Y387985D02*
X248385Y387987D01*
X248484Y387993D01*
X248584Y388003D01*
X248682Y388016D01*
X248781Y388034D01*
X248878Y388055D01*
X248974Y388080D01*
X249070Y388109D01*
X249164Y388142D01*
X249257Y388178D01*
X249348Y388218D01*
X249438Y388262D01*
X249526Y388309D01*
X249612Y388359D01*
X249696Y388413D01*
X249778Y388470D01*
X249857Y388530D01*
X249935Y388594D01*
X250009Y388660D01*
X250081Y388729D01*
X250150Y388801D01*
X250216Y388875D01*
X250280Y388953D01*
X250340Y389032D01*
X250397Y389114D01*
X250451Y389198D01*
X250501Y389284D01*
X250548Y389372D01*
X250592Y389462D01*
X250632Y389553D01*
X250668Y389646D01*
X250701Y389740D01*
X250730Y389836D01*
X250755Y389932D01*
X250776Y390029D01*
X250794Y390128D01*
X250807Y390226D01*
X250817Y390326D01*
X250823Y390425D01*
X250825Y390525D01*
X250825Y391795D01*
X250823Y391895D01*
X250817Y391994D01*
X250807Y392094D01*
X250794Y392192D01*
X250776Y392291D01*
X250755Y392388D01*
X250730Y392484D01*
X250701Y392580D01*
X250668Y392674D01*
X250632Y392767D01*
X250592Y392858D01*
X250548Y392948D01*
X250501Y393036D01*
X250451Y393122D01*
X250397Y393206D01*
X250340Y393288D01*
X250280Y393367D01*
X250216Y393445D01*
X250150Y393519D01*
X250081Y393591D01*
X250009Y393660D01*
X249935Y393726D01*
X249857Y393790D01*
X249778Y393850D01*
X249696Y393907D01*
X249612Y393961D01*
X249526Y394011D01*
X249438Y394058D01*
X249348Y394102D01*
X249257Y394142D01*
X249164Y394178D01*
X249070Y394211D01*
X248974Y394240D01*
X248878Y394265D01*
X248781Y394286D01*
X248682Y394304D01*
X248584Y394317D01*
X248484Y394327D01*
X248385Y394333D01*
X248285Y394335D01*
X244475Y394335D01*
X244475Y399415D01*
X250825Y399415D01*
X235585Y419735D02*
X235685Y419737D01*
X235784Y419743D01*
X235884Y419753D01*
X235982Y419766D01*
X236081Y419784D01*
X236178Y419805D01*
X236274Y419830D01*
X236370Y419859D01*
X236464Y419892D01*
X236557Y419928D01*
X236648Y419968D01*
X236738Y420012D01*
X236826Y420059D01*
X236912Y420109D01*
X236996Y420163D01*
X237078Y420220D01*
X237157Y420280D01*
X237235Y420344D01*
X237309Y420410D01*
X237381Y420479D01*
X237450Y420551D01*
X237516Y420625D01*
X237580Y420703D01*
X237640Y420782D01*
X237697Y420864D01*
X237751Y420948D01*
X237801Y421034D01*
X237848Y421122D01*
X237892Y421212D01*
X237932Y421303D01*
X237968Y421396D01*
X238001Y421490D01*
X238030Y421586D01*
X238055Y421682D01*
X238076Y421779D01*
X238094Y421878D01*
X238107Y421976D01*
X238117Y422076D01*
X238123Y422175D01*
X238125Y422275D01*
X235585Y419735D02*
X235444Y419737D01*
X235303Y419742D01*
X235162Y419752D01*
X235021Y419765D01*
X234881Y419781D01*
X234741Y419802D01*
X234602Y419826D01*
X234463Y419854D01*
X234326Y419885D01*
X234189Y419920D01*
X234053Y419958D01*
X233918Y420000D01*
X233785Y420046D01*
X233652Y420095D01*
X233521Y420148D01*
X233392Y420204D01*
X233263Y420263D01*
X233137Y420326D01*
X233012Y420392D01*
X232889Y420461D01*
X232768Y420534D01*
X232649Y420610D01*
X232531Y420689D01*
X232416Y420770D01*
X232304Y420855D01*
X232193Y420943D01*
X232085Y421034D01*
X231979Y421127D01*
X231876Y421224D01*
X231775Y421323D01*
X232093Y428625D02*
X232095Y428725D01*
X232101Y428824D01*
X232111Y428924D01*
X232124Y429022D01*
X232142Y429121D01*
X232163Y429218D01*
X232188Y429314D01*
X232217Y429410D01*
X232250Y429504D01*
X232286Y429597D01*
X232326Y429688D01*
X232370Y429778D01*
X232417Y429866D01*
X232467Y429952D01*
X232521Y430036D01*
X232578Y430118D01*
X232638Y430197D01*
X232702Y430275D01*
X232768Y430349D01*
X232837Y430421D01*
X232909Y430490D01*
X232983Y430556D01*
X233061Y430620D01*
X233140Y430680D01*
X233222Y430737D01*
X233306Y430791D01*
X233392Y430841D01*
X233480Y430888D01*
X233570Y430932D01*
X233661Y430972D01*
X233754Y431008D01*
X233848Y431041D01*
X233944Y431070D01*
X234040Y431095D01*
X234137Y431116D01*
X234236Y431134D01*
X234334Y431147D01*
X234434Y431157D01*
X234533Y431163D01*
X234633Y431165D01*
X234633Y431166D02*
X234766Y431164D01*
X234899Y431159D01*
X235032Y431149D01*
X235165Y431136D01*
X235297Y431119D01*
X235429Y431099D01*
X235560Y431075D01*
X235690Y431047D01*
X235820Y431016D01*
X235948Y430981D01*
X236076Y430942D01*
X236202Y430900D01*
X236327Y430854D01*
X236451Y430805D01*
X236574Y430753D01*
X236695Y430697D01*
X236814Y430637D01*
X236932Y430575D01*
X237047Y430509D01*
X237161Y430440D01*
X237273Y430367D01*
X237383Y430292D01*
X237491Y430213D01*
X233362Y426402D02*
X233278Y426454D01*
X233195Y426509D01*
X233115Y426568D01*
X233037Y426629D01*
X232962Y426693D01*
X232889Y426761D01*
X232818Y426831D01*
X232751Y426903D01*
X232686Y426978D01*
X232624Y427056D01*
X232565Y427136D01*
X232509Y427218D01*
X232457Y427302D01*
X232408Y427388D01*
X232362Y427476D01*
X232319Y427566D01*
X232280Y427657D01*
X232245Y427750D01*
X232213Y427844D01*
X232185Y427939D01*
X232160Y428035D01*
X232140Y428132D01*
X232122Y428230D01*
X232109Y428328D01*
X232100Y428427D01*
X232094Y428526D01*
X232092Y428625D01*
X236855Y424498D02*
X236939Y424446D01*
X237022Y424391D01*
X237102Y424332D01*
X237180Y424271D01*
X237255Y424207D01*
X237328Y424139D01*
X237399Y424069D01*
X237466Y423997D01*
X237531Y423922D01*
X237593Y423844D01*
X237652Y423764D01*
X237708Y423682D01*
X237760Y423598D01*
X237809Y423512D01*
X237855Y423424D01*
X237898Y423334D01*
X237937Y423243D01*
X237972Y423150D01*
X238004Y423056D01*
X238032Y422961D01*
X238057Y422865D01*
X238077Y422768D01*
X238095Y422670D01*
X238108Y422572D01*
X238117Y422473D01*
X238123Y422374D01*
X238125Y422275D01*
X236855Y424498D02*
X233363Y426403D01*
X243396Y431165D02*
X243396Y419735D01*
X243396Y431165D02*
X246571Y431165D01*
X246682Y431163D01*
X246792Y431157D01*
X246903Y431148D01*
X247013Y431134D01*
X247122Y431117D01*
X247231Y431096D01*
X247339Y431071D01*
X247446Y431042D01*
X247552Y431010D01*
X247657Y430974D01*
X247760Y430934D01*
X247862Y430891D01*
X247963Y430844D01*
X248062Y430793D01*
X248159Y430740D01*
X248253Y430683D01*
X248346Y430622D01*
X248437Y430559D01*
X248526Y430492D01*
X248612Y430422D01*
X248695Y430349D01*
X248777Y430274D01*
X248855Y430196D01*
X248930Y430114D01*
X249003Y430031D01*
X249073Y429945D01*
X249140Y429856D01*
X249203Y429765D01*
X249264Y429672D01*
X249321Y429577D01*
X249374Y429481D01*
X249425Y429382D01*
X249472Y429281D01*
X249515Y429179D01*
X249555Y429076D01*
X249591Y428971D01*
X249623Y428865D01*
X249652Y428758D01*
X249677Y428650D01*
X249698Y428541D01*
X249715Y428432D01*
X249729Y428322D01*
X249738Y428211D01*
X249744Y428101D01*
X249746Y427990D01*
X249744Y427879D01*
X249738Y427769D01*
X249729Y427658D01*
X249715Y427548D01*
X249698Y427439D01*
X249677Y427330D01*
X249652Y427222D01*
X249623Y427115D01*
X249591Y427009D01*
X249555Y426904D01*
X249515Y426801D01*
X249472Y426699D01*
X249425Y426598D01*
X249374Y426499D01*
X249321Y426402D01*
X249264Y426308D01*
X249203Y426215D01*
X249140Y426124D01*
X249073Y426035D01*
X249003Y425949D01*
X248930Y425866D01*
X248855Y425784D01*
X248777Y425706D01*
X248695Y425631D01*
X248612Y425558D01*
X248526Y425488D01*
X248437Y425421D01*
X248346Y425358D01*
X248253Y425297D01*
X248158Y425240D01*
X248062Y425187D01*
X247963Y425136D01*
X247862Y425089D01*
X247760Y425046D01*
X247657Y425006D01*
X247552Y424970D01*
X247446Y424938D01*
X247339Y424909D01*
X247231Y424884D01*
X247122Y424863D01*
X247013Y424846D01*
X246903Y424832D01*
X246792Y424823D01*
X246682Y424817D01*
X246571Y424815D01*
X243396Y424815D01*
X254661Y419735D02*
X259741Y419735D01*
X254661Y419735D02*
X254661Y431165D01*
X259741Y431165D01*
X258471Y426085D02*
X254661Y426085D01*
X263525Y419735D02*
X267335Y431165D01*
X271145Y419735D01*
X270193Y422593D02*
X264478Y422593D01*
X276162Y419735D02*
X276162Y431165D01*
X282512Y431165D02*
X276162Y424180D01*
X278702Y426720D02*
X282512Y419735D01*
X287427Y419735D02*
X292507Y419735D01*
X287427Y419735D02*
X287427Y431165D01*
X292507Y431165D01*
X291237Y426085D02*
X287427Y426085D01*
X297390Y431165D02*
X297390Y419735D01*
X297390Y431165D02*
X300565Y431165D01*
X300676Y431163D01*
X300786Y431157D01*
X300897Y431148D01*
X301007Y431134D01*
X301116Y431117D01*
X301225Y431096D01*
X301333Y431071D01*
X301440Y431042D01*
X301546Y431010D01*
X301651Y430974D01*
X301754Y430934D01*
X301856Y430891D01*
X301957Y430844D01*
X302056Y430793D01*
X302153Y430740D01*
X302247Y430683D01*
X302340Y430622D01*
X302431Y430559D01*
X302520Y430492D01*
X302606Y430422D01*
X302689Y430349D01*
X302771Y430274D01*
X302849Y430196D01*
X302924Y430114D01*
X302997Y430031D01*
X303067Y429945D01*
X303134Y429856D01*
X303197Y429765D01*
X303258Y429672D01*
X303315Y429577D01*
X303368Y429481D01*
X303419Y429382D01*
X303466Y429281D01*
X303509Y429179D01*
X303549Y429076D01*
X303585Y428971D01*
X303617Y428865D01*
X303646Y428758D01*
X303671Y428650D01*
X303692Y428541D01*
X303709Y428432D01*
X303723Y428322D01*
X303732Y428211D01*
X303738Y428101D01*
X303740Y427990D01*
X303738Y427879D01*
X303732Y427769D01*
X303723Y427658D01*
X303709Y427548D01*
X303692Y427439D01*
X303671Y427330D01*
X303646Y427222D01*
X303617Y427115D01*
X303585Y427009D01*
X303549Y426904D01*
X303509Y426801D01*
X303466Y426699D01*
X303419Y426598D01*
X303368Y426499D01*
X303315Y426402D01*
X303258Y426308D01*
X303197Y426215D01*
X303134Y426124D01*
X303067Y426035D01*
X302997Y425949D01*
X302924Y425866D01*
X302849Y425784D01*
X302771Y425706D01*
X302689Y425631D01*
X302606Y425558D01*
X302520Y425488D01*
X302431Y425421D01*
X302340Y425358D01*
X302247Y425297D01*
X302153Y425240D01*
X302056Y425187D01*
X301957Y425136D01*
X301856Y425089D01*
X301754Y425046D01*
X301651Y425006D01*
X301546Y424970D01*
X301440Y424938D01*
X301333Y424909D01*
X301225Y424884D01*
X301116Y424863D01*
X301007Y424846D01*
X300897Y424832D01*
X300786Y424823D01*
X300676Y424817D01*
X300565Y424815D01*
X297390Y424815D01*
X301200Y424815D02*
X303740Y419735D01*
X308229Y418465D02*
X313309Y418465D01*
X318453Y426085D02*
X321628Y426085D01*
X321739Y426083D01*
X321849Y426077D01*
X321960Y426068D01*
X322070Y426054D01*
X322179Y426037D01*
X322288Y426016D01*
X322396Y425991D01*
X322503Y425962D01*
X322609Y425930D01*
X322714Y425894D01*
X322817Y425854D01*
X322919Y425811D01*
X323020Y425764D01*
X323119Y425713D01*
X323216Y425660D01*
X323310Y425603D01*
X323403Y425542D01*
X323494Y425479D01*
X323583Y425412D01*
X323669Y425342D01*
X323752Y425269D01*
X323834Y425194D01*
X323912Y425116D01*
X323987Y425034D01*
X324060Y424951D01*
X324130Y424865D01*
X324197Y424776D01*
X324260Y424685D01*
X324321Y424592D01*
X324378Y424497D01*
X324431Y424401D01*
X324482Y424302D01*
X324529Y424201D01*
X324572Y424099D01*
X324612Y423996D01*
X324648Y423891D01*
X324680Y423785D01*
X324709Y423678D01*
X324734Y423570D01*
X324755Y423461D01*
X324772Y423352D01*
X324786Y423242D01*
X324795Y423131D01*
X324801Y423021D01*
X324803Y422910D01*
X324801Y422799D01*
X324795Y422689D01*
X324786Y422578D01*
X324772Y422468D01*
X324755Y422359D01*
X324734Y422250D01*
X324709Y422142D01*
X324680Y422035D01*
X324648Y421929D01*
X324612Y421824D01*
X324572Y421721D01*
X324529Y421619D01*
X324482Y421518D01*
X324431Y421419D01*
X324378Y421322D01*
X324321Y421228D01*
X324260Y421135D01*
X324197Y421044D01*
X324130Y420955D01*
X324060Y420869D01*
X323987Y420786D01*
X323912Y420704D01*
X323834Y420626D01*
X323752Y420551D01*
X323669Y420478D01*
X323583Y420408D01*
X323494Y420341D01*
X323403Y420278D01*
X323310Y420217D01*
X323216Y420160D01*
X323119Y420107D01*
X323020Y420056D01*
X322919Y420009D01*
X322817Y419966D01*
X322714Y419926D01*
X322609Y419890D01*
X322503Y419858D01*
X322396Y419829D01*
X322288Y419804D01*
X322179Y419783D01*
X322070Y419766D01*
X321960Y419752D01*
X321849Y419743D01*
X321739Y419737D01*
X321628Y419735D01*
X318453Y419735D01*
X318453Y431165D01*
X321628Y431165D01*
X321728Y431163D01*
X321827Y431157D01*
X321927Y431147D01*
X322025Y431134D01*
X322124Y431116D01*
X322221Y431095D01*
X322317Y431070D01*
X322413Y431041D01*
X322507Y431008D01*
X322600Y430972D01*
X322691Y430932D01*
X322781Y430888D01*
X322869Y430841D01*
X322955Y430791D01*
X323039Y430737D01*
X323121Y430680D01*
X323200Y430620D01*
X323278Y430556D01*
X323352Y430490D01*
X323424Y430421D01*
X323493Y430349D01*
X323559Y430275D01*
X323623Y430197D01*
X323683Y430118D01*
X323740Y430036D01*
X323794Y429952D01*
X323844Y429866D01*
X323891Y429778D01*
X323935Y429688D01*
X323975Y429597D01*
X324011Y429504D01*
X324044Y429410D01*
X324073Y429314D01*
X324098Y429218D01*
X324119Y429121D01*
X324137Y429022D01*
X324150Y428924D01*
X324160Y428824D01*
X324166Y428725D01*
X324168Y428625D01*
X324166Y428525D01*
X324160Y428426D01*
X324150Y428326D01*
X324137Y428228D01*
X324119Y428129D01*
X324098Y428032D01*
X324073Y427936D01*
X324044Y427840D01*
X324011Y427746D01*
X323975Y427653D01*
X323935Y427562D01*
X323891Y427472D01*
X323844Y427384D01*
X323794Y427298D01*
X323740Y427214D01*
X323683Y427132D01*
X323623Y427053D01*
X323559Y426975D01*
X323493Y426901D01*
X323424Y426829D01*
X323352Y426760D01*
X323278Y426694D01*
X323200Y426630D01*
X323121Y426570D01*
X323039Y426513D01*
X322955Y426459D01*
X322869Y426409D01*
X322781Y426362D01*
X322691Y426318D01*
X322600Y426278D01*
X322507Y426242D01*
X322413Y426209D01*
X322317Y426180D01*
X322221Y426155D01*
X322124Y426134D01*
X322025Y426116D01*
X321927Y426103D01*
X321827Y426093D01*
X321728Y426087D01*
X321628Y426085D01*
X328676Y419735D02*
X332486Y431165D01*
X336296Y419735D01*
X335344Y422593D02*
X329629Y422593D01*
X343154Y419735D02*
X343154Y431165D01*
X339979Y431165D02*
X346329Y431165D01*
X353060Y431165D02*
X353060Y419735D01*
X349885Y431165D02*
X356235Y431165D01*
X360959Y419735D02*
X366039Y419735D01*
X360959Y419735D02*
X360959Y431165D01*
X366039Y431165D01*
X364769Y426085D02*
X360959Y426085D01*
X370923Y431165D02*
X370923Y419735D01*
X370923Y431165D02*
X374098Y431165D01*
X374209Y431163D01*
X374319Y431157D01*
X374430Y431148D01*
X374540Y431134D01*
X374649Y431117D01*
X374758Y431096D01*
X374866Y431071D01*
X374973Y431042D01*
X375079Y431010D01*
X375184Y430974D01*
X375287Y430934D01*
X375389Y430891D01*
X375490Y430844D01*
X375589Y430793D01*
X375686Y430740D01*
X375780Y430683D01*
X375873Y430622D01*
X375964Y430559D01*
X376053Y430492D01*
X376139Y430422D01*
X376222Y430349D01*
X376304Y430274D01*
X376382Y430196D01*
X376457Y430114D01*
X376530Y430031D01*
X376600Y429945D01*
X376667Y429856D01*
X376730Y429765D01*
X376791Y429672D01*
X376848Y429577D01*
X376901Y429481D01*
X376952Y429382D01*
X376999Y429281D01*
X377042Y429179D01*
X377082Y429076D01*
X377118Y428971D01*
X377150Y428865D01*
X377179Y428758D01*
X377204Y428650D01*
X377225Y428541D01*
X377242Y428432D01*
X377256Y428322D01*
X377265Y428211D01*
X377271Y428101D01*
X377273Y427990D01*
X377271Y427879D01*
X377265Y427769D01*
X377256Y427658D01*
X377242Y427548D01*
X377225Y427439D01*
X377204Y427330D01*
X377179Y427222D01*
X377150Y427115D01*
X377118Y427009D01*
X377082Y426904D01*
X377042Y426801D01*
X376999Y426699D01*
X376952Y426598D01*
X376901Y426499D01*
X376848Y426402D01*
X376791Y426308D01*
X376730Y426215D01*
X376667Y426124D01*
X376600Y426035D01*
X376530Y425949D01*
X376457Y425866D01*
X376382Y425784D01*
X376304Y425706D01*
X376222Y425631D01*
X376139Y425558D01*
X376053Y425488D01*
X375964Y425421D01*
X375873Y425358D01*
X375780Y425297D01*
X375686Y425240D01*
X375589Y425187D01*
X375490Y425136D01*
X375389Y425089D01*
X375287Y425046D01*
X375184Y425006D01*
X375079Y424970D01*
X374973Y424938D01*
X374866Y424909D01*
X374758Y424884D01*
X374649Y424863D01*
X374540Y424846D01*
X374430Y424832D01*
X374319Y424823D01*
X374209Y424817D01*
X374098Y424815D01*
X370923Y424815D01*
X374733Y424815D02*
X377273Y419735D01*
X385445Y425768D02*
X381635Y431165D01*
X385445Y425768D02*
X389255Y431165D01*
X385445Y425768D02*
X385445Y419735D01*
D10*
X149860Y72390D02*
X149860Y66040D01*
X149860Y72390D02*
X154940Y72390D01*
X154940Y66040D01*
X161290Y66040D01*
X161290Y60960D01*
X154940Y60960D01*
X154940Y54610D01*
X149860Y54610D01*
X149860Y60960D01*
X143510Y60960D01*
X143510Y66040D01*
X149860Y66040D01*
X161290Y101600D02*
X186690Y101600D01*
X143510Y54610D02*
X138430Y49530D01*
X161290Y54610D02*
X166370Y49530D01*
X138430Y63500D02*
X133350Y63500D01*
X166370Y63500D02*
X171450Y63500D01*
X142240Y73660D02*
X139700Y76200D01*
X162560Y73660D02*
X165100Y76200D01*
X168910Y25400D02*
X135890Y25400D01*
X186690Y25400D02*
X186812Y25402D01*
X186934Y25408D01*
X187056Y25418D01*
X187177Y25431D01*
X187298Y25449D01*
X187418Y25470D01*
X187538Y25496D01*
X187656Y25525D01*
X187774Y25557D01*
X187891Y25594D01*
X188006Y25634D01*
X188120Y25678D01*
X188232Y25726D01*
X188343Y25777D01*
X188452Y25832D01*
X188560Y25890D01*
X188665Y25952D01*
X188768Y26017D01*
X188870Y26085D01*
X188969Y26157D01*
X189065Y26231D01*
X189160Y26309D01*
X189251Y26390D01*
X189341Y26473D01*
X189427Y26559D01*
X189510Y26649D01*
X189591Y26740D01*
X189669Y26835D01*
X189743Y26931D01*
X189815Y27030D01*
X189883Y27132D01*
X189948Y27235D01*
X190010Y27340D01*
X190068Y27448D01*
X190123Y27557D01*
X190174Y27668D01*
X190222Y27780D01*
X190266Y27894D01*
X190306Y28009D01*
X190343Y28126D01*
X190375Y28244D01*
X190404Y28362D01*
X190430Y28482D01*
X190451Y28602D01*
X190469Y28723D01*
X190482Y28844D01*
X190492Y28966D01*
X190498Y29088D01*
X190500Y29210D01*
X190500Y97790D02*
X190498Y97912D01*
X190492Y98034D01*
X190482Y98156D01*
X190469Y98277D01*
X190451Y98398D01*
X190430Y98518D01*
X190404Y98638D01*
X190375Y98756D01*
X190343Y98874D01*
X190306Y98991D01*
X190266Y99106D01*
X190222Y99220D01*
X190174Y99332D01*
X190123Y99443D01*
X190068Y99552D01*
X190010Y99660D01*
X189948Y99765D01*
X189883Y99868D01*
X189815Y99970D01*
X189743Y100069D01*
X189669Y100165D01*
X189591Y100260D01*
X189510Y100351D01*
X189427Y100441D01*
X189341Y100527D01*
X189251Y100610D01*
X189160Y100691D01*
X189065Y100769D01*
X188969Y100843D01*
X188870Y100915D01*
X188768Y100983D01*
X188665Y101048D01*
X188560Y101110D01*
X188452Y101168D01*
X188343Y101223D01*
X188232Y101274D01*
X188120Y101322D01*
X188006Y101366D01*
X187891Y101406D01*
X187774Y101443D01*
X187656Y101475D01*
X187538Y101504D01*
X187418Y101530D01*
X187298Y101551D01*
X187177Y101569D01*
X187056Y101582D01*
X186934Y101592D01*
X186812Y101598D01*
X186690Y101600D01*
X118110Y101600D02*
X117988Y101598D01*
X117866Y101592D01*
X117744Y101582D01*
X117623Y101569D01*
X117502Y101551D01*
X117382Y101530D01*
X117262Y101504D01*
X117144Y101475D01*
X117026Y101443D01*
X116909Y101406D01*
X116794Y101366D01*
X116680Y101322D01*
X116568Y101274D01*
X116457Y101223D01*
X116348Y101168D01*
X116240Y101110D01*
X116135Y101048D01*
X116032Y100983D01*
X115930Y100915D01*
X115831Y100843D01*
X115735Y100769D01*
X115640Y100691D01*
X115549Y100610D01*
X115459Y100527D01*
X115373Y100441D01*
X115290Y100351D01*
X115209Y100260D01*
X115131Y100165D01*
X115057Y100069D01*
X114985Y99970D01*
X114917Y99868D01*
X114852Y99765D01*
X114790Y99660D01*
X114732Y99552D01*
X114677Y99443D01*
X114626Y99332D01*
X114578Y99220D01*
X114534Y99106D01*
X114494Y98991D01*
X114457Y98874D01*
X114425Y98756D01*
X114396Y98638D01*
X114370Y98518D01*
X114349Y98398D01*
X114331Y98277D01*
X114318Y98156D01*
X114308Y98034D01*
X114302Y97912D01*
X114300Y97790D01*
X114300Y29210D02*
X114302Y29088D01*
X114308Y28966D01*
X114318Y28844D01*
X114331Y28723D01*
X114349Y28602D01*
X114370Y28482D01*
X114396Y28362D01*
X114425Y28244D01*
X114457Y28126D01*
X114494Y28009D01*
X114534Y27894D01*
X114578Y27780D01*
X114626Y27668D01*
X114677Y27557D01*
X114732Y27448D01*
X114790Y27340D01*
X114852Y27235D01*
X114917Y27132D01*
X114985Y27030D01*
X115057Y26931D01*
X115131Y26835D01*
X115209Y26740D01*
X115290Y26649D01*
X115373Y26559D01*
X115459Y26473D01*
X115549Y26390D01*
X115640Y26309D01*
X115735Y26231D01*
X115831Y26157D01*
X115930Y26085D01*
X116032Y26017D01*
X116135Y25952D01*
X116240Y25890D01*
X116348Y25832D01*
X116457Y25777D01*
X116568Y25726D01*
X116680Y25678D01*
X116794Y25634D01*
X116909Y25594D01*
X117026Y25557D01*
X117144Y25525D01*
X117262Y25496D01*
X117382Y25470D01*
X117502Y25449D01*
X117623Y25431D01*
X117744Y25418D01*
X117866Y25408D01*
X117988Y25402D01*
X118110Y25400D01*
X118110Y101600D02*
X143510Y101600D01*
X190500Y97790D02*
X190500Y48260D01*
X114300Y48260D02*
X114300Y97790D01*
D12*
X127635Y106045D02*
X127635Y117475D01*
X130810Y117475D01*
X130921Y117473D01*
X131031Y117467D01*
X131142Y117458D01*
X131252Y117444D01*
X131361Y117427D01*
X131470Y117406D01*
X131578Y117381D01*
X131685Y117352D01*
X131791Y117320D01*
X131896Y117284D01*
X131999Y117244D01*
X132101Y117201D01*
X132202Y117154D01*
X132301Y117103D01*
X132398Y117050D01*
X132492Y116993D01*
X132585Y116932D01*
X132676Y116869D01*
X132765Y116802D01*
X132851Y116732D01*
X132934Y116659D01*
X133016Y116584D01*
X133094Y116506D01*
X133169Y116424D01*
X133242Y116341D01*
X133312Y116255D01*
X133379Y116166D01*
X133442Y116075D01*
X133503Y115982D01*
X133560Y115887D01*
X133613Y115791D01*
X133664Y115692D01*
X133711Y115591D01*
X133754Y115489D01*
X133794Y115386D01*
X133830Y115281D01*
X133862Y115175D01*
X133891Y115068D01*
X133916Y114960D01*
X133937Y114851D01*
X133954Y114742D01*
X133968Y114632D01*
X133977Y114521D01*
X133983Y114411D01*
X133985Y114300D01*
X133983Y114189D01*
X133977Y114079D01*
X133968Y113968D01*
X133954Y113858D01*
X133937Y113749D01*
X133916Y113640D01*
X133891Y113532D01*
X133862Y113425D01*
X133830Y113319D01*
X133794Y113214D01*
X133754Y113111D01*
X133711Y113009D01*
X133664Y112908D01*
X133613Y112809D01*
X133560Y112712D01*
X133503Y112618D01*
X133442Y112525D01*
X133379Y112434D01*
X133312Y112345D01*
X133242Y112259D01*
X133169Y112176D01*
X133094Y112094D01*
X133016Y112016D01*
X132934Y111941D01*
X132851Y111868D01*
X132765Y111798D01*
X132676Y111731D01*
X132585Y111668D01*
X132492Y111607D01*
X132397Y111550D01*
X132301Y111497D01*
X132202Y111446D01*
X132101Y111399D01*
X131999Y111356D01*
X131896Y111316D01*
X131791Y111280D01*
X131685Y111248D01*
X131578Y111219D01*
X131470Y111194D01*
X131361Y111173D01*
X131252Y111156D01*
X131142Y111142D01*
X131031Y111133D01*
X130921Y111127D01*
X130810Y111125D01*
X127635Y111125D01*
X131445Y111125D02*
X133985Y106045D01*
X145333Y114618D02*
X145331Y114722D01*
X145325Y114827D01*
X145316Y114931D01*
X145303Y115034D01*
X145285Y115137D01*
X145265Y115239D01*
X145240Y115341D01*
X145212Y115441D01*
X145180Y115541D01*
X145144Y115639D01*
X145105Y115736D01*
X145063Y115831D01*
X145017Y115925D01*
X144967Y116017D01*
X144915Y116107D01*
X144859Y116195D01*
X144799Y116281D01*
X144737Y116365D01*
X144672Y116446D01*
X144604Y116525D01*
X144532Y116602D01*
X144459Y116675D01*
X144382Y116747D01*
X144303Y116815D01*
X144222Y116880D01*
X144138Y116942D01*
X144052Y117002D01*
X143964Y117058D01*
X143874Y117110D01*
X143782Y117160D01*
X143688Y117206D01*
X143593Y117248D01*
X143496Y117287D01*
X143398Y117323D01*
X143298Y117355D01*
X143198Y117383D01*
X143096Y117408D01*
X142994Y117428D01*
X142891Y117446D01*
X142788Y117459D01*
X142684Y117468D01*
X142579Y117474D01*
X142475Y117476D01*
X142475Y117475D02*
X142357Y117473D01*
X142238Y117467D01*
X142120Y117458D01*
X142003Y117445D01*
X141886Y117427D01*
X141769Y117407D01*
X141653Y117382D01*
X141538Y117354D01*
X141425Y117321D01*
X141312Y117286D01*
X141200Y117246D01*
X141090Y117204D01*
X140981Y117157D01*
X140873Y117107D01*
X140768Y117054D01*
X140664Y116997D01*
X140562Y116937D01*
X140462Y116874D01*
X140364Y116807D01*
X140268Y116738D01*
X140175Y116665D01*
X140084Y116589D01*
X139995Y116511D01*
X139909Y116429D01*
X139826Y116345D01*
X139745Y116259D01*
X139668Y116169D01*
X139593Y116078D01*
X139521Y115984D01*
X139452Y115887D01*
X139387Y115789D01*
X139324Y115688D01*
X139265Y115585D01*
X139209Y115481D01*
X139157Y115375D01*
X139108Y115267D01*
X139063Y115158D01*
X139021Y115047D01*
X138983Y114935D01*
X144380Y112396D02*
X144456Y112471D01*
X144531Y112550D01*
X144602Y112631D01*
X144671Y112715D01*
X144736Y112801D01*
X144798Y112889D01*
X144858Y112979D01*
X144914Y113071D01*
X144967Y113166D01*
X145016Y113262D01*
X145062Y113360D01*
X145105Y113459D01*
X145144Y113560D01*
X145179Y113662D01*
X145211Y113765D01*
X145239Y113869D01*
X145264Y113974D01*
X145285Y114081D01*
X145302Y114187D01*
X145315Y114294D01*
X145324Y114402D01*
X145330Y114510D01*
X145332Y114618D01*
X144380Y112395D02*
X138982Y106045D01*
X145332Y106045D01*
M02*
